solid OpenSCAD_Model
  facet normal -0.81556 0.473023 0.333333
    outer loop
      vertex 1.31314e-015 4.3393e-007 10
      vertex 0.0140233 7.07105 1.10674e-015
      vertex -6.13072 -3.52338 -4.62041e-015
    endloop
  endfacet
  facet normal -0.00187077 -0.942807 0.333334
    outer loop
      vertex 6.11669 -3.54769 6.34563e-015
      vertex 1.31314e-015 4.3393e-007 10
      vertex -6.13072 -3.52338 -4.62041e-015
    endloop
  endfacet
  facet normal 8.95419e-016 2.12407e-017 -1
    outer loop
      vertex 1.40737 3.49878 2.27849e-015
      vertex 0.0140233 7.07105 1.10674e-015
      vertex 6.11669 -3.54769 6.34563e-015
    endloop
  endfacet
  facet normal 8.95419e-016 2.12407e-017 -1
    outer loop
      vertex -6.13072 -3.52338 -4.62041e-015
      vertex 0.0140233 7.07105 1.10674e-015
      vertex -4.73688 -2.26143 -3.34554e-015
    endloop
  endfacet
  facet normal 8.95419e-016 2.12407e-017 -1
    outer loop
      vertex -6.13072 -3.52338 -4.62041e-015
      vertex -4.73688 -2.26143 -3.34554e-015
      vertex -4.96226 -2.85202 -3.55989e-015
    endloop
  endfacet
  facet normal 8.95419e-016 2.12407e-017 -1
    outer loop
      vertex -6.13072 -3.52338 -4.62041e-015
      vertex -4.96226 -2.85202 -3.55989e-015
      vertex -4.33855 -2.95472 -3.0036e-015
    endloop
  endfacet
  facet normal 8.95419e-016 2.12407e-017 -1
    outer loop
      vertex -6.13072 -3.52338 -4.62041e-015
      vertex -4.33855 -2.95472 -3.0036e-015
      vertex 6.11669 -3.54769 6.34563e-015
    endloop
  endfacet
  facet normal 8.95419e-016 2.12407e-017 -1
    outer loop
      vertex -2.00667 -2.30642 -9.01818e-016
      vertex 6.11669 -3.54769 6.34563e-015
      vertex -2.23226 -2.89807 -1.11638e-015
    endloop
  endfacet
  facet normal 8.95419e-016 2.12407e-017 -1
    outer loop
      vertex -2.33858 -2.95853 -1.21286e-015
      vertex -2.23226 -2.89807 -1.11638e-015
      vertex 6.11669 -3.54769 6.34563e-015
    endloop
  endfacet
  facet normal 8.95419e-016 2.12407e-017 -1
    outer loop
      vertex -1.39264 3.50549 -2.28549e-016
      vertex 0.0140233 7.07105 1.10674e-015
      vertex -0.389771 5.23436 7.06159e-016
    endloop
  endfacet
  facet normal 8.95419e-016 2.12407e-017 -1
    outer loop
      vertex -3.62735 -0.47049 -2.314e-015
      vertex 0.0140233 7.07105 1.10674e-015
      vertex -3.00364 -0.573195 -1.75771e-015
    endloop
  endfacet
  facet normal 8.95419e-016 2.12407e-017 -1
    outer loop
      vertex -3.73367 -0.530945 -2.41049e-015
      vertex 0.0140233 7.07105 1.10674e-015
      vertex -3.62735 -0.47049 -2.314e-015
    endloop
  endfacet
  facet normal 8.95419e-016 2.12407e-017 -1
    outer loop
      vertex -4.73688 -2.26143 -3.34554e-015
      vertex 0.0140233 7.07105 1.10674e-015
      vertex -3.73367 -0.530945 -2.41049e-015
    endloop
  endfacet
  facet normal 8.95419e-016 2.12407e-017 -1
    outer loop
      vertex -3.00364 -0.573195 -1.75771e-015
      vertex 0.0140233 7.07105 1.10674e-015
      vertex -1.39264 3.50549 -2.28549e-016
    endloop
  endfacet
  facet normal 8.95419e-016 2.12407e-017 -1
    outer loop
      vertex -3.00364 -0.573195 -1.75771e-015
      vertex -1.39264 3.50549 -2.28549e-016
      vertex -2.00667 -2.30642 -9.01818e-016
    endloop
  endfacet
  facet normal 8.95419e-016 2.12407e-017 -1
    outer loop
      vertex 1.00577 2.88806 1.90592e-015
      vertex -2.00667 -2.30642 -9.01818e-016
      vertex -0.994234 2.89146 1.15147e-016
    endloop
  endfacet
  facet normal 8.95419e-016 2.12407e-017 -1
    outer loop
      vertex -1.39264 3.50549 -2.28549e-016
      vertex -1.39356 3.38301 -2.31974e-016
      vertex -2.00667 -2.30642 -9.01818e-016
    endloop
  endfacet
  facet normal 8.95419e-016 2.12407e-017 -1
    outer loop
      vertex -0.389771 5.23436 7.06159e-016
      vertex 0.0140233 7.07105 1.10674e-015
      vertex 0.0109081 5.72382 1.07533e-015
    endloop
  endfacet
  facet normal 8.95419e-016 2.12407e-017 -1
    outer loop
      vertex -1.39356 3.38301 -2.31974e-016
      vertex -0.994234 2.89146 1.15147e-016
      vertex -2.00667 -2.30642 -9.01818e-016
    endloop
  endfacet
  facet normal 8.95419e-016 2.12407e-017 -1
    outer loop
      vertex 1.998 -2.31534 2.68385e-015
      vertex 1.00577 2.88806 1.90592e-015
      vertex 3.00134 -0.585294 3.61901e-015
    endloop
  endfacet
  facet normal 8.95419e-016 2.12407e-017 -1
    outer loop
      vertex 3.73137 -0.545865 4.27353e-015
      vertex 1.00577 2.88806 1.90592e-015
      vertex 6.11669 -3.54769 6.34563e-015
    endloop
  endfacet
  facet normal 8.95419e-016 2.12407e-017 -1
    outer loop
      vertex 1.00577 2.88806 1.90592e-015
      vertex 1.40645 3.3763 2.27506e-015
      vertex 6.11669 -3.54769 6.34563e-015
    endloop
  endfacet
  facet normal 8.95419e-016 2.12407e-017 -1
    outer loop
      vertex 1.40645 3.3763 2.27506e-015
      vertex 1.40737 3.49878 2.27849e-015
      vertex 6.11669 -3.54769 6.34563e-015
    endloop
  endfacet
  facet normal 8.95419e-016 2.12407e-017 -1
    outer loop
      vertex 0.0109081 5.72382 1.07533e-015
      vertex 0.0140233 7.07105 1.10674e-015
      vertex 0.410231 5.23349 1.42248e-015
    endloop
  endfacet
  facet normal 8.95419e-016 2.12407e-017 -1
    outer loop
      vertex 0.410231 5.23349 1.42248e-015
      vertex 0.0140233 7.07105 1.10674e-015
      vertex 1.40737 3.49878 2.27849e-015
    endloop
  endfacet
  facet normal 8.95419e-016 2.12407e-017 -1
    outer loop
      vertex -2.00667 -2.30642 -9.01818e-016
      vertex 1.00577 2.88806 1.90592e-015
      vertex 1.998 -2.31534 2.68385e-015
    endloop
  endfacet
  facet normal 8.95419e-016 2.12407e-017 -1
    outer loop
      vertex -2.00667 -2.30642 -9.01818e-016
      vertex 1.998 -2.31534 2.68385e-015
      vertex 2.22074 -2.90648 2.87075e-015
    endloop
  endfacet
  facet normal 8.95419e-016 2.12407e-017 -1
    outer loop
      vertex -2.00667 -2.30642 -9.01818e-016
      vertex 2.22074 -2.90648 2.87075e-015
      vertex 2.32719 -2.96814 2.96475e-015
    endloop
  endfacet
  facet normal 8.95419e-016 2.12407e-017 -1
    outer loop
      vertex -2.00667 -2.30642 -9.01818e-016
      vertex 2.32719 -2.96814 2.96475e-015
      vertex 6.11669 -3.54769 6.34563e-015
    endloop
  endfacet
  facet normal 8.95419e-016 2.12407e-017 -1
    outer loop
      vertex 4.32703 -2.97162 4.75537e-015
      vertex 6.11669 -3.54769 6.34563e-015
      vertex 2.32719 -2.96814 2.96475e-015
    endloop
  endfacet
  facet normal 8.95419e-016 2.12407e-017 -1
    outer loop
      vertex 3.00134 -0.585294 3.61901e-015
      vertex 1.00577 2.88806 1.90592e-015
      vertex 3.62608 -0.484211 4.18056e-015
    endloop
  endfacet
  facet normal 8.95419e-016 2.12407e-017 -1
    outer loop
      vertex 4.32703 -2.97162 4.75537e-015
      vertex 4.95082 -2.8716 5.31605e-015
      vertex 6.11669 -3.54769 6.34563e-015
    endloop
  endfacet
  facet normal 8.95419e-016 2.12407e-017 -1
    outer loop
      vertex 4.95082 -2.8716 5.31605e-015
      vertex 4.72807 -2.28045 5.12915e-015
      vertex 6.11669 -3.54769 6.34563e-015
    endloop
  endfacet
  facet normal 8.95419e-016 2.12407e-017 -1
    outer loop
      vertex 3.62608 -0.484211 4.18056e-015
      vertex 1.00577 2.88806 1.90592e-015
      vertex 3.73137 -0.545865 4.27353e-015
    endloop
  endfacet
  facet normal 8.95419e-016 2.12407e-017 -1
    outer loop
      vertex 4.72807 -2.28045 5.12915e-015
      vertex 3.73137 -0.545865 4.27353e-015
      vertex 6.11669 -3.54769 6.34563e-015
    endloop
  endfacet
  facet normal 8.95419e-016 2.12407e-017 -1
    outer loop
      vertex -2.33858 -2.95853 -1.21286e-015
      vertex 6.11669 -3.54769 6.34563e-015
      vertex -4.33855 -2.95472 -3.0036e-015
    endloop
  endfacet
  facet normal 0.817431 0.469783 0.333332
    outer loop
      vertex 6.11669 -3.54769 6.34563e-015
      vertex 0.0140233 7.07105 1.10674e-015
      vertex 1.31314e-015 4.3393e-007 10
    endloop
  endfacet
  facet normal 0.852895 -0.325482 -0.408206
    outer loop
      vertex -4.73688 -2.26143 -3.34554e-015
      vertex -2.14057 -0.769306 4.23491
      vertex -2.22443 -1.27856 4.46575
    endloop
  endfacet
  facet normal 0.852895 -0.325482 -0.408206
    outer loop
      vertex -4.96226 -2.85202 -3.55989e-015
      vertex -4.73688 -2.26143 -3.34554e-015
      vertex -2.22443 -1.27856 4.46575
    endloop
  endfacet
  facet normal 0.815624 -0.47284 -0.333436
    outer loop
      vertex -3.73367 -0.530945 -2.41049e-015
      vertex -1.63794 0.673492 3.41841
      vertex -2.14057 -0.769306 4.23491
    endloop
  endfacet
  facet normal 0.815624 -0.47284 -0.333436
    outer loop
      vertex -4.73688 -2.26143 -3.34554e-015
      vertex -3.73367 -0.530945 -2.41049e-015
      vertex -2.14057 -0.769306 4.23491
    endloop
  endfacet
  facet normal 0.494282 -0.869295 0.00325547
    outer loop
      vertex -3.62735 -0.47049 -2.314e-015
      vertex -1.56696 0.713632 3.36075
      vertex -1.63794 0.673492 3.41841
    endloop
  endfacet
  facet normal 0.494282 -0.869295 0.00325547
    outer loop
      vertex -3.73367 -0.530945 -2.41049e-015
      vertex -3.62735 -0.47049 -2.314e-015
      vertex -1.63794 0.673492 3.41841
    endloop
  endfacet
  facet normal -0.148321 -0.900722 0.40829
    outer loop
      vertex -3.00364 -0.573195 -1.75771e-015
      vertex -1.08475 0.52961 3.12996
      vertex -1.56696 0.713632 3.36075
    endloop
  endfacet
  facet normal -0.148321 -0.900722 0.40829
    outer loop
      vertex -3.62735 -0.47049 -2.314e-015
      vertex -3.00364 -0.573195 -1.75771e-015
      vertex -1.56696 0.713632 3.36075
    endloop
  endfacet
  facet normal -0.707763 -0.407111 0.57735
    outer loop
      vertex -0.0880001 -1.20374 3.12961
      vertex -1.08475 0.52961 3.12996
      vertex -2.00667 -2.30642 -9.01818e-016
    endloop
  endfacet
  facet normal -0.707763 -0.407111 0.57735
    outer loop
      vertex -2.00667 -2.30642 -9.01818e-016
      vertex -1.08475 0.52961 3.12996
      vertex -3.00364 -0.573195 -1.75771e-015
    endloop
  endfacet
  facet normal -0.85294 0.325209 0.40833
    outer loop
      vertex -0.0880001 -1.20374 3.12961
      vertex -2.00667 -2.30642 -9.01818e-016
      vertex -0.171858 -1.71394 3.36078
    endloop
  endfacet
  facet normal -0.85294 0.325209 0.40833
    outer loop
      vertex -0.171858 -1.71394 3.36078
      vertex -2.00667 -2.30642 -9.01818e-016
      vertex -2.23226 -2.89807 -1.11638e-015
    endloop
  endfacet
  facet normal -0.494282 0.869295 -0.00325547
    outer loop
      vertex -0.171858 -1.71394 3.36078
      vertex -2.23226 -2.89807 -1.11638e-015
      vertex -0.242833 -1.75408 3.41844
    endloop
  endfacet
  facet normal -0.494282 0.869295 -0.00325547
    outer loop
      vertex -0.242833 -1.75408 3.41844
      vertex -2.23226 -2.89807 -1.11638e-015
      vertex -2.33858 -2.95853 -1.21286e-015
    endloop
  endfacet
  facet normal 0.00179401 0.942822 -0.333292
    outer loop
      vertex -0.242833 -1.75408 3.41844
      vertex -2.33858 -2.95853 -1.21286e-015
      vertex -1.74222 -1.46258 4.23496
    endloop
  endfacet
  facet normal 0.00179401 0.942822 -0.333292
    outer loop
      vertex -1.74222 -1.46258 4.23496
      vertex -2.33858 -2.95853 -1.21286e-015
      vertex -4.33855 -2.95472 -3.0036e-015
    endloop
  endfacet
  facet normal 0.148321 0.900722 -0.40829
    outer loop
      vertex -1.74222 -1.46258 4.23496
      vertex -4.33855 -2.95472 -3.0036e-015
      vertex -2.22443 -1.27856 4.46575
    endloop
  endfacet
  facet normal 0.148321 0.900722 -0.40829
    outer loop
      vertex -2.22443 -1.27856 4.46575
      vertex -4.33855 -2.95472 -3.0036e-015
      vertex -4.96226 -2.85202 -3.55989e-015
    endloop
  endfacet
  facet normal 0.999964 -0.00750788 -0.00390658
    outer loop
      vertex -1.39356 3.38301 -2.31974e-016
      vertex -1.39264 3.50549 -2.28549e-016
      vertex -1.39743 1.08798 3.41889
    endloop
  endfacet
  facet normal 0.999964 -0.00750788 -0.00390658
    outer loop
      vertex -1.39827 1.00633 3.36115
      vertex -1.39356 3.38301 -2.31974e-016
      vertex -1.39743 1.08798 3.41889
    endloop
  endfacet
  facet normal 0.815526 -0.473062 -0.333361
    outer loop
      vertex -1.39264 3.50549 -2.28549e-016
      vertex -0.389771 5.23436 7.06159e-016
      vertex -0.39571 2.2399 4.23482
    endloop
  endfacet
  facet normal 0.815526 -0.473062 -0.333361
    outer loop
      vertex -1.39743 1.08798 3.41889
      vertex -1.39264 3.50549 -2.28549e-016
      vertex -0.39571 2.2399 4.23482
    endloop
  endfacet
  facet normal 0.70648 -0.578329 -0.407949
    outer loop
      vertex -0.389771 5.23436 7.06159e-016
      vertex 0.0109081 5.72382 1.07533e-015
      vertex 0.00464534 2.56594 4.46593
    endloop
  endfacet
  facet normal 0.70648 -0.578329 -0.407949
    outer loop
      vertex -0.39571 2.2399 4.23482
      vertex -0.389771 5.23436 7.06159e-016
      vertex 0.00464534 2.56594 4.46593
    endloop
  endfacet
  facet normal -0.707733 -0.576371 -0.408547
    outer loop
      vertex 0.410231 5.23349 1.42248e-015
      vertex 0.404292 2.23879 4.23516
      vertex 0.0109081 5.72382 1.07533e-015
    endloop
  endfacet
  facet normal -0.707733 -0.576371 -0.408547
    outer loop
      vertex 0.0109081 5.72382 1.07533e-015
      vertex 0.404292 2.23879 4.23516
      vertex 0.00464534 2.56594 4.46593
    endloop
  endfacet
  facet normal -0.81738 -0.469842 -0.333374
    outer loop
      vertex 1.40737 3.49878 2.27849e-015
      vertex 1.40258 1.08165 3.41834
      vertex 0.410231 5.23349 1.42248e-015
    endloop
  endfacet
  facet normal -0.81738 -0.469842 -0.333374
    outer loop
      vertex 0.410231 5.23349 1.42248e-015
      vertex 1.40258 1.08165 3.41834
      vertex 0.404292 2.23879 4.23516
    endloop
  endfacet
  facet normal -0.999964 0.00750788 0.00390658
    outer loop
      vertex 1.40737 3.49878 2.27849e-015
      vertex 1.40645 3.3763 2.27506e-015
      vertex 1.40258 1.08165 3.41834
    endloop
  endfacet
  facet normal -0.999964 0.00750788 0.00390658
    outer loop
      vertex 1.40258 1.08165 3.41834
      vertex 1.40645 3.3763 2.27506e-015
      vertex 1.40174 1 3.3606
    endloop
  endfacet
  facet normal -0.705591 0.579052 0.408461
    outer loop
      vertex 1.40645 3.3763 2.27506e-015
      vertex 1.00577 2.88806 1.90592e-015
      vertex 1.40174 1 3.3606
    endloop
  endfacet
  facet normal -0.705591 0.579052 0.408461
    outer loop
      vertex 1.40174 1 3.3606
      vertex 1.00577 2.88806 1.90592e-015
      vertex 1.00138 0.674772 3.13007
    endloop
  endfacet
  facet normal 0.00138605 0.816496 0.57735
    outer loop
      vertex 1.00577 2.88806 1.90592e-015
      vertex -0.994234 2.89146 1.15147e-016
      vertex 1.00138 0.674772 3.13007
    endloop
  endfacet
  facet normal 0.00138605 0.816496 0.57735
    outer loop
      vertex 1.00138 0.674772 3.13007
      vertex -0.994234 2.89146 1.15147e-016
      vertex -0.998623 0.678357 3.1298
    endloop
  endfacet
  facet normal 0.708612 0.57565 0.408039
    outer loop
      vertex -0.998623 0.678357 3.1298
      vertex -0.994234 2.89146 1.15147e-016
      vertex -1.39356 3.38301 -2.31974e-016
    endloop
  endfacet
  facet normal 0.708612 0.57565 0.408039
    outer loop
      vertex -1.39827 1.00633 3.36115
      vertex -0.998623 0.678357 3.1298
      vertex -1.39356 3.38301 -2.31974e-016
    endloop
  endfacet
  facet normal 0.854215 0.321874 0.408306
    outer loop
      vertex 0.165119 -1.71422 3.36068
      vertex 2.22074 -2.90648 2.87075e-015
      vertex 1.998 -2.31534 2.68385e-015
    endloop
  endfacet
  facet normal 0.854215 0.321874 0.408306
    outer loop
      vertex 0.0834497 -1.2049 3.13004
      vertex 0.165119 -1.71422 3.36068
      vertex 1.998 -2.31534 2.68385e-015
    endloop
  endfacet
  facet normal 0.706309 -0.409627 0.57735
    outer loop
      vertex 1.998 -2.31534 2.68385e-015
      vertex 3.00134 -0.585294 3.61901e-015
      vertex 1.08682 0.525133 3.13
    endloop
  endfacet
  facet normal 0.706309 -0.409627 0.57735
    outer loop
      vertex 0.0834497 -1.2049 3.13004
      vertex 1.998 -2.31534 2.68385e-015
      vertex 1.08682 0.525133 3.13
    endloop
  endfacet
  facet normal 0.145769 -0.900917 0.408779
    outer loop
      vertex 3.00134 -0.585294 3.61901e-015
      vertex 3.62608 -0.484211 4.18056e-015
      vertex 1.57035 0.708114 3.36085
    endloop
  endfacet
  facet normal 0.145769 -0.900917 0.408779
    outer loop
      vertex 1.08682 0.525133 3.13
      vertex 3.00134 -0.585294 3.61901e-015
      vertex 1.57035 0.708114 3.36085
    endloop
  endfacet
  facet normal -0.505308 -0.862934 -0.00293928
    outer loop
      vertex 3.62608 -0.484211 4.18056e-015
      vertex 3.73137 -0.545865 4.27353e-015
      vertex 1.64046 0.666865 3.41837
    endloop
  endfacet
  facet normal -0.505308 -0.862934 -0.00293928
    outer loop
      vertex 1.57035 0.708114 3.36085
      vertex 3.62608 -0.484211 4.18056e-015
      vertex 1.64046 0.666865 3.41837
    endloop
  endfacet
  facet normal -0.817455 -0.469713 -0.333372
    outer loop
      vertex 4.72807 -2.28045 5.12915e-015
      vertex 2.13762 -0.777986 4.23505
      vertex 3.73137 -0.545865 4.27353e-015
    endloop
  endfacet
  facet normal -0.817455 -0.469713 -0.333372
    outer loop
      vertex 3.73137 -0.545865 4.27353e-015
      vertex 2.13762 -0.777986 4.23505
      vertex 1.64046 0.666865 3.41837
    endloop
  endfacet
  facet normal -0.854215 -0.321874 -0.408306
    outer loop
      vertex 4.95082 -2.8716 5.31605e-015
      vertex 2.21929 -1.28731 4.4657
      vertex 4.72807 -2.28045 5.12915e-015
    endloop
  endfacet
  facet normal -0.854215 -0.321874 -0.408306
    outer loop
      vertex 4.72807 -2.28045 5.12915e-015
      vertex 2.21929 -1.28731 4.4657
      vertex 2.13762 -0.777986 4.23505
    endloop
  endfacet
  facet normal -0.144536 0.901382 -0.40819
    outer loop
      vertex 4.95082 -2.8716 5.31605e-015
      vertex 4.32703 -2.97162 4.75537e-015
      vertex 2.21929 -1.28731 4.4657
    endloop
  endfacet
  facet normal -0.144536 0.901382 -0.40819
    outer loop
      vertex 2.21929 -1.28731 4.4657
      vertex 4.32703 -2.97162 4.75537e-015
      vertex 1.73662 -1.46918 4.23499
    endloop
  endfacet
  facet normal 0.00163985 0.942763 -0.33346
    outer loop
      vertex 4.32703 -2.97162 4.75537e-015
      vertex 2.32719 -2.96814 2.96475e-015
      vertex 1.73662 -1.46918 4.23499
    endloop
  endfacet
  facet normal 0.00163985 0.942763 -0.33346
    outer loop
      vertex 1.73662 -1.46918 4.23499
      vertex 2.32719 -2.96814 2.96475e-015
      vertex 0.236094 -1.7553 3.41867
    endloop
  endfacet
  facet normal 0.50122 0.86532 -0.000407296
    outer loop
      vertex 2.32719 -2.96814 2.96475e-015
      vertex 2.22074 -2.90648 2.87075e-015
      vertex 0.236094 -1.7553 3.41867
    endloop
  endfacet
  facet normal 0.50122 0.86532 -0.000407296
    outer loop
      vertex 0.236094 -1.7553 3.41867
      vertex 2.22074 -2.90648 2.87075e-015
      vertex 0.165119 -1.71422 3.36068
    endloop
  endfacet
  facet normal -0.500571 -0.287683 -0.816497
    outer loop
      vertex -1.63794 0.673492 3.41841
      vertex -1.56696 0.713632 3.36075
      vertex -2.14057 -0.769306 4.23491
    endloop
  endfacet
  facet normal -0.500571 -0.287683 -0.816497
    outer loop
      vertex -2.14057 -0.769306 4.23491
      vertex -1.56696 0.713632 3.36075
      vertex -1.08475 0.52961 3.12996
    endloop
  endfacet
  facet normal -0.500571 -0.287683 -0.816497
    outer loop
      vertex -2.14057 -0.769306 4.23491
      vertex -1.08475 0.52961 3.12996
      vertex -0.0880001 -1.20374 3.12961
    endloop
  endfacet
  facet normal -0.500571 -0.287683 -0.816497
    outer loop
      vertex -2.14057 -0.769306 4.23491
      vertex -0.0880001 -1.20374 3.12961
      vertex -0.171858 -1.71394 3.36078
    endloop
  endfacet
  facet normal -0.500571 -0.287683 -0.816497
    outer loop
      vertex -2.14057 -0.769306 4.23491
      vertex -0.171858 -1.71394 3.36078
      vertex -0.242833 -1.75408 3.41844
    endloop
  endfacet
  facet normal -0.500571 -0.287683 -0.816497
    outer loop
      vertex -2.14057 -0.769306 4.23491
      vertex -0.242833 -1.75408 3.41844
      vertex -1.74222 -1.46258 4.23496
    endloop
  endfacet
  facet normal -0.500571 -0.287683 -0.816497
    outer loop
      vertex -2.14057 -0.769306 4.23491
      vertex -1.74222 -1.46258 4.23496
      vertex -2.22443 -1.27856 4.46575
    endloop
  endfacet
  facet normal 0.001145 0.577349 -0.816497
    outer loop
      vertex -0.39571 2.2399 4.23482
      vertex 0.00464534 2.56594 4.46593
      vertex -1.39743 1.08798 3.41889
    endloop
  endfacet
  facet normal 0.001145 0.577349 -0.816497
    outer loop
      vertex -1.39743 1.08798 3.41889
      vertex 0.00464534 2.56594 4.46593
      vertex 0.404292 2.23879 4.23516
    endloop
  endfacet
  facet normal 0.001145 0.577349 -0.816497
    outer loop
      vertex -1.39743 1.08798 3.41889
      vertex 0.404292 2.23879 4.23516
      vertex 1.40258 1.08165 3.41834
    endloop
  endfacet
  facet normal 0.001145 0.577349 -0.816497
    outer loop
      vertex -1.39743 1.08798 3.41889
      vertex 1.40258 1.08165 3.41834
      vertex 1.40174 1 3.3606
    endloop
  endfacet
  facet normal 0.001145 0.577349 -0.816497
    outer loop
      vertex -1.39743 1.08798 3.41889
      vertex 1.40174 1 3.3606
      vertex 1.00138 0.674772 3.13007
    endloop
  endfacet
  facet normal 0.001145 0.577349 -0.816497
    outer loop
      vertex -1.39743 1.08798 3.41889
      vertex 1.00138 0.674772 3.13007
      vertex -0.998623 0.678357 3.1298
    endloop
  endfacet
  facet normal 0.001145 0.577349 -0.816497
    outer loop
      vertex -1.39743 1.08798 3.41889
      vertex -0.998623 0.678357 3.1298
      vertex -1.39827 1.00633 3.36115
    endloop
  endfacet
  facet normal 0.499426 -0.289667 -0.816497
    outer loop
      vertex 1.57035 0.708114 3.36085
      vertex 1.64046 0.666865 3.41837
      vertex 1.08682 0.525133 3.13
    endloop
  endfacet
  facet normal 0.499426 -0.289667 -0.816497
    outer loop
      vertex 1.08682 0.525133 3.13
      vertex 1.64046 0.666865 3.41837
      vertex 2.13762 -0.777986 4.23505
    endloop
  endfacet
  facet normal 0.499426 -0.289667 -0.816497
    outer loop
      vertex 1.08682 0.525133 3.13
      vertex 2.13762 -0.777986 4.23505
      vertex 2.21929 -1.28731 4.4657
    endloop
  endfacet
  facet normal 0.499426 -0.289667 -0.816497
    outer loop
      vertex 1.08682 0.525133 3.13
      vertex 2.21929 -1.28731 4.4657
      vertex 1.73662 -1.46918 4.23499
    endloop
  endfacet
  facet normal 0.499426 -0.289667 -0.816497
    outer loop
      vertex 1.08682 0.525133 3.13
      vertex 1.73662 -1.46918 4.23499
      vertex 0.236094 -1.7553 3.41867
    endloop
  endfacet
  facet normal 0.499426 -0.289667 -0.816497
    outer loop
      vertex 1.08682 0.525133 3.13
      vertex 0.236094 -1.7553 3.41867
      vertex 0.165119 -1.71422 3.36068
    endloop
  endfacet
  facet normal 0.499426 -0.289667 -0.816497
    outer loop
      vertex 1.08682 0.525133 3.13
      vertex 0.165119 -1.71422 3.36068
      vertex 0.0834497 -1.2049 3.13004
    endloop
  endfacet
  facet normal 0.00228123 -0.942806 0.333334
    outer loop
      vertex 21.1323 -3.52071 -7.08642e-015
      vertex 15 -3.77236e-007 10
      vertex 8.88484 -3.55035 -5.90456e-016
    endloop
  endfacet
  facet normal -5.31875e-016 6.12385e-016 -1
    outer loop
      vertex 16.391 3.5061 -2.61554e-016
      vertex 14.9829 7.07106 2.67053e-015
      vertex 21.1323 -3.52071 -7.08642e-015
    endloop
  endfacet
  facet normal -5.31875e-016 6.12385e-016 -1
    outer loop
      vertex 8.88484 -3.55035 -5.90456e-016
      vertex 14.9829 7.07106 2.67053e-015
      vertex 10.2728 -2.28219 -5.52073e-016
    endloop
  endfacet
  facet normal -5.31875e-016 6.12385e-016 -1
    outer loop
      vertex 8.88484 -3.55035 -5.90456e-016
      vertex 10.2728 -2.28219 -5.52073e-016
      vertex 10.0497 -2.87442 -7.96067e-016
    endloop
  endfacet
  facet normal -5.31875e-016 6.12385e-016 -1
    outer loop
      vertex 8.88484 -3.55035 -5.90456e-016
      vertex 10.0497 -2.87442 -7.96067e-016
      vertex 10.6747 -2.97353 -1.1892e-015
    endloop
  endfacet
  facet normal -5.31875e-016 6.12385e-016 -1
    outer loop
      vertex 8.88484 -3.55035 -5.90456e-016
      vertex 10.6747 -2.97353 -1.1892e-015
      vertex 21.1323 -3.52071 -7.08642e-015
    endloop
  endfacet
  facet normal -5.31875e-016 6.12385e-016 -1
    outer loop
      vertex 13.0029 -2.31556 -2.02459e-015
      vertex 21.1323 -3.52071 -7.08642e-015
      vertex 12.7798 -2.90779 -2.26859e-015
    endloop
  endfacet
  facet normal -5.31875e-016 6.12385e-016 -1
    outer loop
      vertex 12.6745 -2.96943 -2.25033e-015
      vertex 12.7798 -2.90779 -2.26859e-015
      vertex 21.1323 -3.52071 -7.08642e-015
    endloop
  endfacet
  facet normal -5.31875e-016 6.12385e-016 -1
    outer loop
      vertex 13.592 3.49816 1.22231e-015
      vertex 14.9829 7.07106 2.67053e-015
      vertex 14.5874 5.23245 1.75493e-015
    endloop
  endfacet
  facet normal -5.31875e-016 6.12385e-016 -1
    outer loop
      vertex 11.3741 -0.485968 -3.78715e-017
      vertex 14.9829 7.07106 2.67053e-015
      vertex 11.999 -0.586139 -4.31545e-016
    endloop
  endfacet
  facet normal -5.31875e-016 6.12385e-016 -1
    outer loop
      vertex 11.2688 -0.547608 -1.96126e-017
      vertex 14.9829 7.07106 2.67053e-015
      vertex 11.3741 -0.485968 -3.78715e-017
    endloop
  endfacet
  facet normal -5.31875e-016 6.12385e-016 -1
    outer loop
      vertex 10.2728 -2.28219 -5.52073e-016
      vertex 14.9829 7.07106 2.67053e-015
      vertex 11.2688 -0.547608 -1.96126e-017
    endloop
  endfacet
  facet normal -5.31875e-016 6.12385e-016 -1
    outer loop
      vertex 11.999 -0.586139 -4.31545e-016
      vertex 14.9829 7.07106 2.67053e-015
      vertex 13.592 3.49816 1.22231e-015
    endloop
  endfacet
  facet normal -5.31875e-016 6.12385e-016 -1
    outer loop
      vertex 11.999 -0.586139 -4.31545e-016
      vertex 13.592 3.49816 1.22231e-015
      vertex 13.0029 -2.31556 -2.02459e-015
    endloop
  endfacet
  facet normal -5.31875e-016 6.12385e-016 -1
    outer loop
      vertex 15.9925 2.89224 -4.25524e-016
      vertex 13.0029 -2.31556 -2.02459e-015
      vertex 13.9925 2.88727 6.35188e-016
    endloop
  endfacet
  facet normal -5.31875e-016 6.12385e-016 -1
    outer loop
      vertex 13.592 3.49816 1.22231e-015
      vertex 13.5919 3.37569 1.14736e-015
      vertex 13.0029 -2.31556 -2.02459e-015
    endloop
  endfacet
  facet normal -5.31875e-016 6.12385e-016 -1
    outer loop
      vertex 14.5874 5.23245 1.75493e-015
      vertex 14.9829 7.07106 2.67053e-015
      vertex 14.9858 5.72383 1.84395e-015
    endloop
  endfacet
  facet normal -5.31875e-016 6.12385e-016 -1
    outer loop
      vertex 13.5919 3.37569 1.14736e-015
      vertex 13.9925 2.88727 6.35188e-016
      vertex 13.0029 -2.31556 -2.02459e-015
    endloop
  endfacet
  facet normal -5.31875e-016 6.12385e-016 -1
    outer loop
      vertex 17.0077 -2.30555 -4.14851e-015
      vertex 15.9925 2.89224 -4.25524e-016
      vertex 18.0039 -0.571885 -3.6167e-015
    endloop
  endfacet
  facet normal -5.31875e-016 6.12385e-016 -1
    outer loop
      vertex 18.7339 -0.529317 -3.9789e-015
      vertex 15.9925 2.89224 -4.25524e-016
      vertex 21.1323 -3.52071 -7.08642e-015
    endloop
  endfacet
  facet normal -5.31875e-016 6.12385e-016 -1
    outer loop
      vertex 15.9925 2.89224 -4.25524e-016
      vertex 16.3919 3.38363 -3.37037e-016
      vertex 21.1323 -3.52071 -7.08642e-015
    endloop
  endfacet
  facet normal -5.31875e-016 6.12385e-016 -1
    outer loop
      vertex 16.3919 3.38363 -3.37037e-016
      vertex 16.391 3.5061 -2.61554e-016
      vertex 21.1323 -3.52071 -7.08642e-015
    endloop
  endfacet
  facet normal -5.31875e-016 6.12385e-016 -1
    outer loop
      vertex 14.9858 5.72383 1.84395e-015
      vertex 14.9829 7.07106 2.67053e-015
      vertex 15.3874 5.23542 1.33125e-015
    endloop
  endfacet
  facet normal -5.31875e-016 6.12385e-016 -1
    outer loop
      vertex 15.3874 5.23542 1.33125e-015
      vertex 14.9829 7.07106 2.67053e-015
      vertex 16.391 3.5061 -2.61554e-016
    endloop
  endfacet
  facet normal -5.31875e-016 6.12385e-016 -1
    outer loop
      vertex 13.0029 -2.31556 -2.02459e-015
      vertex 15.9925 2.89224 -4.25524e-016
      vertex 17.0077 -2.30555 -4.14851e-015
    endloop
  endfacet
  facet normal -5.31875e-016 6.12385e-016 -1
    outer loop
      vertex 13.0029 -2.31556 -2.02459e-015
      vertex 17.0077 -2.30555 -4.14851e-015
      vertex 17.2335 -2.8971 -4.63088e-015
    endloop
  endfacet
  facet normal -5.31875e-016 6.12385e-016 -1
    outer loop
      vertex 13.0029 -2.31556 -2.02459e-015
      vertex 17.2335 -2.8971 -4.63088e-015
      vertex 17.3399 -2.9575 -4.72444e-015
    endloop
  endfacet
  facet normal -5.31875e-016 6.12385e-016 -1
    outer loop
      vertex 13.0029 -2.31556 -2.02459e-015
      vertex 17.3399 -2.9575 -4.72444e-015
      vertex 21.1323 -3.52071 -7.08642e-015
    endloop
  endfacet
  facet normal -5.31875e-016 6.12385e-016 -1
    outer loop
      vertex 19.3399 -2.95283 -5.78531e-015
      vertex 21.1323 -3.52071 -7.08642e-015
      vertex 17.3399 -2.9575 -4.72444e-015
    endloop
  endfacet
  facet normal -5.31875e-016 6.12385e-016 -1
    outer loop
      vertex 18.0039 -0.571885 -3.6167e-015
      vertex 15.9925 2.89224 -4.25524e-016
      vertex 18.6276 -0.468908 -3.88535e-015
    endloop
  endfacet
  facet normal -5.31875e-016 6.12385e-016 -1
    outer loop
      vertex 19.3399 -2.95283 -5.78531e-015
      vertex 19.9635 -2.84985 -6.05396e-015
      vertex 21.1323 -3.52071 -7.08642e-015
    endloop
  endfacet
  facet normal -5.31875e-016 6.12385e-016 -1
    outer loop
      vertex 19.9635 -2.84985 -6.05396e-015
      vertex 19.7379 -2.25936 -5.57234e-015
      vertex 21.1323 -3.52071 -7.08642e-015
    endloop
  endfacet
  facet normal -5.31875e-016 6.12385e-016 -1
    outer loop
      vertex 18.6276 -0.468908 -3.88535e-015
      vertex 15.9925 2.89224 -4.25524e-016
      vertex 18.7339 -0.529317 -3.9789e-015
    endloop
  endfacet
  facet normal -5.31875e-016 6.12385e-016 -1
    outer loop
      vertex 19.7379 -2.25936 -5.57234e-015
      vertex 18.7339 -0.529317 -3.9789e-015
      vertex 21.1323 -3.52071 -7.08642e-015
    endloop
  endfacet
  facet normal -5.31875e-016 6.12385e-016 -1
    outer loop
      vertex 12.6745 -2.96943 -2.25033e-015
      vertex 21.1323 -3.52071 -7.08642e-015
      vertex 10.6747 -2.97353 -1.1892e-015
    endloop
  endfacet
  facet normal -0.817634 0.469428 0.333333
    outer loop
      vertex 15 -3.77236e-007 10
      vertex 14.9829 7.07106 2.67053e-015
      vertex 8.88484 -3.55035 -5.90456e-016
    endloop
  endfacet
  facet normal 0.815354 0.473378 0.333334
    outer loop
      vertex 15 -3.77236e-007 10
      vertex 21.1323 -3.52071 -7.08642e-015
      vertex 14.9829 7.07106 2.67053e-015
    endloop
  endfacet
  facet normal 0.854295 -0.321875 -0.408139
    outer loop
      vertex 10.2728 -2.28219 -5.52073e-016
      vertex 12.8626 -0.77861 4.23503
      vertex 12.7808 -1.28878 4.46617
    endloop
  endfacet
  facet normal 0.854295 -0.321875 -0.408139
    outer loop
      vertex 10.0497 -2.87442 -7.96067e-016
      vertex 10.2728 -2.28219 -5.52073e-016
      vertex 12.7808 -1.28878 4.46617
    endloop
  endfacet
  facet normal 0.817611 -0.469496 -0.333295
    outer loop
      vertex 11.2688 -0.547608 -1.96126e-017
      vertex 13.3592 0.666044 3.41841
      vertex 12.8626 -0.77861 4.23503
    endloop
  endfacet
  facet normal 0.817611 -0.469496 -0.333295
    outer loop
      vertex 10.2728 -2.28219 -5.52073e-016
      vertex 11.2688 -0.547608 -1.96126e-017
      vertex 12.8626 -0.77861 4.23503
    endloop
  endfacet
  facet normal 0.505183 -0.863008 -0.00253008
    outer loop
      vertex 11.3741 -0.485968 -3.78715e-017
      vertex 13.4294 0.707263 3.36089
      vertex 13.3592 0.666044 3.41841
    endloop
  endfacet
  facet normal 0.505183 -0.863008 -0.00253008
    outer loop
      vertex 11.2688 -0.547608 -1.96126e-017
      vertex 11.3741 -0.485968 -3.78715e-017
      vertex 13.3592 0.666044 3.41841
    endloop
  endfacet
  facet normal -0.144496 -0.901312 0.408359
    outer loop
      vertex 11.999 -0.586139 -4.31545e-016
      vertex 13.9129 0.525073 3.12987
      vertex 13.4294 0.707263 3.36089
    endloop
  endfacet
  facet normal -0.144496 -0.901312 0.408359
    outer loop
      vertex 11.3741 -0.485968 -3.78715e-017
      vertex 11.999 -0.586139 -4.31545e-016
      vertex 13.4294 0.707263 3.36089
    endloop
  endfacet
  facet normal -0.706137 -0.409923 0.577351
    outer loop
      vertex 14.9169 -1.20433 3.12992
      vertex 13.9129 0.525073 3.12987
      vertex 13.0029 -2.31556 -2.02459e-015
    endloop
  endfacet
  facet normal -0.706137 -0.409923 0.577351
    outer loop
      vertex 13.0029 -2.31556 -2.02459e-015
      vertex 13.9129 0.525073 3.12987
      vertex 11.999 -0.586139 -4.31545e-016
    endloop
  endfacet
  facet normal -0.854295 0.321875 0.408139
    outer loop
      vertex 14.9169 -1.20433 3.12992
      vertex 13.0029 -2.31556 -2.02459e-015
      vertex 14.8351 -1.7145 3.36106
    endloop
  endfacet
  facet normal -0.854295 0.321875 0.408139
    outer loop
      vertex 14.8351 -1.7145 3.36106
      vertex 13.0029 -2.31556 -2.02459e-015
      vertex 12.7798 -2.90779 -2.26859e-015
    endloop
  endfacet
  facet normal -0.505183 0.863008 0.00253008
    outer loop
      vertex 14.8351 -1.7145 3.36106
      vertex 12.7798 -2.90779 -2.26859e-015
      vertex 14.765 -1.75572 3.41858
    endloop
  endfacet
  facet normal -0.505183 0.863008 0.00253008
    outer loop
      vertex 14.765 -1.75572 3.41858
      vertex 12.7798 -2.90779 -2.26859e-015
      vertex 12.6745 -2.96943 -2.25033e-015
    endloop
  endfacet
  facet normal -0.00193509 0.94274 -0.333522
    outer loop
      vertex 14.765 -1.75572 3.41858
      vertex 12.6745 -2.96943 -2.25033e-015
      vertex 13.2643 -1.47003 4.23482
    endloop
  endfacet
  facet normal -0.00193509 0.94274 -0.333522
    outer loop
      vertex 13.2643 -1.47003 4.23482
      vertex 12.6745 -2.96943 -2.25033e-015
      vertex 10.6747 -2.97353 -1.1892e-015
    endloop
  endfacet
  facet normal 0.143008 0.901872 -0.407647
    outer loop
      vertex 13.2643 -1.47003 4.23482
      vertex 10.6747 -2.97353 -1.1892e-015
      vertex 12.7808 -1.28878 4.46617
    endloop
  endfacet
  facet normal 0.143008 0.901872 -0.407647
    outer loop
      vertex 12.7808 -1.28878 4.46617
      vertex 10.6747 -2.97353 -1.1892e-015
      vertex 10.0497 -2.87442 -7.96067e-016
    endloop
  endfacet
  facet normal 0.999997 -0.000803147 -0.00227776
    outer loop
      vertex 13.592 3.49816 1.22231e-015
      vertex 13.5979 1.08104 3.41833
      vertex 13.5977 0.999389 3.3606
    endloop
  endfacet
  facet normal 0.999997 -0.000803147 -0.00227776
    outer loop
      vertex 13.5919 3.37569 1.14736e-015
      vertex 13.592 3.49816 1.22231e-015
      vertex 13.5977 0.999389 3.3606
    endloop
  endfacet
  facet normal 0.817718 -0.469331 -0.333265
    outer loop
      vertex 14.5874 5.23245 1.75493e-015
      vertex 14.5947 2.23803 4.23475
      vertex 13.5979 1.08104 3.41833
    endloop
  endfacet
  facet normal 0.817718 -0.469331 -0.333265
    outer loop
      vertex 13.592 3.49816 1.22231e-015
      vertex 14.5874 5.23245 1.75493e-015
      vertex 13.5979 1.08104 3.41833
    endloop
  endfacet
  facet normal 0.709245 -0.575027 -0.407818
    outer loop
      vertex 14.9858 5.72383 1.84395e-015
      vertex 14.9935 2.56595 4.46593
      vertex 14.5947 2.23803 4.23475
    endloop
  endfacet
  facet normal 0.709245 -0.575027 -0.407818
    outer loop
      vertex 14.5874 5.23245 1.75493e-015
      vertex 14.9858 5.72383 1.84395e-015
      vertex 14.5947 2.23803 4.23475
    endloop
  endfacet
  facet normal -0.704961 -0.579665 -0.408679
    outer loop
      vertex 15.3947 2.24066 4.23523
      vertex 14.9935 2.56595 4.46593
      vertex 15.3874 5.23542 1.33125e-015
    endloop
  endfacet
  facet normal -0.704961 -0.579665 -0.408679
    outer loop
      vertex 15.3874 5.23542 1.33125e-015
      vertex 14.9935 2.56595 4.46593
      vertex 14.9858 5.72383 1.84395e-015
    endloop
  endfacet
  facet normal -0.81546 -0.473256 -0.333248
    outer loop
      vertex 16.3969 1.08859 3.41889
      vertex 15.3947 2.24066 4.23523
      vertex 16.391 3.5061 -2.61554e-016
    endloop
  endfacet
  facet normal -0.81546 -0.473256 -0.333248
    outer loop
      vertex 16.391 3.5061 -2.61554e-016
      vertex 15.3947 2.24066 4.23523
      vertex 15.3874 5.23542 1.33125e-015
    endloop
  endfacet
  facet normal -0.999967 -0.00736145 -0.00349553
    outer loop
      vertex 16.3977 1.00694 3.36115
      vertex 16.3969 1.08859 3.41889
      vertex 16.3919 3.38363 -3.37037e-016
    endloop
  endfacet
  facet normal -0.999967 -0.00736145 -0.00349553
    outer loop
      vertex 16.3919 3.38363 -3.37037e-016
      vertex 16.3969 1.08859 3.41889
      vertex 16.391 3.5061 -2.61554e-016
    endloop
  endfacet
  facet normal -0.70836 0.575754 0.40833
    outer loop
      vertex 16.3977 1.00694 3.36115
      vertex 16.3919 3.38363 -3.37037e-016
      vertex 15.9979 0.679027 3.12996
    endloop
  endfacet
  facet normal -0.70836 0.575754 0.40833
    outer loop
      vertex 15.9979 0.679027 3.12996
      vertex 16.3919 3.38363 -3.37037e-016
      vertex 15.9925 2.89224 -4.25524e-016
    endloop
  endfacet
  facet normal -0.00202914 0.816494 0.577351
    outer loop
      vertex 15.9979 0.679027 3.12996
      vertex 15.9925 2.89224 -4.25524e-016
      vertex 13.9979 0.674101 3.1299
    endloop
  endfacet
  facet normal -0.00202914 0.816494 0.577351
    outer loop
      vertex 13.9979 0.674101 3.1299
      vertex 15.9925 2.89224 -4.25524e-016
      vertex 13.9925 2.88727 6.35188e-016
    endloop
  endfacet
  facet normal 0.705844 0.578948 0.408171
    outer loop
      vertex 13.5977 0.999389 3.3606
      vertex 13.9979 0.674101 3.1299
      vertex 13.9925 2.88727 6.35188e-016
    endloop
  endfacet
  facet normal 0.705844 0.578948 0.408171
    outer loop
      vertex 13.5919 3.37569 1.14736e-015
      vertex 13.5977 0.999389 3.3606
      vertex 13.9925 2.88727 6.35188e-016
    endloop
  endfacet
  facet normal 0.852797 0.325581 0.408331
    outer loop
      vertex 15.1726 -1.71386 3.36078
      vertex 17.2335 -2.8971 -4.63088e-015
      vertex 17.0077 -2.30555 -4.14851e-015
    endloop
  endfacet
  facet normal 0.852797 0.325581 0.408331
    outer loop
      vertex 15.0885 -1.2037 3.12961
      vertex 15.1726 -1.71386 3.36078
      vertex 17.0077 -2.30555 -4.14851e-015
    endloop
  endfacet
  facet normal 0.707939 -0.406802 0.577351
    outer loop
      vertex 17.0077 -2.30555 -4.14851e-015
      vertex 18.0039 -0.571885 -3.6167e-015
      vertex 16.0845 0.530085 3.12996
    endloop
  endfacet
  facet normal 0.707939 -0.406802 0.577351
    outer loop
      vertex 15.0885 -1.2037 3.12961
      vertex 17.0077 -2.30555 -4.14851e-015
      vertex 16.0845 0.530085 3.12996
    endloop
  endfacet
  facet normal 0.148713 -0.900657 0.40829
    outer loop
      vertex 18.0039 -0.571885 -3.6167e-015
      vertex 18.6276 -0.468908 -3.88535e-015
      vertex 16.5667 0.714317 3.36076
    endloop
  endfacet
  facet normal 0.148713 -0.900657 0.40829
    outer loop
      vertex 16.0845 0.530085 3.12996
      vertex 18.0039 -0.571885 -3.6167e-015
      vertex 16.5667 0.714317 3.36076
    endloop
  endfacet
  facet normal -0.493904 -0.869511 0.00325458
    outer loop
      vertex 18.6276 -0.468908 -3.88535e-015
      vertex 18.7339 -0.529317 -3.9789e-015
      vertex 16.6377 0.674207 3.41841
    endloop
  endfacet
  facet normal -0.493904 -0.869511 0.00325458
    outer loop
      vertex 16.5667 0.714317 3.36076
      vertex 18.6276 -0.468908 -3.88535e-015
      vertex 16.6377 0.674207 3.41841
    endloop
  endfacet
  facet normal -0.815417 -0.473195 -0.333438
    outer loop
      vertex 19.7379 -2.25936 -5.57234e-015
      vertex 17.1409 -0.768372 4.23492
      vertex 18.7339 -0.529317 -3.9789e-015
    endloop
  endfacet
  facet normal -0.815417 -0.473195 -0.333438
    outer loop
      vertex 18.7339 -0.529317 -3.9789e-015
      vertex 17.1409 -0.768372 4.23492
      vertex 16.6377 0.674207 3.41841
    endloop
  endfacet
  facet normal -0.852752 -0.325853 -0.408207
    outer loop
      vertex 19.9635 -2.84985 -6.05396e-015
      vertex 17.225 -1.27759 4.46576
      vertex 19.7379 -2.25936 -5.57234e-015
    endloop
  endfacet
  facet normal -0.852752 -0.325853 -0.408207
    outer loop
      vertex 19.7379 -2.25936 -5.57234e-015
      vertex 17.225 -1.27759 4.46576
      vertex 17.1409 -0.768372 4.23492
    endloop
  endfacet
  facet normal -0.148713 0.900657 -0.40829
    outer loop
      vertex 19.9635 -2.84985 -6.05396e-015
      vertex 19.3399 -2.95283 -5.78531e-015
      vertex 17.225 -1.27759 4.46576
    endloop
  endfacet
  facet normal -0.148713 0.900657 -0.40829
    outer loop
      vertex 17.225 -1.27759 4.46576
      vertex 19.3399 -2.95283 -5.78531e-015
      vertex 16.7429 -1.46182 4.23496
    endloop
  endfacet
  facet normal -0.00220446 0.942821 -0.333292
    outer loop
      vertex 19.3399 -2.95283 -5.78531e-015
      vertex 17.3399 -2.9575 -4.72444e-015
      vertex 16.7429 -1.46182 4.23496
    endloop
  endfacet
  facet normal -0.00220446 0.942821 -0.333292
    outer loop
      vertex 16.7429 -1.46182 4.23496
      vertex 17.3399 -2.9575 -4.72444e-015
      vertex 15.2436 -1.75397 3.41844
    endloop
  endfacet
  facet normal 0.493904 0.869511 -0.00325458
    outer loop
      vertex 17.3399 -2.9575 -4.72444e-015
      vertex 17.2335 -2.8971 -4.63088e-015
      vertex 15.2436 -1.75397 3.41844
    endloop
  endfacet
  facet normal 0.493904 0.869511 -0.00325458
    outer loop
      vertex 15.2436 -1.75397 3.41844
      vertex 17.2335 -2.8971 -4.63088e-015
      vertex 15.1726 -1.71386 3.36078
    endloop
  endfacet
  facet normal -0.499301 -0.289884 -0.816496
    outer loop
      vertex 13.3592 0.666044 3.41841
      vertex 13.4294 0.707263 3.36089
      vertex 12.8626 -0.77861 4.23503
    endloop
  endfacet
  facet normal -0.499301 -0.289884 -0.816496
    outer loop
      vertex 12.8626 -0.77861 4.23503
      vertex 13.4294 0.707263 3.36089
      vertex 13.9129 0.525073 3.12987
    endloop
  endfacet
  facet normal -0.499301 -0.289884 -0.816496
    outer loop
      vertex 12.8626 -0.77861 4.23503
      vertex 13.9129 0.525073 3.12987
      vertex 14.9169 -1.20433 3.12992
    endloop
  endfacet
  facet normal -0.499301 -0.289884 -0.816496
    outer loop
      vertex 12.8626 -0.77861 4.23503
      vertex 14.9169 -1.20433 3.12992
      vertex 14.8351 -1.7145 3.36106
    endloop
  endfacet
  facet normal -0.499301 -0.289884 -0.816496
    outer loop
      vertex 12.8626 -0.77861 4.23503
      vertex 14.8351 -1.7145 3.36106
      vertex 14.765 -1.75572 3.41858
    endloop
  endfacet
  facet normal -0.499301 -0.289884 -0.816496
    outer loop
      vertex 12.8626 -0.77861 4.23503
      vertex 14.765 -1.75572 3.41858
      vertex 13.2643 -1.47003 4.23482
    endloop
  endfacet
  facet normal -0.499301 -0.289884 -0.816496
    outer loop
      vertex 12.8626 -0.77861 4.23503
      vertex 13.2643 -1.47003 4.23482
      vertex 12.7808 -1.28878 4.46617
    endloop
  endfacet
  facet normal -0.00139609 0.577349 -0.816496
    outer loop
      vertex 14.5947 2.23803 4.23475
      vertex 14.9935 2.56595 4.46593
      vertex 13.5979 1.08104 3.41833
    endloop
  endfacet
  facet normal -0.00139609 0.577349 -0.816496
    outer loop
      vertex 13.5979 1.08104 3.41833
      vertex 14.9935 2.56595 4.46593
      vertex 15.3947 2.24066 4.23523
    endloop
  endfacet
  facet normal -0.00139609 0.577349 -0.816496
    outer loop
      vertex 13.5979 1.08104 3.41833
      vertex 15.3947 2.24066 4.23523
      vertex 16.3969 1.08859 3.41889
    endloop
  endfacet
  facet normal -0.00139609 0.577349 -0.816496
    outer loop
      vertex 13.5979 1.08104 3.41833
      vertex 16.3969 1.08859 3.41889
      vertex 16.3977 1.00694 3.36115
    endloop
  endfacet
  facet normal -0.00139609 0.577349 -0.816496
    outer loop
      vertex 13.5979 1.08104 3.41833
      vertex 16.3977 1.00694 3.36115
      vertex 15.9979 0.679027 3.12996
    endloop
  endfacet
  facet normal -0.00139609 0.577349 -0.816496
    outer loop
      vertex 13.5979 1.08104 3.41833
      vertex 15.9979 0.679027 3.12996
      vertex 13.9979 0.674101 3.1299
    endloop
  endfacet
  facet normal -0.00139609 0.577349 -0.816496
    outer loop
      vertex 13.5979 1.08104 3.41833
      vertex 13.9979 0.674101 3.1299
      vertex 13.5977 0.999389 3.3606
    endloop
  endfacet
  facet normal 0.500698 -0.287465 -0.816496
    outer loop
      vertex 16.5667 0.714317 3.36076
      vertex 16.6377 0.674207 3.41841
      vertex 16.0845 0.530085 3.12996
    endloop
  endfacet
  facet normal 0.500698 -0.287465 -0.816496
    outer loop
      vertex 16.0845 0.530085 3.12996
      vertex 16.6377 0.674207 3.41841
      vertex 17.1409 -0.768372 4.23492
    endloop
  endfacet
  facet normal 0.500698 -0.287465 -0.816496
    outer loop
      vertex 16.0845 0.530085 3.12996
      vertex 17.1409 -0.768372 4.23492
      vertex 17.225 -1.27759 4.46576
    endloop
  endfacet
  facet normal 0.500698 -0.287465 -0.816496
    outer loop
      vertex 16.0845 0.530085 3.12996
      vertex 17.225 -1.27759 4.46576
      vertex 16.7429 -1.46182 4.23496
    endloop
  endfacet
  facet normal 0.500698 -0.287465 -0.816496
    outer loop
      vertex 16.0845 0.530085 3.12996
      vertex 16.7429 -1.46182 4.23496
      vertex 15.2436 -1.75397 3.41844
    endloop
  endfacet
  facet normal 0.500698 -0.287465 -0.816496
    outer loop
      vertex 16.0845 0.530085 3.12996
      vertex 15.2436 -1.75397 3.41844
      vertex 15.1726 -1.71386 3.36078
    endloop
  endfacet
  facet normal 0.500698 -0.287465 -0.816496
    outer loop
      vertex 16.0845 0.530085 3.12996
      vertex 15.1726 -1.71386 3.36078
      vertex 15.0885 -1.2037 3.12961
    endloop
  endfacet
  facet normal -0.816291 0.47176 0.333334
    outer loop
      vertex 30 -2.38454e-015 10
      vertex 30.0031 7.07107 2.51224e-015
      vertex 23.8747 -3.53287 -8.53332e-016
    endloop
  endfacet
  facet normal -0.000410462 -0.942809 0.333333
    outer loop
      vertex 36.1222 -3.5382 -5.08253e-015
      vertex 30 -2.38454e-015 10
      vertex 23.8747 -3.53287 -8.53332e-016
    endloop
  endfacet
  facet normal -3.45087e-016 5.16825e-016 -1
    outer loop
      vertex 31.4016 3.50155 1.84809e-016
      vertex 30.0031 7.07107 2.51224e-015
      vertex 36.1222 -3.5382 -5.08253e-015
    endloop
  endfacet
  facet normal -3.45087e-016 5.16825e-016 -1
    outer loop
      vertex 23.8747 -3.53287 -8.53332e-016
      vertex 30.0031 7.07107 2.51224e-015
      vertex 25.2664 -2.26899 -6.80381e-016
    endloop
  endfacet
  facet normal -3.45087e-016 5.16825e-016 -1
    outer loop
      vertex 23.8747 -3.53287 -8.53332e-016
      vertex 25.2664 -2.26899 -6.80381e-016
      vertex 25.0422 -2.8596 -9.0826e-016
    endloop
  endfacet
  facet normal -3.45087e-016 5.16825e-016 -1
    outer loop
      vertex 23.8747 -3.53287 -8.53332e-016
      vertex 25.0422 -2.8596 -9.0826e-016
      vertex 25.6658 -2.96113 -1.17591e-015
    endloop
  endfacet
  facet normal -3.45087e-016 5.16825e-016 -1
    outer loop
      vertex 23.8747 -3.53287 -8.53332e-016
      vertex 25.6658 -2.96113 -1.17591e-015
      vertex 36.1222 -3.5382 -5.08253e-015
    endloop
  endfacet
  facet normal -3.45087e-016 5.16825e-016 -1
    outer loop
      vertex 27.9964 -2.31049 -1.64391e-015
      vertex 36.1222 -3.5382 -5.08253e-015
      vertex 27.7722 -2.90109 -1.87179e-015
    endloop
  endfacet
  facet normal -3.45087e-016 5.16825e-016 -1
    outer loop
      vertex 27.6656 -2.96249 -1.86674e-015
      vertex 27.7722 -2.90109 -1.87179e-015
      vertex 36.1222 -3.5382 -5.08253e-015
    endloop
  endfacet
  facet normal -3.45087e-016 5.16825e-016 -1
    outer loop
      vertex 28.6016 3.50277 1.15169e-015
      vertex 30.0031 7.07107 2.51224e-015
      vertex 29.6023 5.23378 1.70097e-015
    endloop
  endfacet
  facet normal -3.45087e-016 5.16825e-016 -1
    outer loop
      vertex 26.3727 -0.475427 -1.35201e-016
      vertex 30.0031 7.07107 2.51224e-015
      vertex 26.9972 -0.578022 -4.03729e-016
    endloop
  endfacet
  facet normal -3.45087e-016 5.16825e-016 -1
    outer loop
      vertex 26.2673 -0.536827 -1.30548e-016
      vertex 30.0031 7.07107 2.51224e-015
      vertex 26.3727 -0.475427 -1.35201e-016
    endloop
  endfacet
  facet normal -3.45087e-016 5.16825e-016 -1
    outer loop
      vertex 25.2664 -2.26899 -6.80381e-016
      vertex 30.0031 7.07107 2.51224e-015
      vertex 26.2673 -0.536827 -1.30548e-016
    endloop
  endfacet
  facet normal -3.45087e-016 5.16825e-016 -1
    outer loop
      vertex 26.9972 -0.578022 -4.03729e-016
      vertex 30.0031 7.07107 2.51224e-015
      vertex 28.6016 3.50277 1.15169e-015
    endloop
  endfacet
  facet normal -3.45087e-016 5.16825e-016 -1
    outer loop
      vertex 26.9972 -0.578022 -4.03729e-016
      vertex 28.6016 3.50277 1.15169e-015
      vertex 27.9964 -2.31049 -1.64391e-015
    endloop
  endfacet
  facet normal -3.45087e-016 5.16825e-016 -1
    outer loop
      vertex 31.0017 2.889 6.23324e-018
      vertex 27.9964 -2.31049 -1.64391e-015
      vertex 29.0017 2.89058 6.97222e-016
    endloop
  endfacet
  facet normal -3.45087e-016 5.16825e-016 -1
    outer loop
      vertex 28.6016 3.50277 1.15169e-015
      vertex 28.6016 3.3803 1.08838e-015
      vertex 27.9964 -2.31049 -1.64391e-015
    endloop
  endfacet
  facet normal -3.45087e-016 5.16825e-016 -1
    outer loop
      vertex 29.6023 5.23378 1.70097e-015
      vertex 30.0031 7.07107 2.51224e-015
      vertex 30.0023 5.72385 1.81624e-015
    endloop
  endfacet
  facet normal -3.45087e-016 5.16825e-016 -1
    outer loop
      vertex 28.6016 3.3803 1.08838e-015
      vertex 29.0017 2.89058 6.97222e-016
      vertex 27.9964 -2.31049 -1.64391e-015
    endloop
  endfacet
  facet normal -3.45087e-016 5.16825e-016 -1
    outer loop
      vertex 32.0017 -2.31158 -3.02664e-015
      vertex 31.0017 2.889 6.23324e-018
      vertex 33.0022 -0.580177 -2.47707e-015
    endloop
  endfacet
  facet normal -3.45087e-016 5.16825e-016 -1
    outer loop
      vertex 33.7322 -0.540197 -2.70834e-015
      vertex 31.0017 2.889 6.23324e-018
      vertex 36.1222 -3.5382 -5.08253e-015
    endloop
  endfacet
  facet normal -3.45087e-016 5.16825e-016 -1
    outer loop
      vertex 31.0017 2.889 6.23324e-018
      vertex 31.4016 3.37907 1.21505e-016
      vertex 36.1222 -3.5382 -5.08253e-015
    endloop
  endfacet
  facet normal -3.45087e-016 5.16825e-016 -1
    outer loop
      vertex 31.4016 3.37907 1.21505e-016
      vertex 31.4016 3.50155 1.84809e-016
      vertex 36.1222 -3.5382 -5.08253e-015
    endloop
  endfacet
  facet normal -3.45087e-016 5.16825e-016 -1
    outer loop
      vertex 30.0023 5.72385 1.81624e-015
      vertex 30.0031 7.07107 2.51224e-015
      vertex 30.4023 5.23413 1.42508e-015
    endloop
  endfacet
  facet normal -3.45087e-016 5.16825e-016 -1
    outer loop
      vertex 30.4023 5.23413 1.42508e-015
      vertex 30.0031 7.07107 2.51224e-015
      vertex 31.4016 3.50155 1.84809e-016
    endloop
  endfacet
  facet normal -3.45087e-016 5.16825e-016 -1
    outer loop
      vertex 27.9964 -2.31049 -1.64391e-015
      vertex 31.0017 2.889 6.23324e-018
      vertex 32.0017 -2.31158 -3.02664e-015
    endloop
  endfacet
  facet normal -3.45087e-016 5.16825e-016 -1
    outer loop
      vertex 27.9964 -2.31049 -1.64391e-015
      vertex 32.0017 -2.31158 -3.02664e-015
      vertex 32.226 -2.90337 -3.4099e-015
    endloop
  endfacet
  facet normal -3.45087e-016 5.16825e-016 -1
    outer loop
      vertex 27.9964 -2.31049 -1.64391e-015
      vertex 32.226 -2.90337 -3.4099e-015
      vertex 32.3314 -2.9648 -3.47803e-015
    endloop
  endfacet
  facet normal -3.45087e-016 5.16825e-016 -1
    outer loop
      vertex 27.9964 -2.31049 -1.64391e-015
      vertex 32.3314 -2.9648 -3.47803e-015
      vertex 36.1222 -3.5382 -5.08253e-015
    endloop
  endfacet
  facet normal -3.45087e-016 5.16825e-016 -1
    outer loop
      vertex 34.3312 -2.96494 -4.16821e-015
      vertex 36.1222 -3.5382 -5.08253e-015
      vertex 32.3314 -2.9648 -3.47803e-015
    endloop
  endfacet
  facet normal -3.45087e-016 5.16825e-016 -1
    outer loop
      vertex 33.0022 -0.580177 -2.47707e-015
      vertex 31.0017 2.889 6.23324e-018
      vertex 33.6268 -0.478767 -2.64021e-015
    endloop
  endfacet
  facet normal -3.45087e-016 5.16825e-016 -1
    outer loop
      vertex 34.3312 -2.96494 -4.16821e-015
      vertex 34.956 -2.86459 -4.33196e-015
      vertex 36.1222 -3.5382 -5.08253e-015
    endloop
  endfacet
  facet normal -3.45087e-016 5.16825e-016 -1
    outer loop
      vertex 34.956 -2.86459 -4.33196e-015
      vertex 34.7317 -2.2728 -3.94871e-015
      vertex 36.1222 -3.5382 -5.08253e-015
    endloop
  endfacet
  facet normal -3.45087e-016 5.16825e-016 -1
    outer loop
      vertex 33.6268 -0.478767 -2.64021e-015
      vertex 31.0017 2.889 6.23324e-018
      vertex 33.7322 -0.540197 -2.70834e-015
    endloop
  endfacet
  facet normal -3.45087e-016 5.16825e-016 -1
    outer loop
      vertex 34.7317 -2.2728 -3.94871e-015
      vertex 33.7322 -0.540197 -2.70834e-015
      vertex 36.1222 -3.5382 -5.08253e-015
    endloop
  endfacet
  facet normal -3.45087e-016 5.16825e-016 -1
    outer loop
      vertex 27.6656 -2.96249 -1.86674e-015
      vertex 36.1222 -3.5382 -5.08253e-015
      vertex 25.6658 -2.96113 -1.17591e-015
    endloop
  endfacet
  facet normal 0.816702 0.471049 0.333333
    outer loop
      vertex 36.1222 -3.5382 -5.08253e-015
      vertex 30.0031 7.07107 2.51224e-015
      vertex 30 -2.38454e-015 10
    endloop
  endfacet
  facet normal 0.853433 -0.32394 -0.408307
    outer loop
      vertex 25.2664 -2.26899 -6.80381e-016
      vertex 27.8605 -0.772806 4.23505
      vertex 27.7776 -1.28193 4.4657
    endloop
  endfacet
  facet normal 0.853433 -0.32394 -0.408307
    outer loop
      vertex 25.0422 -2.8596 -9.0826e-016
      vertex 25.2664 -2.26899 -6.80381e-016
      vertex 27.7776 -1.28193 4.4657
    endloop
  endfacet
  facet normal 0.816316 -0.471689 -0.333373
    outer loop
      vertex 26.2673 -0.536827 -1.30548e-016
      vertex 28.3612 0.670838 3.41837
      vertex 27.8605 -0.772806 4.23505
    endloop
  endfacet
  facet normal 0.816316 -0.471689 -0.333373
    outer loop
      vertex 25.2664 -2.26899 -6.80381e-016
      vertex 26.2673 -0.536827 -1.30548e-016
      vertex 27.8605 -0.772806 4.23505
    endloop
  endfacet
  facet normal 0.503218 -0.864154 -0.00294045
    outer loop
      vertex 26.3727 -0.475427 -1.35201e-016
      vertex 28.4314 0.711918 3.36085
      vertex 28.3612 0.670838 3.41837
    endloop
  endfacet
  facet normal 0.503218 -0.864154 -0.00294045
    outer loop
      vertex 26.2673 -0.536827 -1.30548e-016
      vertex 26.3727 -0.475427 -1.35201e-016
      vertex 28.3612 0.670838 3.41837
    endloop
  endfacet
  facet normal -0.147949 -0.900562 0.408779
    outer loop
      vertex 26.9972 -0.578022 -4.03729e-016
      vertex 28.9145 0.527767 3.13001
      vertex 28.4314 0.711918 3.36085
    endloop
  endfacet
  facet normal -0.147949 -0.900562 0.408779
    outer loop
      vertex 26.3727 -0.475427 -1.35201e-016
      vertex 26.9972 -0.578022 -4.03729e-016
      vertex 28.4314 0.711918 3.36085
    endloop
  endfacet
  facet normal -0.707298 -0.407917 0.57735
    outer loop
      vertex 29.9136 -1.20469 3.13004
      vertex 28.9145 0.527767 3.13001
      vertex 27.9964 -2.31049 -1.64391e-015
    endloop
  endfacet
  facet normal -0.707298 -0.407917 0.57735
    outer loop
      vertex 27.9964 -2.31049 -1.64391e-015
      vertex 28.9145 0.527767 3.13001
      vertex 26.9972 -0.578022 -4.03729e-016
    endloop
  endfacet
  facet normal -0.853433 0.32394 0.408307
    outer loop
      vertex 29.9136 -1.20469 3.13004
      vertex 27.9964 -2.31049 -1.64391e-015
      vertex 29.8307 -1.71381 3.36068
    endloop
  endfacet
  facet normal -0.853433 0.32394 0.408307
    outer loop
      vertex 29.8307 -1.71381 3.36068
      vertex 27.9964 -2.31049 -1.64391e-015
      vertex 27.7722 -2.90109 -1.87179e-015
    endloop
  endfacet
  facet normal -0.499125 0.86653 -0.000406127
    outer loop
      vertex 29.8307 -1.71381 3.36068
      vertex 27.7722 -2.90109 -1.87179e-015
      vertex 29.7597 -1.75472 3.41867
    endloop
  endfacet
  facet normal -0.499125 0.86653 -0.000406127
    outer loop
      vertex 29.7597 -1.75472 3.41867
      vertex 27.7722 -2.90109 -1.87179e-015
      vertex 27.6656 -2.96249 -1.86674e-015
    endloop
  endfacet
  facet normal 0.000641271 0.942764 -0.333459
    outer loop
      vertex 29.7597 -1.75472 3.41867
      vertex 27.6656 -2.96249 -1.86674e-015
      vertex 28.2598 -1.46497 4.23499
    endloop
  endfacet
  facet normal 0.000641271 0.942764 -0.333459
    outer loop
      vertex 28.2598 -1.46497 4.23499
      vertex 27.6656 -2.96249 -1.86674e-015
      vertex 25.6658 -2.96113 -1.17591e-015
    endloop
  endfacet
  facet normal 0.146716 0.90103 -0.40819
    outer loop
      vertex 28.2598 -1.46497 4.23499
      vertex 25.6658 -2.96113 -1.17591e-015
      vertex 27.7776 -1.28193 4.4657
    endloop
  endfacet
  facet normal 0.146716 0.90103 -0.40819
    outer loop
      vertex 27.7776 -1.28193 4.4657
      vertex 25.6658 -2.96113 -1.17591e-015
      vertex 25.0422 -2.8596 -9.0826e-016
    endloop
  endfacet
  facet normal 1 0.000146447 0.000411075
    outer loop
      vertex 28.6006 1.00379 3.36089
      vertex 28.6016 3.3803 1.08838e-015
      vertex 28.6016 3.50277 1.15169e-015
    endloop
  endfacet
  facet normal 1 0.000146447 0.000411075
    outer loop
      vertex 28.6005 1.08544 3.41862
      vertex 28.6006 1.00379 3.36089
      vertex 28.6016 3.50277 1.15169e-015
    endloop
  endfacet
  facet normal 0.816197 -0.471869 -0.333411
    outer loop
      vertex 28.6016 3.50277 1.15169e-015
      vertex 29.6023 5.23378 1.70097e-015
      vertex 29.601 2.2393 4.23483
    endloop
  endfacet
  facet normal 0.816197 -0.471869 -0.333411
    outer loop
      vertex 28.6005 1.08544 3.41862
      vertex 28.6016 3.50277 1.15169e-015
      vertex 29.601 2.2393 4.23483
    endloop
  endfacet
  facet normal 0.707359 -0.577247 -0.407958
    outer loop
      vertex 29.6023 5.23378 1.70097e-015
      vertex 30.0023 5.72385 1.81624e-015
      vertex 30.0009 2.56596 4.46594
    endloop
  endfacet
  facet normal 0.707359 -0.577247 -0.407958
    outer loop
      vertex 29.601 2.2393 4.23483
      vertex 29.6023 5.23378 1.70097e-015
      vertex 30.0009 2.56596 4.46594
    endloop
  endfacet
  facet normal -0.706854 -0.577454 -0.408539
    outer loop
      vertex 30.4023 5.23413 1.42508e-015
      vertex 30.401 2.23942 4.23516
      vertex 30.0023 5.72385 1.81624e-015
    endloop
  endfacet
  facet normal -0.706854 -0.577454 -0.408539
    outer loop
      vertex 30.0023 5.72385 1.81624e-015
      vertex 30.401 2.23942 4.23516
      vertex 30.0009 2.56596 4.46594
    endloop
  endfacet
  facet normal -0.816714 -0.471035 -0.333323
    outer loop
      vertex 31.4016 3.50155 1.84809e-016
      vertex 31.4005 1.08422 3.41862
      vertex 30.4023 5.23413 1.42508e-015
    endloop
  endfacet
  facet normal -0.816714 -0.471035 -0.333323
    outer loop
      vertex 30.4023 5.23413 1.42508e-015
      vertex 31.4005 1.08422 3.41862
      vertex 30.401 2.23942 4.23516
    endloop
  endfacet
  facet normal -1 -0.000146447 -0.000411075
    outer loop
      vertex 31.4016 3.37907 1.21505e-016
      vertex 31.4006 1.00257 3.36088
      vertex 31.4016 3.50155 1.84809e-016
    endloop
  endfacet
  facet normal -1 -0.000146447 -0.000411075
    outer loop
      vertex 31.4016 3.50155 1.84809e-016
      vertex 31.4006 1.00257 3.36088
      vertex 31.4005 1.08422 3.41862
    endloop
  endfacet
  facet normal -0.707359 0.577247 0.407958
    outer loop
      vertex 31.4016 3.37907 1.21505e-016
      vertex 31.0017 2.889 6.23324e-018
      vertex 31.4006 1.00257 3.36088
    endloop
  endfacet
  facet normal -0.707359 0.577247 0.407958
    outer loop
      vertex 31.4006 1.00257 3.36088
      vertex 31.0017 2.889 6.23324e-018
      vertex 31.0007 0.675912 3.12978
    endloop
  endfacet
  facet normal 0.000643092 0.816496 0.57735
    outer loop
      vertex 31.0017 2.889 6.23324e-018
      vertex 29.0017 2.89058 6.97222e-016
      vertex 31.0007 0.675912 3.12978
    endloop
  endfacet
  facet normal 0.000643092 0.816496 0.57735
    outer loop
      vertex 31.0007 0.675912 3.12978
      vertex 29.0017 2.89058 6.97222e-016
      vertex 29.0007 0.677252 3.13011
    endloop
  endfacet
  facet normal 0.706854 0.577454 0.408539
    outer loop
      vertex 29.0007 0.677252 3.13011
      vertex 29.0017 2.89058 6.97222e-016
      vertex 28.6016 3.3803 1.08838e-015
    endloop
  endfacet
  facet normal 0.706854 0.577454 0.408539
    outer loop
      vertex 28.6006 1.00379 3.36089
      vertex 29.0007 0.677252 3.13011
      vertex 28.6016 3.3803 1.08838e-015
    endloop
  endfacet
  facet normal 0.853655 0.323569 0.408138
    outer loop
      vertex 30.1683 -1.71416 3.36106
      vertex 32.226 -2.90337 -3.4099e-015
      vertex 32.0017 -2.31158 -3.02664e-015
    endloop
  endfacet
  facet normal 0.853655 0.323569 0.408138
    outer loop
      vertex 30.0855 -1.20416 3.12992
      vertex 30.1683 -1.71416 3.36106
      vertex 32.0017 -2.31158 -3.02664e-015
    endloop
  endfacet
  facet normal 0.706949 -0.408522 0.57735
    outer loop
      vertex 32.0017 -2.31158 -3.02664e-015
      vertex 33.0022 -0.580177 -2.47707e-015
      vertex 31.086 0.527232 3.12987
    endloop
  endfacet
  facet normal 0.706949 -0.408522 0.57735
    outer loop
      vertex 30.0855 -1.20416 3.12992
      vertex 32.0017 -2.31158 -3.02664e-015
      vertex 31.086 0.527232 3.12987
    endloop
  endfacet
  facet normal 0.146285 -0.901024 0.408358
    outer loop
      vertex 33.0022 -0.580177 -2.47707e-015
      vertex 33.6268 -0.478767 -2.64021e-015
      vertex 31.5692 0.710382 3.36089
    endloop
  endfacet
  facet normal 0.146285 -0.901024 0.408358
    outer loop
      vertex 31.086 0.527232 3.12987
      vertex 33.0022 -0.580177 -2.47707e-015
      vertex 31.5692 0.710382 3.36089
    endloop
  endfacet
  facet normal -0.50347 -0.864009 -0.00253035
    outer loop
      vertex 33.6268 -0.478767 -2.64021e-015
      vertex 33.7322 -0.540197 -2.70834e-015
      vertex 31.6394 0.669302 3.41841
    endloop
  endfacet
  facet normal -0.50347 -0.864009 -0.00253035
    outer loop
      vertex 31.5692 0.710382 3.36089
      vertex 33.6268 -0.478767 -2.64021e-015
      vertex 31.6394 0.669302 3.41841
    endloop
  endfacet
  facet normal -0.816678 -0.471117 -0.333295
    outer loop
      vertex 34.7317 -2.2728 -3.94871e-015
      vertex 32.139 -0.774365 4.23503
      vertex 33.7322 -0.540197 -2.70834e-015
    endloop
  endfacet
  facet normal -0.816678 -0.471117 -0.333295
    outer loop
      vertex 33.7322 -0.540197 -2.70834e-015
      vertex 32.139 -0.774365 4.23503
      vertex 31.6394 0.669302 3.41841
    endloop
  endfacet
  facet normal -0.853655 -0.323569 -0.408138
    outer loop
      vertex 34.956 -2.86459 -4.33196e-015
      vertex 32.2218 -1.28437 4.46617
      vertex 34.7317 -2.2728 -3.94871e-015
    endloop
  endfacet
  facet normal -0.853655 -0.323569 -0.408138
    outer loop
      vertex 34.7317 -2.2728 -3.94871e-015
      vertex 32.2218 -1.28437 4.46617
      vertex 32.139 -0.774365 4.23503
    endloop
  endfacet
  facet normal -0.144797 0.901586 -0.407647
    outer loop
      vertex 34.956 -2.86459 -4.33196e-015
      vertex 34.3312 -2.96494 -4.16821e-015
      vertex 32.2218 -1.28437 4.46617
    endloop
  endfacet
  facet normal -0.144797 0.901586 -0.407647
    outer loop
      vertex 32.2218 -1.28437 4.46617
      vertex 34.3312 -2.96494 -4.16821e-015
      vertex 31.7386 -1.46658 4.23482
    endloop
  endfacet
  facet normal 6.44419e-005 0.942742 -0.333522
    outer loop
      vertex 34.3312 -2.96494 -4.16821e-015
      vertex 32.3314 -2.9648 -3.47803e-015
      vertex 31.7386 -1.46658 4.23482
    endloop
  endfacet
  facet normal 6.44419e-005 0.942742 -0.333522
    outer loop
      vertex 31.7386 -1.46658 4.23482
      vertex 32.3314 -2.9648 -3.47803e-015
      vertex 30.2385 -1.75524 3.41858
    endloop
  endfacet
  facet normal 0.50347 0.864009 0.00253035
    outer loop
      vertex 32.3314 -2.9648 -3.47803e-015
      vertex 32.226 -2.90337 -3.4099e-015
      vertex 30.2385 -1.75524 3.41858
    endloop
  endfacet
  facet normal 0.50347 0.864009 0.00253035
    outer loop
      vertex 30.2385 -1.75524 3.41858
      vertex 32.226 -2.90337 -3.4099e-015
      vertex 30.1683 -1.71416 3.36106
    endloop
  endfacet
  facet normal -0.500126 -0.288457 -0.816497
    outer loop
      vertex 28.3612 0.670838 3.41837
      vertex 28.4314 0.711918 3.36085
      vertex 27.8605 -0.772806 4.23505
    endloop
  endfacet
  facet normal -0.500126 -0.288457 -0.816497
    outer loop
      vertex 27.8605 -0.772806 4.23505
      vertex 28.4314 0.711918 3.36085
      vertex 28.9145 0.527767 3.13001
    endloop
  endfacet
  facet normal -0.500126 -0.288457 -0.816497
    outer loop
      vertex 27.8605 -0.772806 4.23505
      vertex 28.9145 0.527767 3.13001
      vertex 29.9136 -1.20469 3.13004
    endloop
  endfacet
  facet normal -0.500126 -0.288457 -0.816497
    outer loop
      vertex 27.8605 -0.772806 4.23505
      vertex 29.9136 -1.20469 3.13004
      vertex 29.8307 -1.71381 3.36068
    endloop
  endfacet
  facet normal -0.500126 -0.288457 -0.816497
    outer loop
      vertex 27.8605 -0.772806 4.23505
      vertex 29.8307 -1.71381 3.36068
      vertex 29.7597 -1.75472 3.41867
    endloop
  endfacet
  facet normal -0.500126 -0.288457 -0.816497
    outer loop
      vertex 27.8605 -0.772806 4.23505
      vertex 29.7597 -1.75472 3.41867
      vertex 28.2598 -1.46497 4.23499
    endloop
  endfacet
  facet normal -0.500126 -0.288457 -0.816497
    outer loop
      vertex 27.8605 -0.772806 4.23505
      vertex 28.2598 -1.46497 4.23499
      vertex 27.7776 -1.28193 4.4657
    endloop
  endfacet
  facet normal 0.00025109 0.57735 -0.816497
    outer loop
      vertex 30.0009 2.56596 4.46594
      vertex 30.401 2.23942 4.23516
      vertex 29.601 2.2393 4.23483
    endloop
  endfacet
  facet normal 0.00025109 0.57735 -0.816497
    outer loop
      vertex 29.601 2.2393 4.23483
      vertex 30.401 2.23942 4.23516
      vertex 31.4005 1.08422 3.41862
    endloop
  endfacet
  facet normal 0.00025109 0.57735 -0.816497
    outer loop
      vertex 29.601 2.2393 4.23483
      vertex 31.4005 1.08422 3.41862
      vertex 31.4006 1.00257 3.36088
    endloop
  endfacet
  facet normal 0.00025109 0.57735 -0.816497
    outer loop
      vertex 29.601 2.2393 4.23483
      vertex 31.4006 1.00257 3.36088
      vertex 31.0007 0.675912 3.12978
    endloop
  endfacet
  facet normal 0.00025109 0.57735 -0.816497
    outer loop
      vertex 29.601 2.2393 4.23483
      vertex 31.0007 0.675912 3.12978
      vertex 29.0007 0.677252 3.13011
    endloop
  endfacet
  facet normal 0.00025109 0.57735 -0.816497
    outer loop
      vertex 29.601 2.2393 4.23483
      vertex 29.0007 0.677252 3.13011
      vertex 28.6006 1.00379 3.36089
    endloop
  endfacet
  facet normal 0.00025109 0.57735 -0.816497
    outer loop
      vertex 29.601 2.2393 4.23483
      vertex 28.6006 1.00379 3.36089
      vertex 28.6005 1.08544 3.41862
    endloop
  endfacet
  facet normal 0.499874 -0.288893 -0.816497
    outer loop
      vertex 31.5692 0.710382 3.36089
      vertex 31.6394 0.669302 3.41841
      vertex 31.086 0.527232 3.12987
    endloop
  endfacet
  facet normal 0.499874 -0.288893 -0.816497
    outer loop
      vertex 31.086 0.527232 3.12987
      vertex 31.6394 0.669302 3.41841
      vertex 32.139 -0.774365 4.23503
    endloop
  endfacet
  facet normal 0.499874 -0.288893 -0.816497
    outer loop
      vertex 31.086 0.527232 3.12987
      vertex 32.139 -0.774365 4.23503
      vertex 32.2218 -1.28437 4.46617
    endloop
  endfacet
  facet normal 0.499874 -0.288893 -0.816497
    outer loop
      vertex 31.086 0.527232 3.12987
      vertex 32.2218 -1.28437 4.46617
      vertex 31.7386 -1.46658 4.23482
    endloop
  endfacet
  facet normal 0.499874 -0.288893 -0.816497
    outer loop
      vertex 31.086 0.527232 3.12987
      vertex 31.7386 -1.46658 4.23482
      vertex 30.2385 -1.75524 3.41858
    endloop
  endfacet
  facet normal 0.499874 -0.288893 -0.816497
    outer loop
      vertex 31.086 0.527232 3.12987
      vertex 30.2385 -1.75524 3.41858
      vertex 30.1683 -1.71416 3.36106
    endloop
  endfacet
  facet normal 0.499874 -0.288893 -0.816497
    outer loop
      vertex 31.086 0.527232 3.12987
      vertex 30.1683 -1.71416 3.36106
      vertex 30.0855 -1.20416 3.12992
    endloop
  endfacet
  facet normal -0.88435 -0.326825 0.333333
    outer loop
      vertex 43.8065 -6.96961 1.05002e-015
      vertex 45 -4.80051e-007 10
      vertex 39.5609 4.51843 1.10097e-015
    endloop
  endfacet
  facet normal -6.08639e-020 4.41246e-018 -1
    outer loop
      vertex 44.5108 -5.22672 1.05767e-015
      vertex 51.6326 2.45117 1.09111e-015
      vertex 43.8065 -6.96961 1.05002e-015
    endloop
  endfacet
  facet normal -6.08639e-020 4.41246e-018 -1
    outer loop
      vertex 43.7224 -5.091 1.05831e-015
      vertex 43.8065 -6.96961 1.05002e-015
      vertex 43.029 -3.21562 1.06663e-015
    endloop
  endfacet
  facet normal -6.08639e-020 4.41246e-018 -1
    outer loop
      vertex 39.5609 4.51843 1.10097e-015
      vertex 40.5975 3.65789 1.09711e-015
      vertex 40.7183 3.03716 1.09436e-015
    endloop
  endfacet
  facet normal -6.08639e-020 4.41246e-018 -1
    outer loop
      vertex 39.5609 4.51843 1.10097e-015
      vertex 40.7183 3.03716 1.09436e-015
      vertex 43.8065 -6.96961 1.05002e-015
    endloop
  endfacet
  facet normal -6.08639e-020 4.41246e-018 -1
    outer loop
      vertex 43.527 -2.67995 1.06896e-015
      vertex 48.0573 0.0632553 1.08079e-015
      vertex 45.4984 -3.01684 1.06736e-015
    endloop
  endfacet
  facet normal -6.08639e-020 4.41246e-018 -1
    outer loop
      vertex 43.4164 2.61556 1.09234e-015
      vertex 47.6853 2.48505 1.0915e-015
      vertex 47.3641 1.93931 1.08911e-015
    endloop
  endfacet
  facet normal -6.08639e-020 4.41246e-018 -1
    outer loop
      vertex 41.4117 1.16029 1.08604e-015
      vertex 41.5063 1.08254 1.08569e-015
      vertex 43.8065 -6.96961 1.05002e-015
    endloop
  endfacet
  facet normal -6.08639e-020 4.41246e-018 -1
    outer loop
      vertex 41.5063 1.08254 1.08569e-015
      vertex 42.1379 1.07751 1.08563e-015
      vertex 43.8065 -6.96961 1.05002e-015
    endloop
  endfacet
  facet normal -6.08639e-020 4.41246e-018 -1
    outer loop
      vertex 43.2947 3.23707 1.09509e-015
      vertex 51.6326 2.45117 1.09111e-015
      vertex 43.4164 2.61556 1.09234e-015
    endloop
  endfacet
  facet normal -6.08639e-020 4.41246e-018 -1
    outer loop
      vertex 43.2 3.31481 1.09543e-015
      vertex 51.6326 2.45117 1.09111e-015
      vertex 43.2947 3.23707 1.09509e-015
    endloop
  endfacet
  facet normal -6.08639e-020 4.41246e-018 -1
    outer loop
      vertex 39.5609 4.51843 1.10097e-015
      vertex 51.6326 2.45117 1.09111e-015
      vertex 41.23 3.65207 1.09704e-015
    endloop
  endfacet
  facet normal -6.08639e-020 4.41246e-018 -1
    outer loop
      vertex 39.5609 4.51843 1.10097e-015
      vertex 41.23 3.65207 1.09704e-015
      vertex 40.5975 3.65789 1.09711e-015
    endloop
  endfacet
  facet normal -6.08639e-020 4.41246e-018 -1
    outer loop
      vertex 48.0573 0.0632553 1.08079e-015
      vertex 42.1379 1.07751 1.08563e-015
      vertex 47.3641 1.93931 1.08911e-015
    endloop
  endfacet
  facet normal -6.08639e-020 4.41246e-018 -1
    outer loop
      vertex 42.1379 1.07751 1.08563e-015
      vertex 43.0498 -3.09491 1.06716e-015
      vertex 43.029 -3.21562 1.06663e-015
    endloop
  endfacet
  facet normal -6.08639e-020 4.41246e-018 -1
    outer loop
      vertex 42.1379 1.07751 1.08563e-015
      vertex 43.029 -3.21562 1.06663e-015
      vertex 43.8065 -6.96961 1.05002e-015
    endloop
  endfacet
  facet normal -6.08639e-020 4.41246e-018 -1
    outer loop
      vertex 47.8004 2.52694 1.09168e-015
      vertex 51.6326 2.45117 1.09111e-015
      vertex 49.7712 2.18979 1.09007e-015
    endloop
  endfacet
  facet normal -6.08639e-020 4.41246e-018 -1
    outer loop
      vertex 45.7889 -3.68822 1.06438e-015
      vertex 51.6326 2.45117 1.09111e-015
      vertex 44.5108 -5.22672 1.05767e-015
    endloop
  endfacet
  facet normal -6.08639e-020 4.41246e-018 -1
    outer loop
      vertex 45.4984 -3.01684 1.06736e-015
      vertex 51.6326 2.45117 1.09111e-015
      vertex 45.8096 -3.56752 1.06491e-015
    endloop
  endfacet
  facet normal -6.08639e-020 4.41246e-018 -1
    outer loop
      vertex 43.7224 -5.091 1.05831e-015
      vertex 44.0337 -5.64168 1.05586e-015
      vertex 43.8065 -6.96961 1.05002e-015
    endloop
  endfacet
  facet normal -6.08639e-020 4.41246e-018 -1
    outer loop
      vertex 44.0337 -5.64168 1.05586e-015
      vertex 44.5108 -5.22672 1.05767e-015
      vertex 43.8065 -6.96961 1.05002e-015
    endloop
  endfacet
  facet normal -6.08639e-020 4.41246e-018 -1
    outer loop
      vertex 45.8096 -3.56752 1.06491e-015
      vertex 51.6326 2.45117 1.09111e-015
      vertex 45.7889 -3.68822 1.06438e-015
    endloop
  endfacet
  facet normal -6.08639e-020 4.41246e-018 -1
    outer loop
      vertex 50.0476 1.43902 1.08674e-015
      vertex 51.6326 2.45117 1.09111e-015
      vertex 48.7696 -0.0989352 1.08003e-015
    endloop
  endfacet
  facet normal -6.08639e-020 4.41246e-018 -1
    outer loop
      vertex 48.7696 -0.0989352 1.08003e-015
      vertex 51.6326 2.45117 1.09111e-015
      vertex 45.4984 -3.01684 1.06736e-015
    endloop
  endfacet
  facet normal -6.08639e-020 4.41246e-018 -1
    outer loop
      vertex 42.1379 1.07751 1.08563e-015
      vertex 43.527 -2.67995 1.06896e-015
      vertex 43.0498 -3.09491 1.06716e-015
    endloop
  endfacet
  facet normal -6.08639e-020 4.41246e-018 -1
    outer loop
      vertex 41.23 3.65207 1.09704e-015
      vertex 51.6326 2.45117 1.09111e-015
      vertex 43.2 3.31481 1.09543e-015
    endloop
  endfacet
  facet normal -6.08639e-020 4.41246e-018 -1
    outer loop
      vertex 49.7712 2.18979 1.09007e-015
      vertex 51.6326 2.45117 1.09111e-015
      vertex 50.369 1.98383 1.08912e-015
    endloop
  endfacet
  facet normal -6.08639e-020 4.41246e-018 -1
    outer loop
      vertex 48.0573 0.0632553 1.08079e-015
      vertex 48.6548 -0.141761 1.07985e-015
      vertex 45.4984 -3.01684 1.06736e-015
    endloop
  endfacet
  facet normal -6.08639e-020 4.41246e-018 -1
    outer loop
      vertex 48.6548 -0.141761 1.07985e-015
      vertex 48.7696 -0.0989352 1.08003e-015
      vertex 45.4984 -3.01684 1.06736e-015
    endloop
  endfacet
  facet normal -6.08639e-020 4.41246e-018 -1
    outer loop
      vertex 48.0573 0.0632553 1.08079e-015
      vertex 43.527 -2.67995 1.06896e-015
      vertex 42.1379 1.07751 1.08563e-015
    endloop
  endfacet
  facet normal -6.08639e-020 4.41246e-018 -1
    outer loop
      vertex 50.369 1.98383 1.08912e-015
      vertex 51.6326 2.45117 1.09111e-015
      vertex 50.0476 1.43902 1.08674e-015
    endloop
  endfacet
  facet normal -6.08639e-020 4.41246e-018 -1
    outer loop
      vertex 43.4164 2.61556 1.09234e-015
      vertex 51.6326 2.45117 1.09111e-015
      vertex 47.8004 2.52694 1.09168e-015
    endloop
  endfacet
  facet normal -6.08639e-020 4.41246e-018 -1
    outer loop
      vertex 43.4164 2.61556 1.09234e-015
      vertex 47.8004 2.52694 1.09168e-015
      vertex 47.6853 2.48505 1.0915e-015
    endloop
  endfacet
  facet normal -6.08639e-020 4.41246e-018 -1
    outer loop
      vertex 41.4117 1.16029 1.08604e-015
      vertex 43.8065 -6.96961 1.05002e-015
      vertex 40.7183 3.03716 1.09436e-015
    endloop
  endfacet
  facet normal -6.08639e-020 4.41246e-018 -1
    outer loop
      vertex 43.4164 2.61556 1.09234e-015
      vertex 47.3641 1.93931 1.08911e-015
      vertex 42.1379 1.07751 1.08563e-015
    endloop
  endfacet
  facet normal 0.159138 0.929282 0.333333
    outer loop
      vertex 45 -4.80051e-007 10
      vertex 51.6326 2.45117 1.09111e-015
      vertex 39.5609 4.51843 1.10097e-015
    endloop
  endfacet
  facet normal 0.725213 -0.602457 0.333334
    outer loop
      vertex 51.6326 2.45117 1.09111e-015
      vertex 45 -4.80051e-007 10
      vertex 43.8065 -6.96961 1.05002e-015
    endloop
  endfacet
  facet normal 0.895938 0.174311 -0.408547
    outer loop
      vertex 43.0265 1.63999 4.46593
      vertex 43.0218 1.12353 4.23516
      vertex 40.7183 3.03716 1.09436e-015
    endloop
  endfacet
  facet normal 0.895938 0.174311 -0.408547
    outer loop
      vertex 40.5975 3.65789 1.09711e-015
      vertex 43.0265 1.63999 4.46593
      vertex 40.7183 3.03716 1.09436e-015
    endloop
  endfacet
  facet normal -0.00839992 -0.912966 -0.407948
    outer loop
      vertex 41.23 3.65207 1.09704e-015
      vertex 43.5334 1.73859 4.23482
      vertex 43.0265 1.63999 4.46593
    endloop
  endfacet
  facet normal -0.00839992 -0.912966 -0.407948
    outer loop
      vertex 40.5975 3.65789 1.09711e-015
      vertex 41.23 3.65207 1.09704e-015
      vertex 43.0265 1.63999 4.46593
    endloop
  endfacet
  facet normal -0.159085 -0.929281 -0.333361
    outer loop
      vertex 43.2 3.31481 1.09543e-015
      vertex 45.0596 1.77001 3.41889
      vertex 43.5334 1.73859 4.23482
    endloop
  endfacet
  facet normal -0.159085 -0.929281 -0.333361
    outer loop
      vertex 41.23 3.65207 1.09704e-015
      vertex 43.2 3.31481 1.09543e-015
      vertex 43.5334 1.73859 4.23482
    endloop
  endfacet
  facet normal -0.634739 -0.772717 -0.00390631
    outer loop
      vertex 43.2947 3.23707 1.09509e-015
      vertex 45.1228 1.71836 3.36115
      vertex 45.0596 1.77001 3.41889
    endloop
  endfacet
  facet normal -0.634739 -0.772717 -0.00390631
    outer loop
      vertex 43.2 3.31481 1.09543e-015
      vertex 43.2947 3.23707 1.09509e-015
      vertex 45.0596 1.77001 3.41889
    endloop
  endfacet
  facet normal -0.895948 -0.175448 0.408039
    outer loop
      vertex 45.1187 1.20138 3.1298
      vertex 45.1228 1.71836 3.36115
      vertex 43.4164 2.61556 1.09234e-015
    endloop
  endfacet
  facet normal -0.895948 -0.175448 0.408039
    outer loop
      vertex 43.4164 2.61556 1.09234e-015
      vertex 45.1228 1.71836 3.36115
      vertex 43.2947 3.23707 1.09509e-015
    endloop
  endfacet
  facet normal -0.627904 0.521923 0.57735
    outer loop
      vertex 45.1187 1.20138 3.1298
      vertex 43.4164 2.61556 1.09234e-015
      vertex 43.8404 -0.33679 3.13007
    endloop
  endfacet
  facet normal -0.627904 0.521923 0.57735
    outer loop
      vertex 43.8404 -0.33679 3.13007
      vertex 43.4164 2.61556 1.09234e-015
      vertex 42.1379 1.07751 1.08563e-015
    endloop
  endfacet
  facet normal 0.0072758 0.912747 0.408461
    outer loop
      vertex 43.8404 -0.33679 3.13007
      vertex 42.1379 1.07751 1.08563e-015
      vertex 43.3342 -0.43592 3.3606
    endloop
  endfacet
  facet normal 0.0072758 0.912747 0.408461
    outer loop
      vertex 43.3342 -0.43592 3.3606
      vertex 42.1379 1.07751 1.08563e-015
      vertex 41.5063 1.08254 1.08569e-015
    endloop
  endfacet
  facet normal 0.634739 0.772717 0.00390631
    outer loop
      vertex 43.3342 -0.43592 3.3606
      vertex 41.5063 1.08254 1.08569e-015
      vertex 43.271 -0.384265 3.41834
    endloop
  endfacet
  facet normal 0.634739 0.772717 0.00390631
    outer loop
      vertex 43.271 -0.384265 3.41834
      vertex 41.5063 1.08254 1.08569e-015
      vertex 41.4117 1.16029 1.08604e-015
    endloop
  endfacet
  facet normal 0.884363 0.326748 -0.333374
    outer loop
      vertex 43.0218 1.12353 4.23516
      vertex 43.271 -0.384265 3.41834
      vertex 41.4117 1.16029 1.08604e-015
    endloop
  endfacet
  facet normal 0.884363 0.326748 -0.333374
    outer loop
      vertex 40.7183 3.03716 1.09436e-015
      vertex 43.0218 1.12353 4.23516
      vertex 41.4117 1.16029 1.08604e-015
    endloop
  endfacet
  facet normal 0.598944 -0.688739 0.408539
    outer loop
      vertex 43.527 -2.67995 1.06896e-015
      vertex 43.9005 -0.498386 3.13011
      vertex 43.4509 -0.752506 3.36089
    endloop
  endfacet
  facet normal 0.598944 -0.688739 0.408539
    outer loop
      vertex 43.0498 -3.09491 1.06716e-015
      vertex 43.527 -2.67995 1.06896e-015
      vertex 43.4509 -0.752506 3.36089
    endloop
  endfacet
  facet normal 0.985554 -0.169363 0.000411973
    outer loop
      vertex 43.0498 -3.09491 1.06716e-015
      vertex 43.4509 -0.752506 3.36089
      vertex 43.4371 -0.832972 3.41862
    endloop
  endfacet
  facet normal 0.985554 -0.169363 0.000411973
    outer loop
      vertex 43.029 -3.21562 1.06663e-015
      vertex 43.0498 -3.09491 1.06716e-015
      vertex 43.4371 -0.832972 3.41862
    endloop
  endfacet
  facet normal -0.137533 -0.80483 0.57735
    outer loop
      vertex 45.4984 -3.01684 1.06736e-015
      vertex 45.8719 -0.835503 3.12978
      vertex 43.9005 -0.498386 3.13011
    endloop
  endfacet
  facet normal -0.137533 -0.80483 0.57735
    outer loop
      vertex 43.527 -2.67995 1.06896e-015
      vertex 45.4984 -3.01684 1.06736e-015
      vertex 43.9005 -0.498386 3.13011
    endloop
  endfacet
  facet normal -0.794839 -0.449224 0.407957
    outer loop
      vertex 46.2107 -1.22511 3.36089
      vertex 45.8719 -0.835503 3.12978
      vertex 45.8096 -3.56752 1.06491e-015
    endloop
  endfacet
  facet normal -0.794839 -0.449224 0.407957
    outer loop
      vertex 45.8096 -3.56752 1.06491e-015
      vertex 45.8719 -0.835503 3.12978
      vertex 45.4984 -3.01684 1.06736e-015
    endloop
  endfacet
  facet normal -0.985554 0.169363 -0.000411973
    outer loop
      vertex 46.2107 -1.22511 3.36089
      vertex 45.8096 -3.56752 1.06491e-015
      vertex 46.1969 -1.30558 3.41862
    endloop
  endfacet
  facet normal -0.985554 0.169363 -0.000411973
    outer loop
      vertex 46.1969 -1.30558 3.41862
      vertex 45.8096 -3.56752 1.06491e-015
      vertex 45.7889 -3.68822 1.06438e-015
    endloop
  endfacet
  facet normal -0.725228 0.602445 -0.333324
    outer loop
      vertex 46.1969 -1.30558 3.41862
      vertex 45.7889 -3.68822 1.06438e-015
      vertex 45.0163 -2.27498 4.23516
    endloop
  endfacet
  facet normal -0.725228 0.602445 -0.333324
    outer loop
      vertex 45.0163 -2.27498 4.23516
      vertex 45.7889 -3.68822 1.06438e-015
      vertex 44.5108 -5.22672 1.05767e-015
    endloop
  endfacet
  facet normal -0.598944 0.688739 -0.408539
    outer loop
      vertex 45.0163 -2.27498 4.23516
      vertex 44.5108 -5.22672 1.05767e-015
      vertex 44.5667 -2.5291 4.46593
    endloop
  endfacet
  facet normal -0.598944 0.688739 -0.408539
    outer loop
      vertex 44.5667 -2.5291 4.46593
      vertex 44.5108 -5.22672 1.05767e-015
      vertex 44.0337 -5.64168 1.05586e-015
    endloop
  endfacet
  facet normal 0.794839 0.449224 -0.407957
    outer loop
      vertex 44.2279 -2.13949 4.23483
      vertex 44.5667 -2.5291 4.46593
      vertex 44.0337 -5.64168 1.05586e-015
    endloop
  endfacet
  facet normal 0.794839 0.449224 -0.407957
    outer loop
      vertex 43.7224 -5.091 1.05831e-015
      vertex 44.2279 -2.13949 4.23483
      vertex 44.0337 -5.64168 1.05586e-015
    endloop
  endfacet
  facet normal 0.884275 0.326948 -0.33341
    outer loop
      vertex 43.4371 -0.832972 3.41862
      vertex 44.2279 -2.13949 4.23483
      vertex 43.7224 -5.091 1.05831e-015
    endloop
  endfacet
  facet normal 0.884275 0.326948 -0.33341
    outer loop
      vertex 43.029 -3.21562 1.06663e-015
      vertex 43.4371 -0.832972 3.41862
      vertex 43.7224 -5.091 1.05831e-015
    endloop
  endfacet
  facet normal 0.786729 -0.462951 0.40833
    outer loop
      vertex 47.3641 1.93931 1.08911e-015
      vertex 47.6853 2.48505 1.0915e-015
      vertex 45.456 1.66118 3.36115
    endloop
  endfacet
  facet normal 0.786729 -0.462951 0.40833
    outer loop
      vertex 45.2882 1.1721 3.12996
      vertex 47.3641 1.93931 1.08911e-015
      vertex 45.456 1.66118 3.36115
    endloop
  endfacet
  facet normal 0.342006 -0.939691 -0.00349435
    outer loop
      vertex 47.6853 2.48505 1.0915e-015
      vertex 47.8004 2.52694 1.09168e-015
      vertex 45.5328 1.68892 3.41888
    endloop
  endfacet
  facet normal 0.342006 -0.939691 -0.00349435
    outer loop
      vertex 45.456 1.66118 3.36115
      vertex 47.6853 2.48505 1.0915e-015
      vertex 45.5328 1.68892 3.41888
    endloop
  endfacet
  facet normal -0.158986 -0.929339 -0.333246
    outer loop
      vertex 47.8004 2.52694 1.09168e-015
      vertex 49.7712 2.18979 1.09007e-015
      vertex 46.9621 1.15166 4.23523
    endloop
  endfacet
  facet normal -0.158986 -0.929339 -0.333246
    outer loop
      vertex 45.5328 1.68892 3.41888
      vertex 47.8004 2.52694 1.09168e-015
      vertex 46.9621 1.15166 4.23523
    endloop
  endfacet
  facet normal -0.297263 -0.862912 -0.408678
    outer loop
      vertex 49.7712 2.18979 1.09007e-015
      vertex 50.369 1.98383 1.08912e-015
      vertex 47.407 0.88916 4.46593
    endloop
  endfacet
  facet normal -0.297263 -0.862912 -0.408678
    outer loop
      vertex 46.9621 1.15166 4.23523
      vertex 49.7712 2.18979 1.09007e-015
      vertex 47.407 0.88916 4.46593
    endloop
  endfacet
  facet normal -0.786357 0.464034 -0.407818
    outer loop
      vertex 50.369 1.98383 1.08912e-015
      vertex 50.0476 1.43902 1.08674e-015
      vertex 47.407 0.88916 4.46593
    endloop
  endfacet
  facet normal -0.786357 0.464034 -0.407818
    outer loop
      vertex 47.407 0.88916 4.46593
      vertex 50.0476 1.43902 1.08674e-015
      vertex 47.2388 0.401017 4.23474
    endloop
  endfacet
  facet normal -0.725151 0.60257 -0.333265
    outer loop
      vertex 50.0476 1.43902 1.08674e-015
      vertex 48.7696 -0.0989352 1.08003e-015
      vertex 47.2388 0.401017 4.23474
    endloop
  endfacet
  facet normal -0.725151 0.60257 -0.333265
    outer loop
      vertex 47.2388 0.401017 4.23474
      vertex 48.7696 -0.0989352 1.08003e-015
      vertex 46.5023 -0.936826 3.41833
    endloop
  endfacet
  facet normal -0.349668 0.936871 -0.00227893
    outer loop
      vertex 48.7696 -0.0989352 1.08003e-015
      vertex 48.6548 -0.141761 1.07985e-015
      vertex 46.5023 -0.936826 3.41833
    endloop
  endfacet
  facet normal -0.349668 0.936871 -0.00227893
    outer loop
      vertex 46.5023 -0.936826 3.41833
      vertex 48.6548 -0.141761 1.07985e-015
      vertex 46.4259 -0.9655 3.3606
    endloop
  endfacet
  facet normal 0.296283 0.863489 0.408169
    outer loop
      vertex 48.6548 -0.141761 1.07985e-015
      vertex 48.0573 0.0632553 1.08079e-015
      vertex 46.4259 -0.9655 3.3606
    endloop
  endfacet
  facet normal 0.296283 0.863489 0.408169
    outer loop
      vertex 46.4259 -0.9655 3.3606
      vertex 48.0573 0.0632553 1.08079e-015
      vertex 45.9814 -0.703936 3.1299
    endloop
  endfacet
  facet normal 0.765889 0.282988 0.57735
    outer loop
      vertex 45.9814 -0.703936 3.1299
      vertex 48.0573 0.0632553 1.08079e-015
      vertex 47.3641 1.93931 1.08911e-015
    endloop
  endfacet
  facet normal 0.765889 0.282988 0.57735
    outer loop
      vertex 45.2882 1.1721 3.12996
      vertex 45.9814 -0.703936 3.1299
      vertex 47.3641 1.93931 1.08911e-015
    endloop
  endfacet
  facet normal -0.4441 0.368928 -0.816497
    outer loop
      vertex 43.5334 1.73859 4.23482
      vertex 45.0596 1.77001 3.41889
      vertex 43.0265 1.63999 4.46593
    endloop
  endfacet
  facet normal -0.4441 0.368928 -0.816497
    outer loop
      vertex 43.0265 1.63999 4.46593
      vertex 45.0596 1.77001 3.41889
      vertex 45.1228 1.71836 3.36115
    endloop
  endfacet
  facet normal -0.4441 0.368928 -0.816497
    outer loop
      vertex 43.0265 1.63999 4.46593
      vertex 45.1228 1.71836 3.36115
      vertex 45.1187 1.20138 3.1298
    endloop
  endfacet
  facet normal -0.4441 0.368928 -0.816497
    outer loop
      vertex 43.0265 1.63999 4.46593
      vertex 45.1187 1.20138 3.1298
      vertex 43.8404 -0.33679 3.13007
    endloop
  endfacet
  facet normal -0.4441 0.368928 -0.816497
    outer loop
      vertex 43.0265 1.63999 4.46593
      vertex 43.8404 -0.33679 3.13007
      vertex 43.3342 -0.43592 3.3606
    endloop
  endfacet
  facet normal -0.4441 0.368928 -0.816497
    outer loop
      vertex 43.0265 1.63999 4.46593
      vertex 43.3342 -0.43592 3.3606
      vertex 43.271 -0.384265 3.41834
    endloop
  endfacet
  facet normal -0.4441 0.368928 -0.816497
    outer loop
      vertex 43.0265 1.63999 4.46593
      vertex 43.271 -0.384265 3.41834
      vertex 43.0218 1.12353 4.23516
    endloop
  endfacet
  facet normal -0.0974501 -0.569066 -0.816497
    outer loop
      vertex 43.9005 -0.498386 3.13011
      vertex 45.8719 -0.835503 3.12978
      vertex 43.4509 -0.752506 3.36089
    endloop
  endfacet
  facet normal -0.0974501 -0.569066 -0.816497
    outer loop
      vertex 43.4509 -0.752506 3.36089
      vertex 45.8719 -0.835503 3.12978
      vertex 46.2107 -1.22511 3.36089
    endloop
  endfacet
  facet normal -0.0974501 -0.569066 -0.816497
    outer loop
      vertex 43.4509 -0.752506 3.36089
      vertex 46.2107 -1.22511 3.36089
      vertex 46.1969 -1.30558 3.41862
    endloop
  endfacet
  facet normal -0.0974501 -0.569066 -0.816497
    outer loop
      vertex 43.4509 -0.752506 3.36089
      vertex 46.1969 -1.30558 3.41862
      vertex 45.0163 -2.27498 4.23516
    endloop
  endfacet
  facet normal -0.0974501 -0.569066 -0.816497
    outer loop
      vertex 43.4509 -0.752506 3.36089
      vertex 45.0163 -2.27498 4.23516
      vertex 44.5667 -2.5291 4.46593
    endloop
  endfacet
  facet normal -0.0974501 -0.569066 -0.816497
    outer loop
      vertex 43.4509 -0.752506 3.36089
      vertex 44.5667 -2.5291 4.46593
      vertex 44.2279 -2.13949 4.23483
    endloop
  endfacet
  facet normal -0.0974501 -0.569066 -0.816497
    outer loop
      vertex 43.4509 -0.752506 3.36089
      vertex 44.2279 -2.13949 4.23483
      vertex 43.4371 -0.832972 3.41862
    endloop
  endfacet
  facet normal 0.541551 0.200137 -0.816497
    outer loop
      vertex 45.5328 1.68892 3.41888
      vertex 46.9621 1.15166 4.23523
      vertex 45.456 1.66118 3.36115
    endloop
  endfacet
  facet normal 0.541551 0.200137 -0.816497
    outer loop
      vertex 45.456 1.66118 3.36115
      vertex 46.9621 1.15166 4.23523
      vertex 47.407 0.88916 4.46593
    endloop
  endfacet
  facet normal 0.541551 0.200137 -0.816497
    outer loop
      vertex 45.456 1.66118 3.36115
      vertex 47.407 0.88916 4.46593
      vertex 47.2388 0.401017 4.23474
    endloop
  endfacet
  facet normal 0.541551 0.200137 -0.816497
    outer loop
      vertex 45.456 1.66118 3.36115
      vertex 47.2388 0.401017 4.23474
      vertex 46.5023 -0.936826 3.41833
    endloop
  endfacet
  facet normal 0.541551 0.200137 -0.816497
    outer loop
      vertex 45.456 1.66118 3.36115
      vertex 46.5023 -0.936826 3.41833
      vertex 46.4259 -0.9655 3.3606
    endloop
  endfacet
  facet normal 0.541551 0.200137 -0.816497
    outer loop
      vertex 45.456 1.66118 3.36115
      vertex 46.4259 -0.9655 3.3606
      vertex 45.9814 -0.703936 3.1299
    endloop
  endfacet
  facet normal 0.541551 0.200137 -0.816497
    outer loop
      vertex 45.456 1.66118 3.36115
      vertex 45.9814 -0.703936 3.1299
      vertex 45.2882 1.1721 3.12996
    endloop
  endfacet
endsolid OpenSCAD_Model
