solid OpenSCAD_Model
  facet normal -0.81556 0.473023 0.333333
    outer loop
      vertex 1.31314e-015 4.3393e-007 10
      vertex 0.0140233 7.07105 1.10674e-015
      vertex -6.13072 -3.52338 -4.62041e-015
    endloop
  endfacet
  facet normal -0.00187077 -0.942807 0.333334
    outer loop
      vertex 6.11669 -3.54769 6.34563e-015
      vertex 1.31314e-015 4.3393e-007 10
      vertex -6.13072 -3.52338 -4.62041e-015
    endloop
  endfacet
  facet normal 8.95419e-016 2.12407e-017 -1
    outer loop
      vertex 1.15885 4.29559 2.07288e-015
      vertex 0.0140233 7.07105 1.10674e-015
      vertex 6.11669 -3.54769 6.34563e-015
    endloop
  endfacet
  facet normal 8.95419e-016 2.12407e-017 -1
    outer loop
      vertex -6.13072 -3.52338 -4.62041e-015
      vertex 0.0140233 7.07105 1.10674e-015
      vertex -4.29969 -1.14493 -2.93035e-015
    endloop
  endfacet
  facet normal 8.95419e-016 2.12407e-017 -1
    outer loop
      vertex -6.13072 -3.52338 -4.62041e-015
      vertex -4.29969 -1.14493 -2.93035e-015
      vertex -5.22837 -3.00474 -3.80142e-015
    endloop
  endfacet
  facet normal 8.95419e-016 2.12407e-017 -1
    outer loop
      vertex -4.19316 -1.08342 -2.83366e-015
      vertex 3.03496 -3.08993 3.59592e-015
      vertex -3.04755 -3.07742 -1.85021e-015
    endloop
  endfacet
  facet normal 8.95419e-016 2.12407e-017 -1
    outer loop
      vertex -6.13072 -3.52338 -4.62041e-015
      vertex -5.22837 -3.00474 -3.80142e-015
      vertex -3.15408 -3.13894 -1.94691e-015
    endloop
  endfacet
  facet normal 8.95419e-016 2.12407e-017 -1
    outer loop
      vertex -6.13072 -3.52338 -4.62041e-015
      vertex -3.15408 -3.13894 -1.94691e-015
      vertex 6.11669 -3.54769 6.34563e-015
    endloop
  endfacet
  facet normal 8.95419e-016 2.12407e-017 -1
    outer loop
      vertex 5.21578 -3.02573 5.55002e-015
      vertex 6.11669 -3.54769 6.34563e-015
      vertex 3.14141 -3.15159 3.68992e-015
    endloop
  endfacet
  facet normal 8.95419e-016 2.12407e-017 -1
    outer loop
      vertex -4.29969 -1.14493 -2.93035e-015
      vertex 0.0140233 7.07105 1.10674e-015
      vertex -4.19316 -1.08342 -2.83366e-015
    endloop
  endfacet
  facet normal 8.95419e-016 2.12407e-017 -1
    outer loop
      vertex 1.15793 4.17312 2.06946e-015
      vertex 4.29476 -1.16182 4.76491e-015
      vertex 4.18946 -1.10017 4.67194e-015
    endloop
  endfacet
  facet normal 8.95419e-016 2.12407e-017 -1
    outer loop
      vertex -4.19316 -1.08342 -2.83366e-015
      vertex 0.0140233 7.07105 1.10674e-015
      vertex -1.14116 4.30084 1.35228e-017
    endloop
  endfacet
  facet normal 8.95419e-016 2.12407e-017 -1
    outer loop
      vertex 4.29476 -1.16182 4.76491e-015
      vertex 6.11669 -3.54769 6.34563e-015
      vertex 5.21578 -3.02573 5.55002e-015
    endloop
  endfacet
  facet normal 8.95419e-016 2.12407e-017 -1
    outer loop
      vertex -4.19316 -1.08342 -2.83366e-015
      vertex -1.14116 4.30084 1.35228e-017
      vertex -1.14208 4.17837 1.00979e-017
    endloop
  endfacet
  facet normal 8.95419e-016 2.12407e-017 -1
    outer loop
      vertex 3.03496 -3.08993 3.59592e-015
      vertex -4.19316 -1.08342 -2.83366e-015
      vertex -1.14208 4.17837 1.00979e-017
    endloop
  endfacet
  facet normal 8.95419e-016 2.12407e-017 -1
    outer loop
      vertex 4.29476 -1.16182 4.76491e-015
      vertex 1.15793 4.17312 2.06946e-015
      vertex 6.11669 -3.54769 6.34563e-015
    endloop
  endfacet
  facet normal 8.95419e-016 2.12407e-017 -1
    outer loop
      vertex 3.03496 -3.08993 3.59592e-015
      vertex -1.14208 4.17837 1.00979e-017
      vertex 4.18946 -1.10017 4.67194e-015
    endloop
  endfacet
  facet normal 8.95419e-016 2.12407e-017 -1
    outer loop
      vertex 1.15793 4.17312 2.06946e-015
      vertex 1.15885 4.29559 2.07288e-015
      vertex 6.11669 -3.54769 6.34563e-015
    endloop
  endfacet
  facet normal 8.95419e-016 2.12407e-017 -1
    outer loop
      vertex -1.14116 4.30084 1.35228e-017
      vertex 0.0140233 7.07105 1.10674e-015
      vertex 0.011707 6.03001 1.08255e-015
    endloop
  endfacet
  facet normal 8.95419e-016 2.12407e-017 -1
    outer loop
      vertex 1.15793 4.17312 2.06946e-015
      vertex 4.18946 -1.10017 4.67194e-015
      vertex -1.14208 4.17837 1.00979e-017
    endloop
  endfacet
  facet normal 8.95419e-016 2.12407e-017 -1
    outer loop
      vertex -3.04755 -3.07742 -1.85021e-015
      vertex 3.03496 -3.08993 3.59592e-015
      vertex 3.14141 -3.15159 3.68992e-015
    endloop
  endfacet
  facet normal 8.95419e-016 2.12407e-017 -1
    outer loop
      vertex -3.04755 -3.07742 -1.85021e-015
      vertex 3.14141 -3.15159 3.68992e-015
      vertex 6.11669 -3.54769 6.34563e-015
    endloop
  endfacet
  facet normal 8.95419e-016 2.12407e-017 -1
    outer loop
      vertex 0.011707 6.03001 1.08255e-015
      vertex 0.0140233 7.07105 1.10674e-015
      vertex 1.15885 4.29559 2.07288e-015
    endloop
  endfacet
  facet normal 8.95419e-016 2.12407e-017 -1
    outer loop
      vertex -3.04755 -3.07742 -1.85021e-015
      vertex 6.11669 -3.54769 6.34563e-015
      vertex -3.15408 -3.13894 -1.94691e-015
    endloop
  endfacet
  facet normal 0.817431 0.469783 0.333332
    outer loop
      vertex 6.11669 -3.54769 6.34563e-015
      vertex 0.0140233 7.07105 1.10674e-015
      vertex 1.31314e-015 4.3393e-007 10
    endloop
  endfacet
  facet normal 0.833209 -0.416057 -0.364224
    outer loop
      vertex -4.29969 -1.14493 -2.93035e-015
      vertex -1.97371 0.19183 3.79397
      vertex -2.40187 -1.38033 4.61039
    endloop
  endfacet
  facet normal 0.833209 -0.416057 -0.364224
    outer loop
      vertex -5.22837 -3.00474 -3.80142e-015
      vertex -4.29969 -1.14493 -2.93035e-015
      vertex -2.40187 -1.38033 4.61039
    endloop
  endfacet
  facet normal 0.500076 -0.86598 -0.00146451
    outer loop
      vertex -4.19316 -1.08342 -2.83366e-015
      vertex -1.90273 0.232914 3.73598
      vertex -1.97371 0.19183 3.79397
    endloop
  endfacet
  facet normal 0.500076 -0.86598 -0.00146451
    outer loop
      vertex -4.29969 -1.14493 -2.93035e-015
      vertex -4.19316 -1.08342 -2.83366e-015
      vertex -1.97371 0.19183 3.79397
    endloop
  endfacet
  facet normal -0.707971 -0.406748 0.57735
    outer loop
      vertex -0.757033 -1.76104 3.73613
      vertex -1.90273 0.232914 3.73598
      vertex -3.04755 -3.07742 -1.85021e-015
    endloop
  endfacet
  facet normal -0.707971 -0.406748 0.57735
    outer loop
      vertex -3.04755 -3.07742 -1.85021e-015
      vertex -1.90273 0.232914 3.73598
      vertex -4.19316 -1.08342 -2.83366e-015
    endloop
  endfacet
  facet normal -0.500076 0.86598 0.00146451
    outer loop
      vertex -0.757033 -1.76104 3.73613
      vertex -3.04755 -3.07742 -1.85021e-015
      vertex -0.828009 -1.80213 3.79412
    endloop
  endfacet
  facet normal -0.500076 0.86598 0.00146451
    outer loop
      vertex -0.828009 -1.80213 3.79412
      vertex -3.04755 -3.07742 -1.85021e-015
      vertex -3.15408 -3.13894 -1.94691e-015
    endloop
  endfacet
  facet normal 0.0601231 0.929338 -0.364301
    outer loop
      vertex -0.828009 -1.80213 3.79412
      vertex -3.15408 -3.13894 -1.94691e-015
      vertex -2.40187 -1.38033 4.61039
    endloop
  endfacet
  facet normal 0.0601231 0.929338 -0.364301
    outer loop
      vertex -2.40187 -1.38033 4.61039
      vertex -3.15408 -3.13894 -1.94691e-015
      vertex -5.22837 -3.00474 -3.80142e-015
    endloop
  endfacet
  facet normal 0.999964 -0.00750788 -0.00390658
    outer loop
      vertex -1.14208 4.17837 1.00979e-017
      vertex -1.14116 4.30084 1.35228e-017
      vertex -1.14648 1.61805 3.79406
    endloop
  endfacet
  facet normal 0.999964 -0.00750788 -0.00390658
    outer loop
      vertex -1.14732 1.5364 3.73632
      vertex -1.14208 4.17837 1.00979e-017
      vertex -1.14648 1.61805 3.79406
    endloop
  endfacet
  facet normal 0.77488 -0.516626 -0.364222
    outer loop
      vertex -1.14116 4.30084 1.35228e-017
      vertex 0.011707 6.03001 1.08255e-015
      vertex 0.00524186 2.77007 4.61027
    endloop
  endfacet
  facet normal 0.77488 -0.516626 -0.364222
    outer loop
      vertex -1.14648 1.61805 3.79406
      vertex -1.14116 4.30084 1.35228e-017
      vertex 0.00524186 2.77007 4.61027
    endloop
  endfacet
  facet normal -0.77674 -0.513734 -0.364353
    outer loop
      vertex 1.15885 4.29559 2.07288e-015
      vertex 1.15353 1.61303 3.79373
      vertex 0.011707 6.03001 1.08255e-015
    endloop
  endfacet
  facet normal -0.77674 -0.513734 -0.364353
    outer loop
      vertex 0.011707 6.03001 1.08255e-015
      vertex 1.15353 1.61303 3.79373
      vertex 0.00524186 2.77007 4.61027
    endloop
  endfacet
  facet normal -0.999964 0.00750788 0.00390658
    outer loop
      vertex 1.15885 4.29559 2.07288e-015
      vertex 1.15793 4.17312 2.06946e-015
      vertex 1.15353 1.61303 3.79373
    endloop
  endfacet
  facet normal -0.999964 0.00750788 0.00390658
    outer loop
      vertex 1.15353 1.61303 3.79373
      vertex 1.15793 4.17312 2.06946e-015
      vertex 1.15269 1.53138 3.73599
    endloop
  endfacet
  facet normal 0.0018643 0.816495 0.57735
    outer loop
      vertex 1.15793 4.17312 2.06946e-015
      vertex -1.14208 4.17837 1.00979e-017
      vertex 1.15269 1.53138 3.73599
    endloop
  endfacet
  facet normal 0.0018643 0.816495 0.57735
    outer loop
      vertex 1.15269 1.53138 3.73599
      vertex -1.14208 4.17837 1.00979e-017
      vertex -1.14732 1.5364 3.73632
    endloop
  endfacet
  facet normal 0.50122 0.86532 -0.000407296
    outer loop
      vertex 3.14141 -3.15159 3.68992e-015
      vertex 3.03496 -3.08993 3.59592e-015
      vertex 0.820688 -1.80557 3.79408
    endloop
  endfacet
  facet normal 0.50122 0.86532 -0.000407296
    outer loop
      vertex 0.820688 -1.80557 3.79408
      vertex 3.03496 -3.08993 3.59592e-015
      vertex 0.749713 -1.76448 3.73609
    endloop
  endfacet
  facet normal 0.706227 -0.409768 0.57735
    outer loop
      vertex 3.03496 -3.08993 3.59592e-015
      vertex 4.18946 -1.10017 4.67194e-015
      vertex 1.90411 0.225344 3.73627
    endloop
  endfacet
  facet normal 0.706227 -0.409768 0.57735
    outer loop
      vertex 0.749713 -1.76448 3.73609
      vertex 3.03496 -3.08993 3.59592e-015
      vertex 1.90411 0.225344 3.73627
    endloop
  endfacet
  facet normal -0.505308 -0.862934 -0.00293928
    outer loop
      vertex 4.18946 -1.10017 4.67194e-015
      vertex 4.29476 -1.16182 4.76491e-015
      vertex 1.97421 0.184095 3.79379
    endloop
  endfacet
  facet normal -0.505308 -0.862934 -0.00293928
    outer loop
      vertex 1.90411 0.225344 3.73627
      vertex 4.18946 -1.10017 4.67194e-015
      vertex 1.97421 0.184095 3.79379
    endloop
  endfacet
  facet normal -0.834905 -0.412554 -0.364324
    outer loop
      vertex 5.21578 -3.02573 5.55002e-015
      vertex 2.39586 -1.39018 4.6102
      vertex 4.29476 -1.16182 4.76491e-015
    endloop
  endfacet
  facet normal -0.834905 -0.412554 -0.364324
    outer loop
      vertex 4.29476 -1.16182 4.76491e-015
      vertex 2.39586 -1.39018 4.6102
      vertex 1.97421 0.184095 3.79379
    endloop
  endfacet
  facet normal -0.0563973 0.929579 -0.364282
    outer loop
      vertex 5.21578 -3.02573 5.55002e-015
      vertex 3.14141 -3.15159 3.68992e-015
      vertex 2.39586 -1.39018 4.6102
    endloop
  endfacet
  facet normal -0.0563973 0.929579 -0.364282
    outer loop
      vertex 2.39586 -1.39018 4.6102
      vertex 3.14141 -3.15159 3.68992e-015
      vertex 0.820688 -1.80557 3.79408
    endloop
  endfacet
  facet normal -0.500571 -0.287683 -0.816497
    outer loop
      vertex -1.90273 0.232914 3.73598
      vertex -0.757033 -1.76104 3.73613
      vertex -1.97371 0.19183 3.79397
    endloop
  endfacet
  facet normal -0.500571 -0.287683 -0.816497
    outer loop
      vertex -1.97371 0.19183 3.79397
      vertex -0.757033 -1.76104 3.73613
      vertex -0.828009 -1.80213 3.79412
    endloop
  endfacet
  facet normal -0.500571 -0.287683 -0.816497
    outer loop
      vertex -1.97371 0.19183 3.79397
      vertex -0.828009 -1.80213 3.79412
      vertex -2.40187 -1.38033 4.61039
    endloop
  endfacet
  facet normal 0.001145 0.577349 -0.816497
    outer loop
      vertex 0.00524186 2.77007 4.61027
      vertex 1.15353 1.61303 3.79373
      vertex -1.14648 1.61805 3.79406
    endloop
  endfacet
  facet normal 0.001145 0.577349 -0.816497
    outer loop
      vertex -1.14648 1.61805 3.79406
      vertex 1.15353 1.61303 3.79373
      vertex 1.15269 1.53138 3.73599
    endloop
  endfacet
  facet normal 0.001145 0.577349 -0.816497
    outer loop
      vertex -1.14648 1.61805 3.79406
      vertex 1.15269 1.53138 3.73599
      vertex -1.14732 1.5364 3.73632
    endloop
  endfacet
  facet normal 0.499426 -0.289667 -0.816497
    outer loop
      vertex 1.97421 0.184095 3.79379
      vertex 2.39586 -1.39018 4.6102
      vertex 1.90411 0.225344 3.73627
    endloop
  endfacet
  facet normal 0.499426 -0.289667 -0.816497
    outer loop
      vertex 1.90411 0.225344 3.73627
      vertex 2.39586 -1.39018 4.6102
      vertex 0.820688 -1.80557 3.79408
    endloop
  endfacet
  facet normal 0.499426 -0.289667 -0.816497
    outer loop
      vertex 1.90411 0.225344 3.73627
      vertex 0.820688 -1.80557 3.79408
      vertex 0.749713 -1.76448 3.73609
    endloop
  endfacet
  facet normal 0.00228123 -0.942806 0.333334
    outer loop
      vertex 21.1323 -3.52071 -7.08642e-015
      vertex 15 -3.77236e-007 10
      vertex 8.88484 -3.55035 -5.90456e-016
    endloop
  endfacet
  facet normal -5.31875e-016 6.12385e-016 -1
    outer loop
      vertex 16.1397 4.30157 3.5927e-016
      vertex 14.9829 7.07106 2.67053e-015
      vertex 21.1323 -3.52071 -7.08642e-015
    endloop
  endfacet
  facet normal -5.31875e-016 6.12385e-016 -1
    outer loop
      vertex 8.88484 -3.55035 -5.90456e-016
      vertex 14.9829 7.07106 2.67053e-015
      vertex 10.7053 -1.16352 -9.70567e-017
    endloop
  endfacet
  facet normal -5.31875e-016 6.12385e-016 -1
    outer loop
      vertex 8.88484 -3.55035 -5.90456e-016
      vertex 10.7053 -1.16352 -9.70567e-017
      vertex 9.78487 -3.02746 -7.48958e-016
    endloop
  endfacet
  facet normal -5.31875e-016 6.12385e-016 -1
    outer loop
      vertex 10.8118 -1.10188 -1.15929e-016
      vertex 18.0489 -3.07609 -5.17417e-015
      vertex 11.9656 -3.09108 -1.94779e-015
    endloop
  endfacet
  facet normal -5.31875e-016 6.12385e-016 -1
    outer loop
      vertex 8.88484 -3.55035 -5.90456e-016
      vertex 9.78487 -3.02746 -7.48958e-016
      vertex 11.8603 -3.15272 -1.92953e-015
    endloop
  endfacet
  facet normal -5.31875e-016 6.12385e-016 -1
    outer loop
      vertex 8.88484 -3.55035 -5.90456e-016
      vertex 11.8603 -3.15272 -1.92953e-015
      vertex 21.1323 -3.52071 -7.08642e-015
    endloop
  endfacet
  facet normal -5.31875e-016 6.12385e-016 -1
    outer loop
      vertex 20.2297 -3.00246 -6.28899e-015
      vertex 21.1323 -3.52071 -7.08642e-015
      vertex 18.1555 -3.13756 -5.26849e-015
    endloop
  endfacet
  facet normal -5.31875e-016 6.12385e-016 -1
    outer loop
      vertex 10.7053 -1.16352 -9.70567e-017
      vertex 14.9829 7.07106 2.67053e-015
      vertex 10.8118 -1.10188 -1.15929e-016
    endloop
  endfacet
  facet normal -5.31875e-016 6.12385e-016 -1
    outer loop
      vertex 16.1396 4.17909 2.84321e-016
      vertex 19.3002 -1.14306 -4.65594e-015
      vertex 19.1936 -1.08159 -4.56163e-015
    endloop
  endfacet
  facet normal -5.31875e-016 6.12385e-016 -1
    outer loop
      vertex 10.8118 -1.10188 -1.15929e-016
      vertex 14.9829 7.07106 2.67053e-015
      vertex 13.8397 4.29487 1.57849e-015
    endloop
  endfacet
  facet normal -5.31875e-016 6.12385e-016 -1
    outer loop
      vertex 19.3002 -1.14306 -4.65594e-015
      vertex 21.1323 -3.52071 -7.08642e-015
      vertex 20.2297 -3.00246 -6.28899e-015
    endloop
  endfacet
  facet normal -5.31875e-016 6.12385e-016 -1
    outer loop
      vertex 10.8118 -1.10188 -1.15929e-016
      vertex 13.8397 4.29487 1.57849e-015
      vertex 13.8396 4.1724 1.50354e-015
    endloop
  endfacet
  facet normal -5.31875e-016 6.12385e-016 -1
    outer loop
      vertex 18.0489 -3.07609 -5.17417e-015
      vertex 10.8118 -1.10188 -1.15929e-016
      vertex 13.8396 4.1724 1.50354e-015
    endloop
  endfacet
  facet normal -5.31875e-016 6.12385e-016 -1
    outer loop
      vertex 19.3002 -1.14306 -4.65594e-015
      vertex 16.1396 4.17909 2.84321e-016
      vertex 21.1323 -3.52071 -7.08642e-015
    endloop
  endfacet
  facet normal -5.31875e-016 6.12385e-016 -1
    outer loop
      vertex 18.0489 -3.07609 -5.17417e-015
      vertex 13.8396 4.1724 1.50354e-015
      vertex 19.1936 -1.08159 -4.56163e-015
    endloop
  endfacet
  facet normal -5.31875e-016 6.12385e-016 -1
    outer loop
      vertex 16.1396 4.17909 2.84321e-016
      vertex 16.1397 4.30157 3.5927e-016
      vertex 21.1323 -3.52071 -7.08642e-015
    endloop
  endfacet
  facet normal -5.31875e-016 6.12385e-016 -1
    outer loop
      vertex 13.8397 4.29487 1.57849e-015
      vertex 14.9829 7.07106 2.67053e-015
      vertex 14.9851 6.03002 2.03186e-015
    endloop
  endfacet
  facet normal -5.31875e-016 6.12385e-016 -1
    outer loop
      vertex 16.1396 4.17909 2.84321e-016
      vertex 19.1936 -1.08159 -4.56163e-015
      vertex 13.8396 4.1724 1.50354e-015
    endloop
  endfacet
  facet normal -5.31875e-016 6.12385e-016 -1
    outer loop
      vertex 11.9656 -3.09108 -1.94779e-015
      vertex 18.0489 -3.07609 -5.17417e-015
      vertex 18.1555 -3.13756 -5.26849e-015
    endloop
  endfacet
  facet normal -5.31875e-016 6.12385e-016 -1
    outer loop
      vertex 11.9656 -3.09108 -1.94779e-015
      vertex 18.1555 -3.13756 -5.26849e-015
      vertex 21.1323 -3.52071 -7.08642e-015
    endloop
  endfacet
  facet normal -5.31875e-016 6.12385e-016 -1
    outer loop
      vertex 14.9851 6.03002 2.03186e-015
      vertex 14.9829 7.07106 2.67053e-015
      vertex 16.1397 4.30157 3.5927e-016
    endloop
  endfacet
  facet normal -5.31875e-016 6.12385e-016 -1
    outer loop
      vertex 11.9656 -3.09108 -1.94779e-015
      vertex 21.1323 -3.52071 -7.08642e-015
      vertex 11.8603 -3.15272 -1.92953e-015
    endloop
  endfacet
  facet normal -0.817634 0.469428 0.333333
    outer loop
      vertex 15 -3.77236e-007 10
      vertex 14.9829 7.07106 2.67053e-015
      vertex 8.88484 -3.55035 -5.90456e-016
    endloop
  endfacet
  facet normal 0.815354 0.473378 0.333334
    outer loop
      vertex 15 -3.77236e-007 10
      vertex 21.1323 -3.52071 -7.08642e-015
      vertex 14.9829 7.07106 2.67053e-015
    endloop
  endfacet
  facet normal 0.835042 -0.412348 -0.364244
    outer loop
      vertex 10.7053 -1.16352 -9.70567e-017
      vertex 13.0253 0.183456 3.79393
      vertex 12.6042 -1.39064 4.61034
    endloop
  endfacet
  facet normal 0.835042 -0.412348 -0.364244
    outer loop
      vertex 9.78487 -3.02746 -7.48958e-016
      vertex 10.7053 -1.16352 -9.70567e-017
      vertex 12.6042 -1.39064 4.61034
    endloop
  endfacet
  facet normal 0.501095 -0.865392 0.000816498
    outer loop
      vertex 10.8118 -1.10188 -1.15929e-016
      vertex 13.0963 0.224508 3.73594
      vertex 13.0253 0.183456 3.79393
    endloop
  endfacet
  facet normal 0.501095 -0.865392 0.000816498
    outer loop
      vertex 10.7053 -1.16352 -9.70567e-017
      vertex 10.8118 -1.10188 -1.15929e-016
      vertex 13.0253 0.183456 3.79393
    endloop
  endfacet
  facet normal -0.706279 -0.409678 0.577351
    outer loop
      vertex 14.2504 -1.76454 3.73637
      vertex 13.0963 0.224508 3.73594
      vertex 11.9656 -3.09108 -1.94779e-015
    endloop
  endfacet
  facet normal -0.706279 -0.409678 0.577351
    outer loop
      vertex 11.9656 -3.09108 -1.94779e-015
      vertex 13.0963 0.224508 3.73594
      vertex 10.8118 -1.10188 -1.15929e-016
    endloop
  endfacet
  facet normal -0.505183 0.863008 0.00253008
    outer loop
      vertex 14.2504 -1.76454 3.73637
      vertex 11.9656 -3.09108 -1.94779e-015
      vertex 14.1803 -1.80576 3.79388
    endloop
  endfacet
  facet normal -0.505183 0.863008 0.00253008
    outer loop
      vertex 14.1803 -1.80576 3.79388
      vertex 11.9656 -3.09108 -1.94779e-015
      vertex 11.8603 -3.15272 -1.92953e-015
    endloop
  endfacet
  facet normal 0.056102 0.929575 -0.364339
    outer loop
      vertex 14.1803 -1.80576 3.79388
      vertex 11.8603 -3.15272 -1.92953e-015
      vertex 12.6042 -1.39064 4.61034
    endloop
  endfacet
  facet normal 0.056102 0.929575 -0.364339
    outer loop
      vertex 12.6042 -1.39064 4.61034
      vertex 11.8603 -3.15272 -1.92953e-015
      vertex 9.78487 -3.02746 -7.48958e-016
    endloop
  endfacet
  facet normal 0.999997 -0.000803147 -0.00227776
    outer loop
      vertex 13.8397 4.29487 1.57849e-015
      vertex 13.8462 1.61238 3.79362
      vertex 13.846 1.53073 3.73589
    endloop
  endfacet
  facet normal 0.999997 -0.000803147 -0.00227776
    outer loop
      vertex 13.8396 4.1724 1.50354e-015
      vertex 13.8397 4.29487 1.57849e-015
      vertex 13.846 1.53073 3.73589
    endloop
  endfacet
  facet normal 0.777269 -0.513087 -0.364136
    outer loop
      vertex 14.9851 6.03002 2.03186e-015
      vertex 14.9929 2.77007 4.61027
      vertex 13.8462 1.61238 3.79362
    endloop
  endfacet
  facet normal 0.777269 -0.513087 -0.364136
    outer loop
      vertex 13.8397 4.29487 1.57849e-015
      vertex 14.9851 6.03002 2.03186e-015
      vertex 13.8462 1.61238 3.79362
    endloop
  endfacet
  facet normal -0.774349 -0.517269 -0.36444
    outer loop
      vertex 16.1462 1.6187 3.79416
      vertex 14.9929 2.77007 4.61027
      vertex 16.1397 4.30157 3.5927e-016
    endloop
  endfacet
  facet normal -0.774349 -0.517269 -0.36444
    outer loop
      vertex 16.1397 4.30157 3.5927e-016
      vertex 14.9929 2.77007 4.61027
      vertex 14.9851 6.03002 2.03186e-015
    endloop
  endfacet
  facet normal -0.999997 0.000803147 0.00227776
    outer loop
      vertex 16.1462 1.6187 3.79416
      vertex 16.1397 4.30157 3.5927e-016
      vertex 16.146 1.53705 3.73642
    endloop
  endfacet
  facet normal -0.999997 0.000803147 0.00227776
    outer loop
      vertex 16.146 1.53705 3.73642
      vertex 16.1397 4.30157 3.5927e-016
      vertex 16.1396 4.17909 2.84321e-016
    endloop
  endfacet
  facet normal -0.00237696 0.816493 0.577351
    outer loop
      vertex 16.146 1.53705 3.73642
      vertex 16.1396 4.17909 2.84321e-016
      vertex 13.846 1.53073 3.73589
    endloop
  endfacet
  facet normal -0.00237696 0.816493 0.577351
    outer loop
      vertex 13.846 1.53073 3.73589
      vertex 16.1396 4.17909 2.84321e-016
      vertex 13.8396 4.1724 1.50354e-015
    endloop
  endfacet
  facet normal 0.499699 0.866198 0.00146541
    outer loop
      vertex 18.1555 -3.13756 -5.26849e-015
      vertex 18.0489 -3.07609 -5.17417e-015
      vertex 15.8288 -1.80176 3.79412
    endloop
  endfacet
  facet normal 0.499699 0.866198 0.00146541
    outer loop
      vertex 15.8288 -1.80176 3.79412
      vertex 18.0489 -3.07609 -5.17417e-015
      vertex 15.7578 -1.76071 3.73613
    endloop
  endfacet
  facet normal 0.708148 -0.406439 0.577351
    outer loop
      vertex 18.0489 -3.07609 -5.17417e-015
      vertex 19.1936 -1.08159 -4.56163e-015
      vertex 16.9026 0.233745 3.73598
    endloop
  endfacet
  facet normal 0.708148 -0.406439 0.577351
    outer loop
      vertex 15.7578 -1.76071 3.73613
      vertex 18.0489 -3.07609 -5.17417e-015
      vertex 16.9026 0.233745 3.73598
    endloop
  endfacet
  facet normal -0.499699 -0.866198 -0.00146541
    outer loop
      vertex 19.1936 -1.08159 -4.56163e-015
      vertex 19.3002 -1.14306 -4.65594e-015
      vertex 16.9736 0.192692 3.79397
    endloop
  endfacet
  facet normal -0.499699 -0.866198 -0.00146541
    outer loop
      vertex 16.9026 0.233745 3.73598
      vertex 19.1936 -1.08159 -4.56163e-015
      vertex 16.9736 0.192692 3.79397
    endloop
  endfacet
  facet normal -0.833027 -0.41642 -0.364225
    outer loop
      vertex 20.2297 -3.00246 -6.28899e-015
      vertex 17.4025 -1.37928 4.6104
      vertex 19.3002 -1.14306 -4.65594e-015
    endloop
  endfacet
  facet normal -0.833027 -0.41642 -0.364225
    outer loop
      vertex 19.3002 -1.14306 -4.65594e-015
      vertex 17.4025 -1.37928 4.6104
      vertex 16.9736 0.192692 3.79397
    endloop
  endfacet
  facet normal -0.0605276 0.929312 -0.364301
    outer loop
      vertex 20.2297 -3.00246 -6.28899e-015
      vertex 18.1555 -3.13756 -5.26849e-015
      vertex 17.4025 -1.37928 4.6104
    endloop
  endfacet
  facet normal -0.0605276 0.929312 -0.364301
    outer loop
      vertex 17.4025 -1.37928 4.6104
      vertex 18.1555 -3.13756 -5.26849e-015
      vertex 15.8288 -1.80176 3.79412
    endloop
  endfacet
  facet normal -0.499301 -0.289884 -0.816496
    outer loop
      vertex 13.0963 0.224508 3.73594
      vertex 14.2504 -1.76454 3.73637
      vertex 13.0253 0.183456 3.79393
    endloop
  endfacet
  facet normal -0.499301 -0.289884 -0.816496
    outer loop
      vertex 13.0253 0.183456 3.79393
      vertex 14.2504 -1.76454 3.73637
      vertex 14.1803 -1.80576 3.79388
    endloop
  endfacet
  facet normal -0.499301 -0.289884 -0.816496
    outer loop
      vertex 13.0253 0.183456 3.79393
      vertex 14.1803 -1.80576 3.79388
      vertex 12.6042 -1.39064 4.61034
    endloop
  endfacet
  facet normal -0.00139609 0.577349 -0.816496
    outer loop
      vertex 14.9929 2.77007 4.61027
      vertex 16.1462 1.6187 3.79416
      vertex 13.8462 1.61238 3.79362
    endloop
  endfacet
  facet normal -0.00139609 0.577349 -0.816496
    outer loop
      vertex 13.8462 1.61238 3.79362
      vertex 16.1462 1.6187 3.79416
      vertex 16.146 1.53705 3.73642
    endloop
  endfacet
  facet normal -0.00139609 0.577349 -0.816496
    outer loop
      vertex 13.8462 1.61238 3.79362
      vertex 16.146 1.53705 3.73642
      vertex 13.846 1.53073 3.73589
    endloop
  endfacet
  facet normal 0.500698 -0.287465 -0.816496
    outer loop
      vertex 16.9736 0.192692 3.79397
      vertex 17.4025 -1.37928 4.6104
      vertex 16.9026 0.233745 3.73598
    endloop
  endfacet
  facet normal 0.500698 -0.287465 -0.816496
    outer loop
      vertex 16.9026 0.233745 3.73598
      vertex 17.4025 -1.37928 4.6104
      vertex 15.8288 -1.80176 3.79412
    endloop
  endfacet
  facet normal 0.500698 -0.287465 -0.816496
    outer loop
      vertex 16.9026 0.233745 3.73598
      vertex 15.8288 -1.80176 3.79412
      vertex 15.7578 -1.76071 3.73613
    endloop
  endfacet
  facet normal -0.816291 0.47176 0.333334
    outer loop
      vertex 30 -2.38454e-015 10
      vertex 30.0031 7.07107 2.51224e-015
      vertex 23.8747 -3.53287 -8.53332e-016
    endloop
  endfacet
  facet normal -0.000410462 -0.942809 0.333333
    outer loop
      vertex 36.1222 -3.5382 -5.08253e-015
      vertex 30 -2.38454e-015 10
      vertex 23.8747 -3.53287 -8.53332e-016
    endloop
  endfacet
  facet normal -3.45087e-016 5.16825e-016 -1
    outer loop
      vertex 31.1515 4.29752 6.82501e-016
      vertex 30.0031 7.07107 2.51224e-015
      vertex 36.1222 -3.5382 -5.08253e-015
    endloop
  endfacet
  facet normal -3.45087e-016 5.16825e-016 -1
    outer loop
      vertex 23.8747 -3.53287 -8.53332e-016
      vertex 30.0031 7.07107 2.51224e-015
      vertex 25.7024 -1.15142 -2.53254e-016
    endloop
  endfacet
  facet normal -3.45087e-016 5.16825e-016 -1
    outer loop
      vertex 23.8747 -3.53287 -8.53332e-016
      vertex 25.7024 -1.15142 -2.53254e-016
      vertex 24.7769 -3.0131 -8.96029e-016
    endloop
  endfacet
  facet normal -3.45087e-016 5.16825e-016 -1
    outer loop
      vertex 25.8079 -1.09002 -2.57907e-016
      vertex 33.0405 -3.08505 -3.78488e-015
      vertex 26.9576 -3.08257 -1.68445e-015
    endloop
  endfacet
  facet normal -3.45087e-016 5.16825e-016 -1
    outer loop
      vertex 23.8747 -3.53287 -8.53332e-016
      vertex 24.7769 -3.0131 -8.96029e-016
      vertex 26.851 -3.14397 -1.6794e-015
    endloop
  endfacet
  facet normal -3.45087e-016 5.16825e-016 -1
    outer loop
      vertex 23.8747 -3.53287 -8.53332e-016
      vertex 26.851 -3.14397 -1.6794e-015
      vertex 36.1222 -3.5382 -5.08253e-015
    endloop
  endfacet
  facet normal -3.45087e-016 5.16825e-016 -1
    outer loop
      vertex 35.2211 -3.0171 -4.50226e-015
      vertex 36.1222 -3.5382 -5.08253e-015
      vertex 33.1459 -3.14648 -3.85301e-015
    endloop
  endfacet
  facet normal -3.45087e-016 5.16825e-016 -1
    outer loop
      vertex 25.7024 -1.15142 -2.53254e-016
      vertex 30.0031 7.07107 2.51224e-015
      vertex 25.8079 -1.09002 -2.57907e-016
    endloop
  endfacet
  facet normal -3.45087e-016 5.16825e-016 -1
    outer loop
      vertex 31.1515 4.17505 6.19197e-016
      vertex 34.297 -1.15499 -3.22097e-015
      vertex 34.1904 -1.09356 -3.15245e-015
    endloop
  endfacet
  facet normal -3.45087e-016 5.16825e-016 -1
    outer loop
      vertex 25.8079 -1.09002 -2.57907e-016
      vertex 30.0031 7.07107 2.51224e-015
      vertex 28.8515 4.29897 1.47695e-015
    endloop
  endfacet
  facet normal -3.45087e-016 5.16825e-016 -1
    outer loop
      vertex 34.297 -1.15499 -3.22097e-015
      vertex 36.1222 -3.5382 -5.08253e-015
      vertex 35.2211 -3.0171 -4.50226e-015
    endloop
  endfacet
  facet normal -3.45087e-016 5.16825e-016 -1
    outer loop
      vertex 25.8079 -1.09002 -2.57907e-016
      vertex 28.8515 4.29897 1.47695e-015
      vertex 28.8515 4.17649 1.41364e-015
    endloop
  endfacet
  facet normal -3.45087e-016 5.16825e-016 -1
    outer loop
      vertex 33.0405 -3.08505 -3.78488e-015
      vertex 25.8079 -1.09002 -2.57907e-016
      vertex 28.8515 4.17649 1.41364e-015
    endloop
  endfacet
  facet normal -3.45087e-016 5.16825e-016 -1
    outer loop
      vertex 34.297 -1.15499 -3.22097e-015
      vertex 31.1515 4.17505 6.19197e-016
      vertex 36.1222 -3.5382 -5.08253e-015
    endloop
  endfacet
  facet normal -3.45087e-016 5.16825e-016 -1
    outer loop
      vertex 33.0405 -3.08505 -3.78488e-015
      vertex 28.8515 4.17649 1.41364e-015
      vertex 34.1904 -1.09356 -3.15245e-015
    endloop
  endfacet
  facet normal -3.45087e-016 5.16825e-016 -1
    outer loop
      vertex 31.1515 4.17505 6.19197e-016
      vertex 31.1515 4.29752 6.82501e-016
      vertex 36.1222 -3.5382 -5.08253e-015
    endloop
  endfacet
  facet normal -3.45087e-016 5.16825e-016 -1
    outer loop
      vertex 28.8515 4.29897 1.47695e-015
      vertex 30.0031 7.07107 2.51224e-015
      vertex 30.0022 6.03003 1.9745e-015
    endloop
  endfacet
  facet normal -3.45087e-016 5.16825e-016 -1
    outer loop
      vertex 31.1515 4.17505 6.19197e-016
      vertex 34.1904 -1.09356 -3.15245e-015
      vertex 28.8515 4.17649 1.41364e-015
    endloop
  endfacet
  facet normal -3.45087e-016 5.16825e-016 -1
    outer loop
      vertex 26.9576 -3.08257 -1.68445e-015
      vertex 33.0405 -3.08505 -3.78488e-015
      vertex 33.1459 -3.14648 -3.85301e-015
    endloop
  endfacet
  facet normal -3.45087e-016 5.16825e-016 -1
    outer loop
      vertex 26.9576 -3.08257 -1.68445e-015
      vertex 33.1459 -3.14648 -3.85301e-015
      vertex 36.1222 -3.5382 -5.08253e-015
    endloop
  endfacet
  facet normal -3.45087e-016 5.16825e-016 -1
    outer loop
      vertex 30.0022 6.03003 1.9745e-015
      vertex 30.0031 7.07107 2.51224e-015
      vertex 31.1515 4.29752 6.82501e-016
    endloop
  endfacet
  facet normal -3.45087e-016 5.16825e-016 -1
    outer loop
      vertex 26.9576 -3.08257 -1.68445e-015
      vertex 36.1222 -3.5382 -5.08253e-015
      vertex 26.851 -3.14397 -1.6794e-015
    endloop
  endfacet
  facet normal 0.816702 0.471049 0.333333
    outer loop
      vertex 36.1222 -3.5382 -5.08253e-015
      vertex 30.0031 7.07107 2.51224e-015
      vertex 30 -2.38454e-015 10
    endloop
  endfacet
  facet normal 0.833904 -0.414573 -0.364325
    outer loop
      vertex 25.7024 -1.15142 -2.53254e-016
      vertex 28.0262 0.188877 3.79379
      vertex 27.6008 -1.38437 4.6102
    endloop
  endfacet
  facet normal 0.833904 -0.414573 -0.364325
    outer loop
      vertex 24.7769 -3.0131 -8.96029e-016
      vertex 25.7024 -1.15142 -2.53254e-016
      vertex 27.6008 -1.38437 4.6102
    endloop
  endfacet
  facet normal 0.503218 -0.864154 -0.00294045
    outer loop
      vertex 25.8079 -1.09002 -2.57907e-016
      vertex 28.0964 0.229956 3.73627
      vertex 28.0262 0.188877 3.79379
    endloop
  endfacet
  facet normal 0.503218 -0.864154 -0.00294045
    outer loop
      vertex 25.7024 -1.15142 -2.53254e-016
      vertex 25.8079 -1.09002 -2.57907e-016
      vertex 28.0262 0.188877 3.79379
    endloop
  endfacet
  facet normal -0.707216 -0.408058 0.57735
    outer loop
      vertex 29.246 -1.76266 3.73609
      vertex 28.0964 0.229956 3.73627
      vertex 26.9576 -3.08257 -1.68445e-015
    endloop
  endfacet
  facet normal -0.707216 -0.408058 0.57735
    outer loop
      vertex 26.9576 -3.08257 -1.68445e-015
      vertex 28.0964 0.229956 3.73627
      vertex 25.8079 -1.09002 -2.57907e-016
    endloop
  endfacet
  facet normal -0.499125 0.86653 -0.000406127
    outer loop
      vertex 29.246 -1.76266 3.73609
      vertex 26.9576 -3.08257 -1.68445e-015
      vertex 29.1749 -1.80357 3.79408
    endloop
  endfacet
  facet normal -0.499125 0.86653 -0.000406127
    outer loop
      vertex 29.1749 -1.80357 3.79408
      vertex 26.9576 -3.08257 -1.68445e-015
      vertex 26.851 -3.14397 -1.6794e-015
    endloop
  endfacet
  facet normal 0.0586464 0.929441 -0.364281
    outer loop
      vertex 29.1749 -1.80357 3.79408
      vertex 26.851 -3.14397 -1.6794e-015
      vertex 27.6008 -1.38437 4.6102
    endloop
  endfacet
  facet normal 0.0586464 0.929441 -0.364281
    outer loop
      vertex 27.6008 -1.38437 4.6102
      vertex 26.851 -3.14397 -1.6794e-015
      vertex 24.7769 -3.0131 -8.96029e-016
    endloop
  endfacet
  facet normal 1 0.000146447 0.000411075
    outer loop
      vertex 28.8504 1.53455 3.73627
      vertex 28.8515 4.17649 1.41364e-015
      vertex 28.8515 4.29897 1.47695e-015
    endloop
  endfacet
  facet normal 1 0.000146447 0.000411075
    outer loop
      vertex 28.8503 1.6162 3.794
      vertex 28.8504 1.53455 3.73627
      vertex 28.8515 4.29897 1.47695e-015
    endloop
  endfacet
  facet normal 0.77555 -0.515555 -0.364314
    outer loop
      vertex 28.8515 4.29897 1.47695e-015
      vertex 30.0022 6.03003 1.9745e-015
      vertex 30.0008 2.77008 4.61027
    endloop
  endfacet
  facet normal 0.77555 -0.515555 -0.364314
    outer loop
      vertex 28.8503 1.6162 3.794
      vertex 28.8515 4.29897 1.47695e-015
      vertex 30.0008 2.77008 4.61027
    endloop
  endfacet
  facet normal -0.776074 -0.514805 -0.364261
    outer loop
      vertex 31.1515 4.29752 6.82501e-016
      vertex 31.1503 1.61491 3.79379
      vertex 30.0022 6.03003 1.9745e-015
    endloop
  endfacet
  facet normal -0.776074 -0.514805 -0.364261
    outer loop
      vertex 30.0022 6.03003 1.9745e-015
      vertex 31.1503 1.61491 3.79379
      vertex 30.0008 2.77008 4.61027
    endloop
  endfacet
  facet normal -1 -0.000146447 -0.000411075
    outer loop
      vertex 31.1515 4.17505 6.19197e-016
      vertex 31.1504 1.53326 3.73606
      vertex 31.1515 4.29752 6.82501e-016
    endloop
  endfacet
  facet normal -1 -0.000146447 -0.000411075
    outer loop
      vertex 31.1515 4.29752 6.82501e-016
      vertex 31.1504 1.53326 3.73606
      vertex 31.1503 1.61491 3.79379
    endloop
  endfacet
  facet normal 0.000512658 0.816496 0.57735
    outer loop
      vertex 31.1515 4.17505 6.19197e-016
      vertex 28.8515 4.17649 1.41364e-015
      vertex 31.1504 1.53326 3.73606
    endloop
  endfacet
  facet normal 0.000512658 0.816496 0.57735
    outer loop
      vertex 31.1504 1.53326 3.73606
      vertex 28.8515 4.17649 1.41364e-015
      vertex 28.8504 1.53455 3.73627
    endloop
  endfacet
  facet normal 0.50347 0.864009 0.00253035
    outer loop
      vertex 33.1459 -3.14648 -3.85301e-015
      vertex 33.0405 -3.08505 -3.78488e-015
      vertex 30.8233 -1.80413 3.79388
    endloop
  endfacet
  facet normal 0.50347 0.864009 0.00253035
    outer loop
      vertex 30.8233 -1.80413 3.79388
      vertex 33.0405 -3.08505 -3.78488e-015
      vertex 30.7531 -1.76305 3.73637
    endloop
  endfacet
  facet normal 0.707091 -0.408276 0.57735
    outer loop
      vertex 33.0405 -3.08505 -3.78488e-015
      vertex 34.1904 -1.09356 -3.15245e-015
      vertex 31.9032 0.228289 3.73594
    endloop
  endfacet
  facet normal 0.707091 -0.408276 0.57735
    outer loop
      vertex 30.7531 -1.76305 3.73637
      vertex 33.0405 -3.08505 -3.78488e-015
      vertex 31.9032 0.228289 3.73594
    endloop
  endfacet
  facet normal -0.499377 -0.866385 0.000816226
    outer loop
      vertex 34.1904 -1.09356 -3.15245e-015
      vertex 34.297 -1.15499 -3.22097e-015
      vertex 31.9743 0.187377 3.79393
    endloop
  endfacet
  facet normal -0.499377 -0.866385 0.000816226
    outer loop
      vertex 31.9032 0.228289 3.73594
      vertex 34.1904 -1.09356 -3.15245e-015
      vertex 31.9743 0.187377 3.79393
    endloop
  endfacet
  facet normal -0.834223 -0.414004 -0.364244
    outer loop
      vertex 35.2211 -3.0171 -4.50226e-015
      vertex 32.3986 -1.38588 4.61034
      vertex 34.297 -1.15499 -3.22097e-015
    endloop
  endfacet
  facet normal -0.834223 -0.414004 -0.364244
    outer loop
      vertex 34.297 -1.15499 -3.22097e-015
      vertex 32.3986 -1.38588 4.61034
      vertex 31.9743 0.187377 3.79393
    endloop
  endfacet
  facet normal -0.0579464 0.929462 -0.364338
    outer loop
      vertex 35.2211 -3.0171 -4.50226e-015
      vertex 33.1459 -3.14648 -3.85301e-015
      vertex 32.3986 -1.38588 4.61034
    endloop
  endfacet
  facet normal -0.0579464 0.929462 -0.364338
    outer loop
      vertex 32.3986 -1.38588 4.61034
      vertex 33.1459 -3.14648 -3.85301e-015
      vertex 30.8233 -1.80413 3.79388
    endloop
  endfacet
  facet normal -0.500126 -0.288457 -0.816497
    outer loop
      vertex 28.0964 0.229956 3.73627
      vertex 29.246 -1.76266 3.73609
      vertex 28.0262 0.188877 3.79379
    endloop
  endfacet
  facet normal -0.500126 -0.288457 -0.816497
    outer loop
      vertex 28.0262 0.188877 3.79379
      vertex 29.246 -1.76266 3.73609
      vertex 29.1749 -1.80357 3.79408
    endloop
  endfacet
  facet normal -0.500126 -0.288457 -0.816497
    outer loop
      vertex 28.0262 0.188877 3.79379
      vertex 29.1749 -1.80357 3.79408
      vertex 27.6008 -1.38437 4.6102
    endloop
  endfacet
  facet normal 0.00025109 0.57735 -0.816497
    outer loop
      vertex 31.1503 1.61491 3.79379
      vertex 31.1504 1.53326 3.73606
      vertex 30.0008 2.77008 4.61027
    endloop
  endfacet
  facet normal 0.00025109 0.57735 -0.816497
    outer loop
      vertex 30.0008 2.77008 4.61027
      vertex 31.1504 1.53326 3.73606
      vertex 28.8504 1.53455 3.73627
    endloop
  endfacet
  facet normal 0.00025109 0.57735 -0.816497
    outer loop
      vertex 30.0008 2.77008 4.61027
      vertex 28.8504 1.53455 3.73627
      vertex 28.8503 1.6162 3.794
    endloop
  endfacet
  facet normal 0.499874 -0.288893 -0.816497
    outer loop
      vertex 31.9743 0.187377 3.79393
      vertex 32.3986 -1.38588 4.61034
      vertex 31.9032 0.228289 3.73594
    endloop
  endfacet
  facet normal 0.499874 -0.288893 -0.816497
    outer loop
      vertex 31.9032 0.228289 3.73594
      vertex 32.3986 -1.38588 4.61034
      vertex 30.8233 -1.80413 3.79388
    endloop
  endfacet
  facet normal 0.499874 -0.288893 -0.816497
    outer loop
      vertex 31.9032 0.228289 3.73594
      vertex 30.8233 -1.80413 3.79388
      vertex 30.7531 -1.76305 3.73637
    endloop
  endfacet
  facet normal -0.88435 -0.326825 0.333333
    outer loop
      vertex 43.8065 -6.96961 1.05002e-015
      vertex 45 -4.80051e-007 10
      vertex 39.5609 4.51843 1.10097e-015
    endloop
  endfacet
  facet normal -6.08639e-020 4.41246e-018 -1
    outer loop
      vertex 45.4077 -4.43039 1.06112e-015
      vertex 51.6326 2.45117 1.09111e-015
      vertex 43.8065 -6.96961 1.05002e-015
    endloop
  endfacet
  facet normal -6.08639e-020 4.41246e-018 -1
    outer loop
      vertex 43.9818 -5.94344 1.05453e-015
      vertex 43.8065 -6.96961 1.05002e-015
      vertex 43.1406 -4.04261 1.06297e-015
    endloop
  endfacet
  facet normal -6.08639e-020 4.41246e-018 -1
    outer loop
      vertex 39.5609 4.51843 1.10097e-015
      vertex 40.3618 3.85339 1.09798e-015
      vertex 40.959 1.86152 1.08916e-015
    endloop
  endfacet
  facet normal -6.08639e-020 4.41246e-018 -1
    outer loop
      vertex 39.5609 4.51843 1.10097e-015
      vertex 40.959 1.86152 1.08916e-015
      vertex 43.8065 -6.96961 1.05002e-015
    endloop
  endfacet
  facet normal -6.08639e-020 4.41246e-018 -1
    outer loop
      vertex 49.3151 0.368302 1.08206e-015
      vertex 41.0536 1.78378 1.08881e-015
      vertex 48.5188 2.5261 1.09163e-015
    endloop
  endfacet
  facet normal -6.08639e-020 4.41246e-018 -1
    outer loop
      vertex 42.4282 3.63114 1.09688e-015
      vertex 51.6326 2.45117 1.09111e-015
      vertex 42.5228 3.5534 1.09653e-015
    endloop
  endfacet
  facet normal -6.08639e-020 4.41246e-018 -1
    outer loop
      vertex 39.5609 4.51843 1.10097e-015
      vertex 51.6326 2.45117 1.09111e-015
      vertex 42.4282 3.63114 1.09688e-015
    endloop
  endfacet
  facet normal -6.08639e-020 4.41246e-018 -1
    outer loop
      vertex 39.5609 4.51843 1.10097e-015
      vertex 42.4282 3.63114 1.09688e-015
      vertex 40.3618 3.85339 1.09798e-015
    endloop
  endfacet
  facet normal -6.08639e-020 4.41246e-018 -1
    outer loop
      vertex 41.0536 1.78378 1.08881e-015
      vertex 43.1613 -3.92191 1.0635e-015
      vertex 43.1406 -4.04261 1.06297e-015
    endloop
  endfacet
  facet normal -6.08639e-020 4.41246e-018 -1
    outer loop
      vertex 41.0536 1.78378 1.08881e-015
      vertex 43.1406 -4.04261 1.06297e-015
      vertex 43.8065 -6.96961 1.05002e-015
    endloop
  endfacet
  facet normal -6.08639e-020 4.41246e-018 -1
    outer loop
      vertex 48.6336 2.56893 1.09181e-015
      vertex 51.6326 2.45117 1.09111e-015
      vertex 50.6563 2.08996 1.08958e-015
    endloop
  endfacet
  facet normal -6.08639e-020 4.41246e-018 -1
    outer loop
      vertex 45.4284 -4.30969 1.06166e-015
      vertex 51.6326 2.45117 1.09111e-015
      vertex 45.4077 -4.43039 1.06112e-015
    endloop
  endfacet
  facet normal -6.08639e-020 4.41246e-018 -1
    outer loop
      vertex 43.9818 -5.94344 1.05453e-015
      vertex 45.4077 -4.43039 1.06112e-015
      vertex 43.8065 -6.96961 1.05002e-015
    endloop
  endfacet
  facet normal -6.08639e-020 4.41246e-018 -1
    outer loop
      vertex 49.4298 0.411127 1.08224e-015
      vertex 51.6326 2.45117 1.09111e-015
      vertex 45.4284 -4.30969 1.06166e-015
    endloop
  endfacet
  facet normal -6.08639e-020 4.41246e-018 -1
    outer loop
      vertex 42.5228 3.5534 1.09653e-015
      vertex 51.6326 2.45117 1.09111e-015
      vertex 48.6336 2.56893 1.09181e-015
    endloop
  endfacet
  facet normal -6.08639e-020 4.41246e-018 -1
    outer loop
      vertex 42.5228 3.5534 1.09653e-015
      vertex 48.6336 2.56893 1.09181e-015
      vertex 41.0536 1.78378 1.08881e-015
    endloop
  endfacet
  facet normal -6.08639e-020 4.41246e-018 -1
    outer loop
      vertex 49.3151 0.368302 1.08206e-015
      vertex 43.1613 -3.92191 1.0635e-015
      vertex 41.0536 1.78378 1.08881e-015
    endloop
  endfacet
  facet normal -6.08639e-020 4.41246e-018 -1
    outer loop
      vertex 48.6336 2.56893 1.09181e-015
      vertex 48.5188 2.5261 1.09163e-015
      vertex 41.0536 1.78378 1.08881e-015
    endloop
  endfacet
  facet normal -6.08639e-020 4.41246e-018 -1
    outer loop
      vertex 50.6563 2.08996 1.08958e-015
      vertex 51.6326 2.45117 1.09111e-015
      vertex 49.4298 0.411127 1.08224e-015
    endloop
  endfacet
  facet normal -6.08639e-020 4.41246e-018 -1
    outer loop
      vertex 43.1613 -3.92191 1.0635e-015
      vertex 49.3151 0.368302 1.08206e-015
      vertex 45.4284 -4.30969 1.06166e-015
    endloop
  endfacet
  facet normal -6.08639e-020 4.41246e-018 -1
    outer loop
      vertex 49.3151 0.368302 1.08206e-015
      vertex 49.4298 0.411127 1.08224e-015
      vertex 45.4284 -4.30969 1.06166e-015
    endloop
  endfacet
  facet normal -6.08639e-020 4.41246e-018 -1
    outer loop
      vertex 41.0536 1.78378 1.08881e-015
      vertex 43.8065 -6.96961 1.05002e-015
      vertex 40.959 1.86152 1.08916e-015
    endloop
  endfacet
  facet normal 0.159138 0.929282 0.333333
    outer loop
      vertex 45 -4.80051e-007 10
      vertex 51.6326 2.45117 1.09111e-015
      vertex 39.5609 4.51843 1.10097e-015
    endloop
  endfacet
  facet normal 0.725213 -0.602457 0.333334
    outer loop
      vertex 51.6326 2.45117 1.09111e-015
      vertex 45 -4.80051e-007 10
      vertex 43.8065 -6.96961 1.05002e-015
    endloop
  endfacet
  facet normal 0.892037 0.267425 -0.364353
    outer loop
      vertex 42.8694 1.77028 4.61027
      vertex 43.0224 0.147351 3.79373
      vertex 40.959 1.86152 1.08916e-015
    endloop
  endfacet
  facet normal 0.892037 0.267425 -0.364353
    outer loop
      vertex 40.3618 3.85339 1.09798e-015
      vertex 42.8694 1.77028 4.61027
      vertex 40.959 1.86152 1.08916e-015
    endloop
  endfacet
  facet normal -0.0995962 -0.925971 -0.364222
    outer loop
      vertex 42.4282 3.63114 1.09688e-015
      vertex 44.4918 1.91683 3.79405
      vertex 42.8694 1.77028 4.61027
    endloop
  endfacet
  facet normal -0.0995962 -0.925971 -0.364222
    outer loop
      vertex 40.3618 3.85339 1.09798e-015
      vertex 42.4282 3.63114 1.09688e-015
      vertex 42.8694 1.77028 4.61027
    endloop
  endfacet
  facet normal -0.634739 -0.772717 -0.00390631
    outer loop
      vertex 42.5228 3.5534 1.09653e-015
      vertex 44.555 1.86517 3.73632
      vertex 44.4918 1.91683 3.79405
    endloop
  endfacet
  facet normal -0.634739 -0.772717 -0.00390631
    outer loop
      vertex 42.4282 3.63114 1.09688e-015
      vertex 42.5228 3.5534 1.09653e-015
      vertex 44.4918 1.91683 3.79405
    endloop
  endfacet
  facet normal -0.628209 0.521556 0.57735
    outer loop
      vertex 44.555 1.86517 3.73632
      vertex 42.5228 3.5534 1.09653e-015
      vertex 43.0857 0.0956957 3.73599
    endloop
  endfacet
  facet normal -0.628209 0.521556 0.57735
    outer loop
      vertex 43.0857 0.0956957 3.73599
      vertex 42.5228 3.5534 1.09653e-015
      vertex 41.0536 1.78378 1.08881e-015
    endloop
  endfacet
  facet normal 0.634739 0.772717 0.00390631
    outer loop
      vertex 43.0857 0.0956957 3.73599
      vertex 41.0536 1.78378 1.08881e-015
      vertex 43.0224 0.147351 3.79373
    endloop
  endfacet
  facet normal 0.634739 0.772717 0.00390631
    outer loop
      vertex 43.0224 0.147351 3.79373
      vertex 41.0536 1.78378 1.08881e-015
      vertex 40.959 1.86152 1.08916e-015
    endloop
  endfacet
  facet normal -0.137662 -0.804808 0.57735
    outer loop
      vertex 45.4284 -4.30969 1.06166e-015
      vertex 45.8743 -1.7058 3.73606
      vertex 43.6073 -1.31788 3.73627
    endloop
  endfacet
  facet normal -0.137662 -0.804808 0.57735
    outer loop
      vertex 43.1613 -3.92191 1.0635e-015
      vertex 45.4284 -4.30969 1.06166e-015
      vertex 43.6073 -1.31788 3.73627
    endloop
  endfacet
  facet normal 0.985554 -0.169363 0.000411973
    outer loop
      vertex 43.1613 -3.92191 1.0635e-015
      vertex 43.6073 -1.31788 3.73627
      vertex 43.5934 -1.39834 3.794
    endloop
  endfacet
  facet normal 0.985554 -0.169363 0.000411973
    outer loop
      vertex 43.1406 -4.04261 1.06297e-015
      vertex 43.1613 -3.92191 1.0635e-015
      vertex 43.5934 -1.39834 3.794
    endloop
  endfacet
  facet normal -0.985554 0.169363 -0.000411973
    outer loop
      vertex 45.8743 -1.7058 3.73606
      vertex 45.4284 -4.30969 1.06166e-015
      vertex 45.8605 -1.78627 3.79379
    endloop
  endfacet
  facet normal -0.985554 0.169363 -0.000411973
    outer loop
      vertex 45.8605 -1.78627 3.79379
      vertex 45.4284 -4.30969 1.06166e-015
      vertex 45.4077 -4.43039 1.06112e-015
    endloop
  endfacet
  facet normal -0.677767 0.638707 -0.364261
    outer loop
      vertex 45.8605 -1.78627 3.79379
      vertex 45.4077 -4.43039 1.06112e-015
      vertex 44.5321 -2.73027 4.61027
    endloop
  endfacet
  facet normal -0.677767 0.638707 -0.364261
    outer loop
      vertex 44.5321 -2.73027 4.61027
      vertex 45.4077 -4.43039 1.06112e-015
      vertex 43.9818 -5.94344 1.05453e-015
    endloop
  endfacet
  facet normal 0.851607 0.376883 -0.364313
    outer loop
      vertex 43.5934 -1.39834 3.794
      vertex 44.5321 -2.73027 4.61027
      vertex 43.9818 -5.94344 1.05453e-015
    endloop
  endfacet
  facet normal 0.851607 0.376883 -0.364313
    outer loop
      vertex 43.1406 -4.04261 1.06297e-015
      vertex 43.5934 -1.39834 3.794
      vertex 43.9818 -5.94344 1.05453e-015
    endloop
  endfacet
  facet normal 0.349668 -0.936871 0.00227893
    outer loop
      vertex 48.5188 2.5261 1.09163e-015
      vertex 48.6336 2.56893 1.09181e-015
      vertex 46.117 1.63892 3.79415
    endloop
  endfacet
  facet normal 0.349668 -0.936871 0.00227893
    outer loop
      vertex 46.0406 1.61024 3.73642
      vertex 48.5188 2.5261 1.09163e-015
      vertex 46.117 1.63892 3.79415
    endloop
  endfacet
  facet normal -0.214578 -0.906168 -0.364438
    outer loop
      vertex 48.6336 2.56893 1.09181e-015
      vertex 50.6563 2.08996 1.08958e-015
      vertex 47.5984 0.959907 4.61027
    endloop
  endfacet
  facet normal -0.214578 -0.906168 -0.364438
    outer loop
      vertex 46.117 1.63892 3.79415
      vertex 48.6336 2.56893 1.09181e-015
      vertex 47.5984 0.959907 4.61027
    endloop
  endfacet
  facet normal -0.752044 0.549395 -0.364136
    outer loop
      vertex 50.6563 2.08996 1.08958e-015
      vertex 49.4298 0.411127 1.08224e-015
      vertex 47.5984 0.959907 4.61027
    endloop
  endfacet
  facet normal -0.752044 0.549395 -0.364136
    outer loop
      vertex 47.5984 0.959907 4.61027
      vertex 49.4298 0.411127 1.08224e-015
      vertex 46.9136 -0.518753 3.79362
    endloop
  endfacet
  facet normal -0.349668 0.936871 -0.00227893
    outer loop
      vertex 49.4298 0.411127 1.08224e-015
      vertex 49.3151 0.368302 1.08206e-015
      vertex 46.9136 -0.518753 3.79362
    endloop
  endfacet
  facet normal -0.349668 0.936871 -0.00227893
    outer loop
      vertex 46.9136 -0.518753 3.79362
      vertex 49.3151 0.368302 1.08206e-015
      vertex 46.8372 -0.547427 3.73589
    endloop
  endfacet
  facet normal 0.766009 0.282661 0.57735
    outer loop
      vertex 46.8372 -0.547427 3.73589
      vertex 49.3151 0.368302 1.08206e-015
      vertex 48.5188 2.5261 1.09163e-015
    endloop
  endfacet
  facet normal 0.766009 0.282661 0.57735
    outer loop
      vertex 46.0406 1.61024 3.73642
      vertex 46.8372 -0.547427 3.73589
      vertex 48.5188 2.5261 1.09163e-015
    endloop
  endfacet
  facet normal -0.4441 0.368928 -0.816497
    outer loop
      vertex 44.555 1.86517 3.73632
      vertex 43.0857 0.0956957 3.73599
      vertex 44.4918 1.91683 3.79405
    endloop
  endfacet
  facet normal -0.4441 0.368928 -0.816497
    outer loop
      vertex 44.4918 1.91683 3.79405
      vertex 43.0857 0.0956957 3.73599
      vertex 43.0224 0.147351 3.79373
    endloop
  endfacet
  facet normal -0.4441 0.368928 -0.816497
    outer loop
      vertex 44.4918 1.91683 3.79405
      vertex 43.0224 0.147351 3.79373
      vertex 42.8694 1.77028 4.61027
    endloop
  endfacet
  facet normal -0.0974501 -0.569066 -0.816497
    outer loop
      vertex 45.8743 -1.7058 3.73606
      vertex 45.8605 -1.78627 3.79379
      vertex 43.6073 -1.31788 3.73627
    endloop
  endfacet
  facet normal -0.0974501 -0.569066 -0.816497
    outer loop
      vertex 43.6073 -1.31788 3.73627
      vertex 45.8605 -1.78627 3.79379
      vertex 44.5321 -2.73027 4.61027
    endloop
  endfacet
  facet normal -0.0974501 -0.569066 -0.816497
    outer loop
      vertex 43.6073 -1.31788 3.73627
      vertex 44.5321 -2.73027 4.61027
      vertex 43.5934 -1.39834 3.794
    endloop
  endfacet
  facet normal 0.541551 0.200137 -0.816497
    outer loop
      vertex 47.5984 0.959907 4.61027
      vertex 46.9136 -0.518753 3.79362
      vertex 46.117 1.63892 3.79415
    endloop
  endfacet
  facet normal 0.541551 0.200137 -0.816497
    outer loop
      vertex 46.117 1.63892 3.79415
      vertex 46.9136 -0.518753 3.79362
      vertex 46.8372 -0.547427 3.73589
    endloop
  endfacet
  facet normal 0.541551 0.200137 -0.816497
    outer loop
      vertex 46.117 1.63892 3.79415
      vertex 46.8372 -0.547427 3.73589
      vertex 46.0406 1.61024 3.73642
    endloop
  endfacet
endsolid OpenSCAD_Model
