solid OpenSCAD_Model
  facet normal 6.21267e-007 0.816497 0.57735
    outer loop
      vertex 1.00029 -31.2472 1.79959
      vertex 0.99963 -30.0101 0.0501449
      vertex -2.32648e-007 -32.2474 3.21421
    endloop
  endfacet
  facet normal 6.21267e-007 0.816497 0.57735
    outer loop
      vertex 1.00029 -31.2472 1.79959
      vertex 1.00032 -29.975 0.000500954
      vertex 0.99963 -30.0101 0.0501449
    endloop
  endfacet
  facet normal 6.21267e-007 0.816497 0.57735
    outer loop
      vertex -2.32648e-007 -32.2474 3.21421
      vertex -0.000218986 -31.0101 1.46441
      vertex -0.999877 -30.0105 0.0507586
    endloop
  endfacet
  facet normal 6.21267e-007 0.816497 0.57735
    outer loop
      vertex -0.999877 -30.0105 0.0507586
      vertex -1 -29.975 0.000539268
      vertex -1.00003 -31.2474 1.79996
    endloop
  endfacet
  facet normal 6.21267e-007 0.816497 0.57735
    outer loop
      vertex -0.999877 -30.0105 0.0507586
      vertex -1.00003 -31.2474 1.79996
      vertex -2.32648e-007 -32.2474 3.21421
    endloop
  endfacet
  facet normal 6.21267e-007 0.816497 0.57735
    outer loop
      vertex -0.000218986 -31.0101 1.46441
      vertex -2.32648e-007 -32.2474 3.21421
      vertex 0.99963 -30.0101 0.0501449
    endloop
  endfacet
  facet normal -0.816496 -4.81015e-009 0.577351
    outer loop
      vertex 1.83575e-007 -67.7526 3.21421
      vertex -2.32648e-007 -32.2474 3.21421
      vertex -1.00003 -68.7526 1.79995
    endloop
  endfacet
  facet normal -0.816496 -4.81015e-009 0.577351
    outer loop
      vertex -1.00003 -68.7526 1.79995
      vertex -2.32648e-007 -32.2474 3.21421
      vertex -1.00003 -31.2474 1.79996
    endloop
  endfacet
  facet normal -1 1.67418e-016 -1.54845e-005
    outer loop
      vertex -1.00003 -31.2474 1.79996
      vertex -1 -29.975 0.000539268
      vertex -1.00003 -68.7526 1.79995
    endloop
  endfacet
  facet normal -1 1.67418e-016 -1.54845e-005
    outer loop
      vertex -1.00003 -68.7526 1.79995
      vertex -1 -29.975 0.000539268
      vertex -1 -70.025 0.000539268
    endloop
  endfacet
  facet normal 0.816496 1.43333e-008 0.577351
    outer loop
      vertex 1.83575e-007 -67.7526 3.21421
      vertex 1.00029 -68.7529 1.79959
      vertex 1.00029 -31.2472 1.79959
    endloop
  endfacet
  facet normal 0.816496 1.43333e-008 0.577351
    outer loop
      vertex -2.32648e-007 -32.2474 3.21421
      vertex 1.83575e-007 -67.7526 3.21421
      vertex 1.00029 -31.2472 1.79959
    endloop
  endfacet
  facet normal -0.999997 1.67683e-016 0.00253769
    outer loop
      vertex -1 -29.975 0.000539268
      vertex -0.999877 -30.0105 0.0507586
      vertex -1 -27 0.000539268
    endloop
  endfacet
  facet normal -0.999997 1.67683e-016 0.00253769
    outer loop
      vertex -1 -27 0.000539268
      vertex -0.999877 -30.0105 0.0507586
      vertex -0.999877 -27 0.0507586
    endloop
  endfacet
  facet normal -1.9154e-005 -1.0419e-016 -1
    outer loop
      vertex -1 -73 0.000539268
      vertex -1 -70.025 0.000539268
      vertex 1.00032 -73 0.000500954
    endloop
  endfacet
  facet normal -1.9154e-005 -1.0419e-016 -1
    outer loop
      vertex 1.00032 -73 0.000500954
      vertex -1 -70.025 0.000539268
      vertex -1 -29.975 0.000539268
    endloop
  endfacet
  facet normal -1.9154e-005 -1.0419e-016 -1
    outer loop
      vertex 1.00032 -73 0.000500954
      vertex -1 -29.975 0.000539268
      vertex -1 -27 0.000539268
    endloop
  endfacet
  facet normal -1.9154e-005 -1.0419e-016 -1
    outer loop
      vertex 1.00032 -29.975 0.000500954
      vertex -1 -27 0.000539268
      vertex 1.00032 -27 0.000500954
    endloop
  endfacet
  facet normal -1.9154e-005 -1.0419e-016 -1
    outer loop
      vertex 1.00032 -70.025 0.000500954
      vertex -1 -27 0.000539268
      vertex 1.00032 -29.975 0.000500954
    endloop
  endfacet
  facet normal -1.9154e-005 -1.0419e-016 -1
    outer loop
      vertex 1.00032 -73 0.000500954
      vertex -1 -27 0.000539268
      vertex 1.00032 -70.025 0.000500954
    endloop
  endfacet
  facet normal -0.816481 1.96853e-016 0.577372
    outer loop
      vertex -0.999877 -30.0105 0.0507586
      vertex -0.000218986 -31.0101 1.46441
      vertex -0.999877 -27 0.0507586
    endloop
  endfacet
  facet normal -0.816481 1.96853e-016 0.577372
    outer loop
      vertex -0.999877 -27 0.0507586
      vertex -0.000218986 -31.0101 1.46441
      vertex -0.000218986 -27 1.46441
    endloop
  endfacet
  facet normal 0.816547 -7.65572e-017 0.577278
    outer loop
      vertex -0.000218986 -27 1.46441
      vertex -0.000218986 -31.0101 1.46441
      vertex 0.99963 -30.0101 0.0501449
    endloop
  endfacet
  facet normal 0.816547 -7.65572e-017 0.577278
    outer loop
      vertex 0.99963 -27 0.0501449
      vertex -0.000218986 -27 1.46441
      vertex 0.99963 -30.0101 0.0501449
    endloop
  endfacet
  facet normal 0.999903 -1.65954e-016 0.0139064
    outer loop
      vertex 0.99963 -27 0.0501449
      vertex 0.99963 -30.0101 0.0501449
      vertex 1.00032 -29.975 0.000500954
    endloop
  endfacet
  facet normal 0.999903 -1.65954e-016 0.0139064
    outer loop
      vertex 1.00032 -27 0.000500954
      vertex 0.99963 -27 0.0501449
      vertex 1.00032 -29.975 0.000500954
    endloop
  endfacet
  facet normal 1 -1.67418e-016 1.54845e-005
    outer loop
      vertex 1.00029 -31.2472 1.79959
      vertex 1.00029 -68.7529 1.79959
      vertex 1.00032 -70.025 0.000500954
    endloop
  endfacet
  facet normal 1 -1.67418e-016 1.54845e-005
    outer loop
      vertex 1.00032 -29.975 0.000500954
      vertex 1.00029 -31.2472 1.79959
      vertex 1.00032 -70.025 0.000500954
    endloop
  endfacet
  facet normal -2.77342e-007 -0.816496 0.577351
    outer loop
      vertex 1.83575e-007 -67.7526 3.21421
      vertex -0.999877 -69.9895 0.0507586
      vertex -0.000218986 -68.9899 1.46441
    endloop
  endfacet
  facet normal -2.77342e-007 -0.816496 0.577351
    outer loop
      vertex 0.99963 -69.9899 0.0501449
      vertex 1.00029 -68.7529 1.79959
      vertex -0.000218986 -68.9899 1.46441
    endloop
  endfacet
  facet normal -2.77342e-007 -0.816496 0.577351
    outer loop
      vertex -1 -70.025 0.000539268
      vertex -0.999877 -69.9895 0.0507586
      vertex -1.00003 -68.7526 1.79995
    endloop
  endfacet
  facet normal -2.77342e-007 -0.816496 0.577351
    outer loop
      vertex 1.00032 -70.025 0.000500954
      vertex 1.00029 -68.7529 1.79959
      vertex 0.99963 -69.9899 0.0501449
    endloop
  endfacet
  facet normal -2.77342e-007 -0.816496 0.577351
    outer loop
      vertex 1.00029 -68.7529 1.79959
      vertex 1.83575e-007 -67.7526 3.21421
      vertex -0.000218986 -68.9899 1.46441
    endloop
  endfacet
  facet normal -2.77342e-007 -0.816496 0.577351
    outer loop
      vertex 1.83575e-007 -67.7526 3.21421
      vertex -1.00003 -68.7526 1.79995
      vertex -0.999877 -69.9895 0.0507586
    endloop
  endfacet
  facet normal -0.999997 1.67683e-016 0.00253769
    outer loop
      vertex -1 -73 0.000539268
      vertex -0.999877 -73 0.0507586
      vertex -1 -70.025 0.000539268
    endloop
  endfacet
  facet normal -0.999997 1.67683e-016 0.00253769
    outer loop
      vertex -1 -70.025 0.000539268
      vertex -0.999877 -73 0.0507586
      vertex -0.999877 -69.9895 0.0507586
    endloop
  endfacet
  facet normal -7.17482e-017 1 -2.72437e-016
    outer loop
      vertex -1 -27 0.000539268
      vertex -0.999877 -27 0.0507586
      vertex 1.00032 -27 0.000500954
    endloop
  endfacet
  facet normal -7.17482e-017 1 -2.72437e-016
    outer loop
      vertex 1.00032 -27 0.000500954
      vertex -0.999877 -27 0.0507586
      vertex -0.000218986 -27 1.46441
    endloop
  endfacet
  facet normal -7.17482e-017 1 -2.72437e-016
    outer loop
      vertex 1.00032 -27 0.000500954
      vertex -0.000218986 -27 1.46441
      vertex 0.99963 -27 0.0501449
    endloop
  endfacet
  facet normal 0.999903 -1.65954e-016 0.0139064
    outer loop
      vertex 0.99963 -69.9899 0.0501449
      vertex 0.99963 -73 0.0501449
      vertex 1.00032 -73 0.000500954
    endloop
  endfacet
  facet normal 0.999903 -1.65954e-016 0.0139064
    outer loop
      vertex 1.00032 -70.025 0.000500954
      vertex 0.99963 -69.9899 0.0501449
      vertex 1.00032 -73 0.000500954
    endloop
  endfacet
  facet normal 7.17482e-017 -1 2.72437e-016
    outer loop
      vertex -0.999877 -73 0.0507586
      vertex -1 -73 0.000539268
      vertex 1.00032 -73 0.000500954
    endloop
  endfacet
  facet normal 7.17482e-017 -1 2.72437e-016
    outer loop
      vertex -0.000218986 -73 1.46441
      vertex -0.999877 -73 0.0507586
      vertex 0.99963 -73 0.0501449
    endloop
  endfacet
  facet normal 7.17482e-017 -1 2.72437e-016
    outer loop
      vertex 0.99963 -73 0.0501449
      vertex -0.999877 -73 0.0507586
      vertex 1.00032 -73 0.000500954
    endloop
  endfacet
  facet normal 0.816547 -7.65572e-017 0.577278
    outer loop
      vertex -0.000218986 -68.9899 1.46441
      vertex -0.000218986 -73 1.46441
      vertex 0.99963 -73 0.0501449
    endloop
  endfacet
  facet normal 0.816547 -7.65572e-017 0.577278
    outer loop
      vertex 0.99963 -69.9899 0.0501449
      vertex -0.000218986 -68.9899 1.46441
      vertex 0.99963 -73 0.0501449
    endloop
  endfacet
  facet normal -0.816481 1.96853e-016 0.577372
    outer loop
      vertex -0.999877 -73 0.0507586
      vertex -0.000218986 -73 1.46441
      vertex -0.999877 -69.9895 0.0507586
    endloop
  endfacet
  facet normal -0.816481 1.96853e-016 0.577372
    outer loop
      vertex -0.999877 -69.9895 0.0507586
      vertex -0.000218986 -73 1.46441
      vertex -0.000218986 -68.9899 1.46441
    endloop
  endfacet
  facet normal -1 5.77256e-017 -0.000106802
    outer loop
      vertex 3.99979 -68.7528 1.7997
      vertex 3.99979 -31.2472 1.7997
      vertex 3.99998 -70.0255 -0.000148305
    endloop
  endfacet
  facet normal -1 5.77256e-017 -0.000106802
    outer loop
      vertex 3.99998 -70.0255 -0.000148305
      vertex 3.99979 -31.2472 1.7997
      vertex 3.99998 -29.9746 -0.000148305
    endloop
  endfacet
  facet normal -0.816497 7.66664e-009 0.57735
    outer loop
      vertex 5 -32.2474 3.21421
      vertex 3.99979 -31.2472 1.7997
      vertex 5 -67.7526 3.21421
    endloop
  endfacet
  facet normal -0.816497 7.66664e-009 0.57735
    outer loop
      vertex 5 -67.7526 3.21421
      vertex 3.99979 -31.2472 1.7997
      vertex 3.99979 -68.7528 1.7997
    endloop
  endfacet
  facet normal 2.12636e-007 -0.816497 0.57735
    outer loop
      vertex 5 -67.7526 3.21421
      vertex 4.00001 -69.99 0.0500712
      vertex 5.00036 -68.9902 1.46398
    endloop
  endfacet
  facet normal 2.12636e-007 -0.816497 0.57735
    outer loop
      vertex 3.99998 -70.0255 -0.000148305
      vertex 4.00001 -69.99 0.0500712
      vertex 3.99979 -68.7528 1.7997
    endloop
  endfacet
  facet normal 2.12636e-007 -0.816497 0.57735
    outer loop
      vertex 5.99991 -69.99 0.0500753
      vertex 5.99973 -68.7523 1.80039
      vertex 5.00036 -68.9902 1.46398
    endloop
  endfacet
  facet normal 2.12636e-007 -0.816497 0.57735
    outer loop
      vertex 5.99973 -68.7523 1.80039
      vertex 5 -67.7526 3.21421
      vertex 5.00036 -68.9902 1.46398
    endloop
  endfacet
  facet normal 2.12636e-007 -0.816497 0.57735
    outer loop
      vertex 5 -67.7526 3.21421
      vertex 3.99979 -68.7528 1.7997
      vertex 4.00001 -69.99 0.0500712
    endloop
  endfacet
  facet normal -2.67535e-005 -9.17561e-017 -1
    outer loop
      vertex 3.99998 -73.0001 -0.000148305
      vertex 3.99998 -70.0255 -0.000148305
      vertex 5.99992 -73.0001 -0.00020181
    endloop
  endfacet
  facet normal -2.67535e-005 -9.17561e-017 -1
    outer loop
      vertex 5.99992 -73.0001 -0.00020181
      vertex 3.99998 -70.0255 -0.000148305
      vertex 3.99998 -29.9746 -0.000148305
    endloop
  endfacet
  facet normal -2.67535e-005 -9.17561e-017 -1
    outer loop
      vertex 5.99992 -73.0001 -0.00020181
      vertex 3.99998 -29.9746 -0.000148305
      vertex 3.99998 -27 -0.000148305
    endloop
  endfacet
  facet normal -2.67535e-005 -9.17561e-017 -1
    outer loop
      vertex 5.99992 -73.0001 -0.00020181
      vertex 3.99998 -27 -0.000148305
      vertex 5.99992 -27 -0.00020181
    endloop
  endfacet
  facet normal -1 5.77999e-017 0.000703801
    outer loop
      vertex 3.99998 -73.0001 -0.000148305
      vertex 4.00001 -73.0001 0.0500712
      vertex 3.99998 -70.0255 -0.000148305
    endloop
  endfacet
  facet normal -1 5.77999e-017 0.000703801
    outer loop
      vertex 3.99998 -70.0255 -0.000148305
      vertex 4.00001 -73.0001 0.0500712
      vertex 4.00001 -69.99 0.0500712
    endloop
  endfacet
  facet normal -1 5.77999e-017 0.000703801
    outer loop
      vertex 3.99998 -29.9746 -0.000148305
      vertex 4.00001 -30.0101 0.0500712
      vertex 3.99998 -27 -0.000148305
    endloop
  endfacet
  facet normal -1 5.77999e-017 0.000703801
    outer loop
      vertex 3.99998 -27 -0.000148305
      vertex 4.00001 -30.0101 0.0500712
      vertex 4.00001 -27 0.0500712
    endloop
  endfacet
  facet normal -9.5645e-007 0.816497 0.57735
    outer loop
      vertex 5.99973 -31.2477 1.80039
      vertex 5.99991 -30.0101 0.0500753
      vertex 5 -32.2474 3.21421
    endloop
  endfacet
  facet normal -9.5645e-007 0.816497 0.57735
    outer loop
      vertex 5 -32.2474 3.21421
      vertex 5.99991 -30.0101 0.0500753
      vertex 5.00036 -31.0098 1.46398
    endloop
  endfacet
  facet normal -9.5645e-007 0.816497 0.57735
    outer loop
      vertex 5 -32.2474 3.21421
      vertex 5.00036 -31.0098 1.46398
      vertex 4.00001 -30.0101 0.0500712
    endloop
  endfacet
  facet normal -9.5645e-007 0.816497 0.57735
    outer loop
      vertex 4.00001 -30.0101 0.0500712
      vertex 3.99998 -29.9746 -0.000148305
      vertex 3.99979 -31.2472 1.7997
    endloop
  endfacet
  facet normal -9.5645e-007 0.816497 0.57735
    outer loop
      vertex 4.00001 -30.0101 0.0500712
      vertex 3.99979 -31.2472 1.7997
      vertex 5 -32.2474 3.21421
    endloop
  endfacet
  facet normal 0.816497 -2.54944e-009 0.57735
    outer loop
      vertex 5.99973 -68.7523 1.80039
      vertex 5.99973 -31.2477 1.80039
      vertex 5 -32.2474 3.21421
    endloop
  endfacet
  facet normal 0.816497 -2.54944e-009 0.57735
    outer loop
      vertex 5 -67.7526 3.21421
      vertex 5.99973 -68.7523 1.80039
      vertex 5 -32.2474 3.21421
    endloop
  endfacet
  facet normal 1 -5.77256e-017 0.000106802
    outer loop
      vertex 5.99991 -30.0101 0.0500753
      vertex 5.99973 -31.2477 1.80039
      vertex 5.99973 -68.7523 1.80039
    endloop
  endfacet
  facet normal 1 -5.77256e-017 0.000106802
    outer loop
      vertex 5.99991 -69.99 0.0500753
      vertex 5.99991 -30.0101 0.0500753
      vertex 5.99973 -68.7523 1.80039
    endloop
  endfacet
  facet normal 0.816559 5.82391e-018 0.577263
    outer loop
      vertex 5.00036 -68.9902 1.46398
      vertex 5.00036 -73.0001 1.46398
      vertex 5.99995 -73.0001 0.0500177
    endloop
  endfacet
  facet normal 0.816559 5.82391e-018 0.577263
    outer loop
      vertex 5.99991 -69.99 0.0500753
      vertex 5.00036 -68.9902 1.46398
      vertex 5.99995 -73.0001 0.0500177
    endloop
  endfacet
  facet normal 0.816559 5.82391e-018 0.577263
    outer loop
      vertex 5.00036 -27 1.46398
      vertex 5.00036 -31.0098 1.46398
      vertex 5.99995 -27 0.0500177
    endloop
  endfacet
  facet normal 0.816559 5.82391e-018 0.577263
    outer loop
      vertex 5.99995 -27 0.0500177
      vertex 5.99991 -30.0101 0.0500753
      vertex 5.99995 -73.0001 0.0500177
    endloop
  endfacet
  facet normal 0.816559 5.82391e-018 0.577263
    outer loop
      vertex 5.99991 -30.0101 0.0500753
      vertex 5.99991 -69.99 0.0500753
      vertex 5.99995 -73.0001 0.0500177
    endloop
  endfacet
  facet normal 0.816559 5.82391e-018 0.577263
    outer loop
      vertex 5.00036 -31.0098 1.46398
      vertex 5.99991 -30.0101 0.0500753
      vertex 5.99995 -27 0.0500177
    endloop
  endfacet
  facet normal -0.816343 1.00128e-016 0.577568
    outer loop
      vertex 4.00001 -73.0001 0.0500712
      vertex 5.00036 -73.0001 1.46398
      vertex 4.00001 -69.99 0.0500712
    endloop
  endfacet
  facet normal -0.816343 1.00128e-016 0.577568
    outer loop
      vertex 4.00001 -69.99 0.0500712
      vertex 5.00036 -73.0001 1.46398
      vertex 5.00036 -68.9902 1.46398
    endloop
  endfacet
  facet normal -1.47283e-017 -1 1.14864e-016
    outer loop
      vertex 4.00001 -73.0001 0.0500712
      vertex 3.99998 -73.0001 -0.000148305
      vertex 5.99992 -73.0001 -0.00020181
    endloop
  endfacet
  facet normal -1.47283e-017 -1 1.14864e-016
    outer loop
      vertex 5.00036 -73.0001 1.46398
      vertex 4.00001 -73.0001 0.0500712
      vertex 5.99995 -73.0001 0.0500177
    endloop
  endfacet
  facet normal -1.47283e-017 -1 1.14864e-016
    outer loop
      vertex 5.99995 -73.0001 0.0500177
      vertex 4.00001 -73.0001 0.0500712
      vertex 5.99992 -73.0001 -0.00020181
    endloop
  endfacet
  facet normal 1 -5.77999e-017 -0.000703801
    outer loop
      vertex 5.99995 -73.0001 0.0500177
      vertex 5.99992 -73.0001 -0.00020181
      vertex 5.99992 -27 -0.00020181
    endloop
  endfacet
  facet normal 1 -5.77999e-017 -0.000703801
    outer loop
      vertex 5.99995 -27 0.0500177
      vertex 5.99995 -73.0001 0.0500177
      vertex 5.99992 -27 -0.00020181
    endloop
  endfacet
  facet normal 1.47283e-017 1 -1.14864e-016
    outer loop
      vertex 3.99998 -27 -0.000148305
      vertex 4.00001 -27 0.0500712
      vertex 5.99992 -27 -0.00020181
    endloop
  endfacet
  facet normal 1.47283e-017 1 -1.14864e-016
    outer loop
      vertex 5.99992 -27 -0.00020181
      vertex 4.00001 -27 0.0500712
      vertex 5.00036 -27 1.46398
    endloop
  endfacet
  facet normal 1.47283e-017 1 -1.14864e-016
    outer loop
      vertex 5.99992 -27 -0.00020181
      vertex 5.00036 -27 1.46398
      vertex 5.99995 -27 0.0500177
    endloop
  endfacet
  facet normal -0.816343 1.00128e-016 0.577568
    outer loop
      vertex 4.00001 -30.0101 0.0500712
      vertex 5.00036 -31.0098 1.46398
      vertex 4.00001 -27 0.0500712
    endloop
  endfacet
  facet normal -0.816343 1.00128e-016 0.577568
    outer loop
      vertex 4.00001 -27 0.0500712
      vertex 5.00036 -31.0098 1.46398
      vertex 5.00036 -27 1.46398
    endloop
  endfacet
  facet normal -0.000233823 -1.64856e-016 -1
    outer loop
      vertex 8.9996 -73.0001 0.000434895
      vertex 8.9996 -70.0251 0.000434895
      vertex 10.9996 -73.0001 -3.27532e-005
    endloop
  endfacet
  facet normal -0.000233823 -1.64856e-016 -1
    outer loop
      vertex 10.9996 -73.0001 -3.27532e-005
      vertex 8.9996 -70.0251 0.000434895
      vertex 8.9996 -29.975 0.000434895
    endloop
  endfacet
  facet normal -0.000233823 -1.64856e-016 -1
    outer loop
      vertex 10.9996 -73.0001 -3.27532e-005
      vertex 8.9996 -29.975 0.000434895
      vertex 8.9996 -27 0.000434895
    endloop
  endfacet
  facet normal -0.000233823 -1.64856e-016 -1
    outer loop
      vertex 10.9996 -73.0001 -3.27532e-005
      vertex 8.9996 -27 0.000434895
      vertex 10.9996 -27 -3.27532e-005
    endloop
  endfacet
  facet normal -0.999995 6.97221e-017 0.00323381
    outer loop
      vertex 8.9996 -73.0001 0.000434895
      vertex 8.99976 -73.0001 0.0504346
      vertex 8.9996 -70.0251 0.000434895
    endloop
  endfacet
  facet normal -0.999995 6.97221e-017 0.00323381
    outer loop
      vertex 8.9996 -70.0251 0.000434895
      vertex 8.99976 -73.0001 0.0504346
      vertex 8.99976 -69.9898 0.0504346
    endloop
  endfacet
  facet normal -2.8722e-017 -1 3.22992e-016
    outer loop
      vertex 8.99976 -73.0001 0.0504346
      vertex 8.9996 -73.0001 0.000434895
      vertex 10.9996 -73.0001 -3.27532e-005
    endloop
  endfacet
  facet normal -2.8722e-017 -1 3.22992e-016
    outer loop
      vertex 10.0003 -73.0001 1.46421
      vertex 8.99976 -73.0001 0.0504346
      vertex 10.9998 -73.0001 0.049967
    endloop
  endfacet
  facet normal -2.8722e-017 -1 3.22992e-016
    outer loop
      vertex 10.9998 -73.0001 0.049967
      vertex 8.99976 -73.0001 0.0504346
      vertex 10.9996 -73.0001 -3.27532e-005
    endloop
  endfacet
  facet normal 0.999995 -6.97221e-017 -0.00323381
    outer loop
      vertex 10.9998 -73.0001 0.049967
      vertex 10.9996 -73.0001 -3.27532e-005
      vertex 10.9996 -27 -3.27532e-005
    endloop
  endfacet
  facet normal 0.999995 -6.97221e-017 -0.00323381
    outer loop
      vertex 10.9998 -27 0.049967
      vertex 10.9998 -73.0001 0.049967
      vertex 10.9996 -27 -3.27532e-005
    endloop
  endfacet
  facet normal 2.8722e-017 1 -3.22992e-016
    outer loop
      vertex 8.9996 -27 0.000434895
      vertex 8.99976 -27 0.0504346
      vertex 10.9996 -27 -3.27532e-005
    endloop
  endfacet
  facet normal 2.8722e-017 1 -3.22992e-016
    outer loop
      vertex 10.9996 -27 -3.27532e-005
      vertex 8.99976 -27 0.0504346
      vertex 10.0003 -27 1.46421
    endloop
  endfacet
  facet normal 2.8722e-017 1 -3.22992e-016
    outer loop
      vertex 10.9996 -27 -3.27532e-005
      vertex 10.0003 -27 1.46421
      vertex 10.9998 -27 0.049967
    endloop
  endfacet
  facet normal -0.999995 6.97221e-017 0.00323381
    outer loop
      vertex 8.9996 -29.975 0.000434895
      vertex 8.99976 -30.0103 0.0504346
      vertex 8.9996 -27 0.000434895
    endloop
  endfacet
  facet normal -0.999995 6.97221e-017 0.00323381
    outer loop
      vertex 8.9996 -27 0.000434895
      vertex 8.99976 -30.0103 0.0504346
      vertex 8.99976 -27 0.0504346
    endloop
  endfacet
  facet normal 3.43374e-007 0.816497 0.57735
    outer loop
      vertex 10 -32.2474 3.21422
      vertex 10.9996 -31.2478 1.8005
      vertex 8.99964 -31.2471 1.79949
    endloop
  endfacet
  facet normal 3.43374e-007 0.816497 0.57735
    outer loop
      vertex 10.0003 -31.01 1.46421
      vertex 10.9996 -31.2478 1.8005
      vertex 10.9996 -30.0101 0.0501944
    endloop
  endfacet
  facet normal 3.43374e-007 0.816497 0.57735
    outer loop
      vertex 8.99964 -31.2471 1.79949
      vertex 10.9996 -31.2478 1.8005
      vertex 10.0003 -31.01 1.46421
    endloop
  endfacet
  facet normal 3.43374e-007 0.816497 0.57735
    outer loop
      vertex 8.99964 -31.2471 1.79949
      vertex 8.99976 -30.0103 0.0504346
      vertex 8.9996 -29.975 0.000434895
    endloop
  endfacet
  facet normal 3.43374e-007 0.816497 0.57735
    outer loop
      vertex 8.99976 -30.0103 0.0504346
      vertex 8.99964 -31.2471 1.79949
      vertex 10.0003 -31.01 1.46421
    endloop
  endfacet
  facet normal -1 6.91925e-017 1.95396e-005
    outer loop
      vertex 8.9996 -70.0251 0.000434895
      vertex 8.99964 -68.753 1.79949
      vertex 8.9996 -29.975 0.000434895
    endloop
  endfacet
  facet normal -1 6.91925e-017 1.95396e-005
    outer loop
      vertex 8.9996 -29.975 0.000434895
      vertex 8.99964 -68.753 1.79949
      vertex 8.99964 -31.2471 1.79949
    endloop
  endfacet
  facet normal 7.28958e-008 -0.816497 0.57735
    outer loop
      vertex 10.9996 -68.7523 1.8005
      vertex 10.0003 -68.9901 1.46421
      vertex 10.9996 -69.9899 0.0501944
    endloop
  endfacet
  facet normal 7.28958e-008 -0.816497 0.57735
    outer loop
      vertex 10 -67.7526 3.21422
      vertex 10.0003 -68.9901 1.46421
      vertex 10.9996 -68.7523 1.8005
    endloop
  endfacet
  facet normal 7.28958e-008 -0.816497 0.57735
    outer loop
      vertex 8.99976 -69.9898 0.0504346
      vertex 10.0003 -68.9901 1.46421
      vertex 10 -67.7526 3.21422
    endloop
  endfacet
  facet normal 7.28958e-008 -0.816497 0.57735
    outer loop
      vertex 8.99964 -68.753 1.79949
      vertex 8.99976 -69.9898 0.0504346
      vertex 10 -67.7526 3.21422
    endloop
  endfacet
  facet normal 7.28958e-008 -0.816497 0.57735
    outer loop
      vertex 8.9996 -70.0251 0.000434895
      vertex 8.99976 -69.9898 0.0504346
      vertex 8.99964 -68.753 1.79949
    endloop
  endfacet
  facet normal -0.816254 1.51721e-016 0.577693
    outer loop
      vertex 8.99976 -73.0001 0.0504346
      vertex 10.0003 -73.0001 1.46421
      vertex 8.99976 -69.9898 0.0504346
    endloop
  endfacet
  facet normal -0.816254 1.51721e-016 0.577693
    outer loop
      vertex 8.99976 -69.9898 0.0504346
      vertex 10.0003 -73.0001 1.46421
      vertex 10.0003 -68.9901 1.46421
    endloop
  endfacet
  facet normal 0.816656 3.86477e-017 0.577125
    outer loop
      vertex 10.0003 -68.9901 1.46421
      vertex 10.0003 -73.0001 1.46421
      vertex 10.9998 -73.0001 0.049967
    endloop
  endfacet
  facet normal 0.816656 3.86477e-017 0.577125
    outer loop
      vertex 10.9996 -69.9899 0.0501944
      vertex 10.0003 -68.9901 1.46421
      vertex 10.9998 -73.0001 0.049967
    endloop
  endfacet
  facet normal 0.816656 3.86477e-017 0.577125
    outer loop
      vertex 10.0003 -27 1.46421
      vertex 10.0003 -31.01 1.46421
      vertex 10.9998 -27 0.049967
    endloop
  endfacet
  facet normal 0.816656 3.86477e-017 0.577125
    outer loop
      vertex 10.9998 -27 0.049967
      vertex 10.9996 -30.0101 0.0501944
      vertex 10.9998 -73.0001 0.049967
    endloop
  endfacet
  facet normal 0.816656 3.86477e-017 0.577125
    outer loop
      vertex 10.9996 -30.0101 0.0501944
      vertex 10.9996 -69.9899 0.0501944
      vertex 10.9998 -73.0001 0.049967
    endloop
  endfacet
  facet normal 0.816656 3.86477e-017 0.577125
    outer loop
      vertex 10.0003 -31.01 1.46421
      vertex 10.9996 -30.0101 0.0501944
      vertex 10.9998 -27 0.049967
    endloop
  endfacet
  facet normal -0.816254 1.51721e-016 0.577693
    outer loop
      vertex 8.99976 -30.0103 0.0504346
      vertex 10.0003 -31.01 1.46421
      vertex 8.99976 -27 0.0504346
    endloop
  endfacet
  facet normal -0.816254 1.51721e-016 0.577693
    outer loop
      vertex 8.99976 -27 0.0504346
      vertex 10.0003 -31.01 1.46421
      vertex 10.0003 -27 1.46421
    endloop
  endfacet
  facet normal -0.816497 -6.17354e-009 0.577349
    outer loop
      vertex 10 -32.2474 3.21422
      vertex 8.99964 -31.2471 1.79949
      vertex 10 -67.7526 3.21422
    endloop
  endfacet
  facet normal -0.816497 -6.17354e-009 0.577349
    outer loop
      vertex 10 -67.7526 3.21422
      vertex 8.99964 -31.2471 1.79949
      vertex 8.99964 -68.753 1.79949
    endloop
  endfacet
  facet normal 1 -6.91925e-017 -1.95396e-005
    outer loop
      vertex 10.9996 -68.7523 1.8005
      vertex 10.9996 -69.9899 0.0501944
      vertex 10.9996 -30.0101 0.0501944
    endloop
  endfacet
  facet normal 1 -6.91925e-017 -1.95396e-005
    outer loop
      vertex 10.9996 -31.2478 1.8005
      vertex 10.9996 -68.7523 1.8005
      vertex 10.9996 -30.0101 0.0501944
    endloop
  endfacet
  facet normal 0.816497 -8.87756e-009 0.577349
    outer loop
      vertex 10.9996 -68.7523 1.8005
      vertex 10.9996 -31.2478 1.8005
      vertex 10 -32.2474 3.21422
    endloop
  endfacet
  facet normal 0.816497 -8.87756e-009 0.577349
    outer loop
      vertex 10 -67.7526 3.21422
      vertex 10.9996 -68.7523 1.8005
      vertex 10 -32.2474 3.21422
    endloop
  endfacet
  facet normal -1 -3.84195e-016 -0.00010542
    outer loop
      vertex 14.0002 -68.7523 1.80029
      vertex 14.0002 -31.2477 1.80029
      vertex 14.0004 -69.9896 0.0504547
    endloop
  endfacet
  facet normal -1 -3.84195e-016 -0.00010542
    outer loop
      vertex 14.0004 -69.9896 0.0504547
      vertex 14.0002 -31.2477 1.80029
      vertex 14.0004 -30.0103 0.0504547
    endloop
  endfacet
  facet normal -0.816497 2.21245e-009 0.57735
    outer loop
      vertex 15 -32.2475 3.21421
      vertex 14.0002 -31.2477 1.80029
      vertex 15 -67.7525 3.21421
    endloop
  endfacet
  facet normal -0.816497 2.21245e-009 0.57735
    outer loop
      vertex 15 -67.7525 3.21421
      vertex 14.0002 -31.2477 1.80029
      vertex 14.0002 -68.7523 1.80029
    endloop
  endfacet
  facet normal -7.34047e-008 -0.816497 0.57735
    outer loop
      vertex 15.9999 -68.7524 1.80013
      vertex 14.9995 -68.9899 1.46421
      vertex 16 -69.9896 0.0504411
    endloop
  endfacet
  facet normal -7.34047e-008 -0.816497 0.57735
    outer loop
      vertex 14.0004 -69.9896 0.0504547
      vertex 14.9995 -68.9899 1.46421
      vertex 15 -67.7525 3.21421
    endloop
  endfacet
  facet normal -7.34047e-008 -0.816497 0.57735
    outer loop
      vertex 16.0001 -70.0251 0.000221681
      vertex 15.9999 -68.7524 1.80013
      vertex 16 -69.9896 0.0504411
    endloop
  endfacet
  facet normal -7.34047e-008 -0.816497 0.57735
    outer loop
      vertex 15.9999 -68.7524 1.80013
      vertex 15 -67.7525 3.21421
      vertex 14.9995 -68.9899 1.46421
    endloop
  endfacet
  facet normal -7.34047e-008 -0.816497 0.57735
    outer loop
      vertex 15 -67.7525 3.21421
      vertex 14.0002 -68.7523 1.80029
      vertex 14.0004 -69.9896 0.0504547
    endloop
  endfacet
  facet normal -0.816654 3.91255e-019 0.577127
    outer loop
      vertex 14.9995 -31.01 1.46421
      vertex 14.9995 -27 1.46421
      vertex 14.0004 -30.0103 0.0504547
    endloop
  endfacet
  facet normal -0.816654 3.91255e-019 0.577127
    outer loop
      vertex 14.9995 -68.9899 1.46421
      vertex 14.0003 -73 0.0503618
      vertex 14.9995 -73 1.46421
    endloop
  endfacet
  facet normal -0.816654 3.91255e-019 0.577127
    outer loop
      vertex 14.0003 -27 0.0503618
      vertex 14.0003 -73 0.0503618
      vertex 14.0004 -69.9896 0.0504547
    endloop
  endfacet
  facet normal -0.816654 3.91255e-019 0.577127
    outer loop
      vertex 14.0003 -27 0.0503618
      vertex 14.0004 -69.9896 0.0504547
      vertex 14.0004 -30.0103 0.0504547
    endloop
  endfacet
  facet normal -0.816654 3.91255e-019 0.577127
    outer loop
      vertex 14.0003 -27 0.0503618
      vertex 14.0004 -30.0103 0.0504547
      vertex 14.9995 -27 1.46421
    endloop
  endfacet
  facet normal -0.816654 3.91255e-019 0.577127
    outer loop
      vertex 14.0004 -69.9896 0.0504547
      vertex 14.0003 -73 0.0503618
      vertex 14.9995 -68.9899 1.46421
    endloop
  endfacet
  facet normal 1.97074e-007 0.816496 0.577351
    outer loop
      vertex 15.9999 -31.2475 1.80014
      vertex 16 -30.0103 0.0504411
      vertex 15 -32.2475 3.21421
    endloop
  endfacet
  facet normal 1.97074e-007 0.816496 0.577351
    outer loop
      vertex 15.9999 -31.2475 1.80014
      vertex 16.0001 -29.9748 0.000221681
      vertex 16 -30.0103 0.0504411
    endloop
  endfacet
  facet normal 1.97074e-007 0.816496 0.577351
    outer loop
      vertex 15 -32.2475 3.21421
      vertex 14.9995 -31.01 1.46421
      vertex 14.0004 -30.0103 0.0504547
    endloop
  endfacet
  facet normal 1.97074e-007 0.816496 0.577351
    outer loop
      vertex 15 -32.2475 3.21421
      vertex 14.0004 -30.0103 0.0504547
      vertex 14.0002 -31.2477 1.80029
    endloop
  endfacet
  facet normal 1.97074e-007 0.816496 0.577351
    outer loop
      vertex 14.9995 -31.01 1.46421
      vertex 15 -32.2475 3.21421
      vertex 16 -30.0103 0.0504411
    endloop
  endfacet
  facet normal 0.816497 -6.66665e-009 0.57735
    outer loop
      vertex 15.9999 -68.7524 1.80013
      vertex 15.9999 -31.2475 1.80014
      vertex 15 -32.2475 3.21421
    endloop
  endfacet
  facet normal 0.816497 -6.66665e-009 0.57735
    outer loop
      vertex 15 -67.7525 3.21421
      vertex 15.9999 -68.7524 1.80013
      vertex 15 -32.2475 3.21421
    endloop
  endfacet
  facet normal 1 3.84195e-016 0.00010542
    outer loop
      vertex 16.0001 -29.9748 0.000221681
      vertex 15.9999 -31.2475 1.80014
      vertex 15.9999 -68.7524 1.80013
    endloop
  endfacet
  facet normal 1 3.84195e-016 0.00010542
    outer loop
      vertex 16.0001 -70.0251 0.000221681
      vertex 16.0001 -29.9748 0.000221681
      vertex 15.9999 -68.7524 1.80013
    endloop
  endfacet
  facet normal 3.97003e-005 -5.44229e-016 -1
    outer loop
      vertex 14.0004 -27 0.000142292
      vertex 16.0001 -27 0.000221681
      vertex 14.0004 -73 0.000142292
    endloop
  endfacet
  facet normal 3.97003e-005 -5.44229e-016 -1
    outer loop
      vertex 14.0004 -73 0.000142292
      vertex 16.0001 -27 0.000221681
      vertex 16.0001 -29.9748 0.000221681
    endloop
  endfacet
  facet normal 3.97003e-005 -5.44229e-016 -1
    outer loop
      vertex 14.0004 -73 0.000142292
      vertex 16.0001 -29.9748 0.000221681
      vertex 16.0001 -70.0251 0.000221681
    endloop
  endfacet
  facet normal 3.97003e-005 -5.44229e-016 -1
    outer loop
      vertex 14.0004 -73 0.000142292
      vertex 16.0001 -70.0251 0.000221681
      vertex 16.0001 -73 0.000221681
    endloop
  endfacet
  facet normal 0.999999 3.84906e-016 0.00141387
    outer loop
      vertex 16.0001 -70.0251 0.000221681
      vertex 16 -69.9896 0.0504411
      vertex 16 -73 0.0504411
    endloop
  endfacet
  facet normal 0.999999 3.84906e-016 0.00141387
    outer loop
      vertex 16.0001 -73 0.000221681
      vertex 16.0001 -70.0251 0.000221681
      vertex 16 -73 0.0504411
    endloop
  endfacet
  facet normal 0.816266 6.27955e-016 0.577676
    outer loop
      vertex 16 -69.9896 0.0504411
      vertex 14.9995 -68.9899 1.46421
      vertex 14.9995 -73 1.46421
    endloop
  endfacet
  facet normal 0.816266 6.27955e-016 0.577676
    outer loop
      vertex 16 -73 0.0504411
      vertex 16 -69.9896 0.0504411
      vertex 14.9995 -73 1.46421
    endloop
  endfacet
  facet normal 0.816266 6.27955e-016 0.577676
    outer loop
      vertex 16 -27 0.0504411
      vertex 14.9995 -27 1.46421
      vertex 14.9995 -31.01 1.46421
    endloop
  endfacet
  facet normal 0.816266 6.27955e-016 0.577676
    outer loop
      vertex 16 -30.0103 0.0504411
      vertex 16 -27 0.0504411
      vertex 14.9995 -31.01 1.46421
    endloop
  endfacet
  facet normal -3.16264e-016 1 -5.73325e-016
    outer loop
      vertex 14.0003 -27 0.0503618
      vertex 14.9995 -27 1.46421
      vertex 14.0004 -27 0.000142292
    endloop
  endfacet
  facet normal -3.16264e-016 1 -5.73325e-016
    outer loop
      vertex 14.0004 -27 0.000142292
      vertex 14.9995 -27 1.46421
      vertex 16 -27 0.0504411
    endloop
  endfacet
  facet normal -3.16264e-016 1 -5.73325e-016
    outer loop
      vertex 14.0004 -27 0.000142292
      vertex 16 -27 0.0504411
      vertex 16.0001 -27 0.000221681
    endloop
  endfacet
  facet normal 3.16264e-016 -1 5.73325e-016
    outer loop
      vertex 14.9995 -73 1.46421
      vertex 14.0003 -73 0.0503618
      vertex 14.0004 -73 0.000142292
    endloop
  endfacet
  facet normal 3.16264e-016 -1 5.73325e-016
    outer loop
      vertex 16 -73 0.0504411
      vertex 14.9995 -73 1.46421
      vertex 16.0001 -73 0.000221681
    endloop
  endfacet
  facet normal 3.16264e-016 -1 5.73325e-016
    outer loop
      vertex 16.0001 -73 0.000221681
      vertex 14.9995 -73 1.46421
      vertex 14.0004 -73 0.000142292
    endloop
  endfacet
  facet normal -0.999999 -3.84906e-016 -0.00141387
    outer loop
      vertex 14.0003 -27 0.0503618
      vertex 14.0004 -27 0.000142292
      vertex 14.0003 -73 0.0503618
    endloop
  endfacet
  facet normal -0.999999 -3.84906e-016 -0.00141387
    outer loop
      vertex 14.0003 -73 0.0503618
      vertex 14.0004 -27 0.000142292
      vertex 14.0004 -73 0.000142292
    endloop
  endfacet
  facet normal 0.999999 3.84906e-016 0.00141387
    outer loop
      vertex 16.0001 -27 0.000221681
      vertex 16 -27 0.0504411
      vertex 16 -30.0103 0.0504411
    endloop
  endfacet
  facet normal 0.999999 3.84906e-016 0.00141387
    outer loop
      vertex 16.0001 -29.9748 0.000221681
      vertex 16.0001 -27 0.000221681
      vertex 16 -30.0103 0.0504411
    endloop
  endfacet
  facet normal -4.66409e-007 0.816496 0.577351
    outer loop
      vertex 20.9997 -31.2478 1.80048
      vertex 20.9997 -30.0109 0.0512716
      vertex 20 -32.2475 3.21421
    endloop
  endfacet
  facet normal -4.66409e-007 0.816496 0.577351
    outer loop
      vertex 20 -32.2475 3.21421
      vertex 20.9997 -30.0109 0.0512716
      vertex 19.9999 -31.01 1.4642
    endloop
  endfacet
  facet normal -4.66409e-007 0.816496 0.577351
    outer loop
      vertex 20 -32.2475 3.21421
      vertex 19.9999 -31.01 1.4642
      vertex 19.0005 -30.0102 0.0502439
    endloop
  endfacet
  facet normal -4.66409e-007 0.816496 0.577351
    outer loop
      vertex 19.0005 -30.0102 0.0502439
      vertex 18.9997 -29.9748 0.000240354
      vertex 18.9996 -31.2471 1.7995
    endloop
  endfacet
  facet normal -4.66409e-007 0.816496 0.577351
    outer loop
      vertex 19.0005 -30.0102 0.0502439
      vertex 18.9996 -31.2471 1.7995
      vertex 20 -32.2475 3.21421
    endloop
  endfacet
  facet normal -0.816496 -4.06741e-009 0.577351
    outer loop
      vertex 20 -67.7526 3.21421
      vertex 20 -32.2475 3.21421
      vertex 18.9996 -68.7529 1.79949
    endloop
  endfacet
  facet normal -0.816496 -4.06741e-009 0.577351
    outer loop
      vertex 18.9996 -68.7529 1.79949
      vertex 20 -32.2475 3.21421
      vertex 18.9996 -31.2471 1.7995
    endloop
  endfacet
  facet normal -1 1.68553e-017 -1.74601e-005
    outer loop
      vertex 18.9996 -31.2471 1.7995
      vertex 18.9997 -29.9748 0.000240354
      vertex 18.9996 -68.7529 1.79949
    endloop
  endfacet
  facet normal -1 1.68553e-017 -1.74601e-005
    outer loop
      vertex 18.9996 -68.7529 1.79949
      vertex 18.9997 -29.9748 0.000240354
      vertex 18.9997 -70.0252 0.000240354
    endloop
  endfacet
  facet normal 0.816496 1.21607e-008 0.57735
    outer loop
      vertex 20 -67.7526 3.21421
      vertex 20.9997 -68.7522 1.80048
      vertex 20.9997 -31.2478 1.80048
    endloop
  endfacet
  facet normal 0.816496 1.21607e-008 0.57735
    outer loop
      vertex 20 -32.2475 3.21421
      vertex 20 -67.7526 3.21421
      vertex 20.9997 -31.2478 1.80048
    endloop
  endfacet
  facet normal -5.39673e-005 -1.37e-016 -1
    outer loop
      vertex 18.9997 -73 0.000240354
      vertex 18.9997 -70.0252 0.000240354
      vertex 20.9997 -73 0.000132418
    endloop
  endfacet
  facet normal -5.39673e-005 -1.37e-016 -1
    outer loop
      vertex 20.9997 -73 0.000132418
      vertex 18.9997 -70.0252 0.000240354
      vertex 18.9997 -29.9748 0.000240354
    endloop
  endfacet
  facet normal -5.39673e-005 -1.37e-016 -1
    outer loop
      vertex 20.9997 -73 0.000132418
      vertex 18.9997 -29.9748 0.000240354
      vertex 18.9997 -27 0.000240354
    endloop
  endfacet
  facet normal -5.39673e-005 -1.37e-016 -1
    outer loop
      vertex 20.9997 -73 0.000132418
      vertex 18.9997 -27 0.000240354
      vertex 20.9997 -27 0.000132418
    endloop
  endfacet
  facet normal -0.999871 1.90545e-017 0.0160506
    outer loop
      vertex 18.9997 -29.9748 0.000240354
      vertex 19.0005 -30.0102 0.0502439
      vertex 18.9997 -27 0.000240354
    endloop
  endfacet
  facet normal -0.999871 1.90545e-017 0.0160506
    outer loop
      vertex 18.9997 -27 0.000240354
      vertex 19.0005 -30.0102 0.0502439
      vertex 19.0005 -27 0.0502439
    endloop
  endfacet
  facet normal -0.816602 9.28432e-017 0.577201
    outer loop
      vertex 19.0005 -30.0102 0.0502439
      vertex 19.9999 -31.01 1.4642
      vertex 19.0005 -27 0.0502439
    endloop
  endfacet
  facet normal -0.816602 9.28432e-017 0.577201
    outer loop
      vertex 19.0005 -27 0.0502439
      vertex 19.9999 -31.01 1.4642
      vertex 19.9999 -27 1.4642
    endloop
  endfacet
  facet normal 0.816308 6.53732e-017 0.577617
    outer loop
      vertex 19.9999 -68.99 1.4642
      vertex 19.9999 -73 1.4642
      vertex 21.0005 -73 0.050136
    endloop
  endfacet
  facet normal 0.816308 6.53732e-017 0.577617
    outer loop
      vertex 20.9997 -69.9891 0.0512716
      vertex 19.9999 -68.99 1.4642
      vertex 21.0005 -73 0.050136
    endloop
  endfacet
  facet normal 0.816308 6.53732e-017 0.577617
    outer loop
      vertex 19.9999 -27 1.4642
      vertex 19.9999 -31.01 1.4642
      vertex 21.0005 -27 0.050136
    endloop
  endfacet
  facet normal 0.816308 6.53732e-017 0.577617
    outer loop
      vertex 21.0005 -27 0.050136
      vertex 20.9997 -30.0109 0.0512716
      vertex 21.0005 -73 0.050136
    endloop
  endfacet
  facet normal 0.816308 6.53732e-017 0.577617
    outer loop
      vertex 20.9997 -30.0109 0.0512716
      vertex 20.9997 -69.9891 0.0512716
      vertex 21.0005 -73 0.050136
    endloop
  endfacet
  facet normal 0.816308 6.53732e-017 0.577617
    outer loop
      vertex 19.9999 -31.01 1.4642
      vertex 20.9997 -30.0109 0.0512716
      vertex 21.0005 -27 0.050136
    endloop
  endfacet
  facet normal 1 -1.68553e-017 1.74601e-005
    outer loop
      vertex 20.9997 -31.2478 1.80048
      vertex 20.9997 -68.7522 1.80048
      vertex 20.9997 -69.9891 0.0512716
    endloop
  endfacet
  facet normal 1 -1.68553e-017 1.74601e-005
    outer loop
      vertex 20.9997 -30.0109 0.0512716
      vertex 20.9997 -31.2478 1.80048
      vertex 20.9997 -69.9891 0.0512716
    endloop
  endfacet
  facet normal 7.02678e-007 -0.816497 0.57735
    outer loop
      vertex 20 -67.7526 3.21421
      vertex 19.0005 -69.9899 0.0502439
      vertex 19.9999 -68.99 1.4642
    endloop
  endfacet
  facet normal 7.02678e-007 -0.816497 0.57735
    outer loop
      vertex 18.9997 -70.0252 0.000240354
      vertex 19.0005 -69.9899 0.0502439
      vertex 18.9996 -68.7529 1.79949
    endloop
  endfacet
  facet normal 7.02678e-007 -0.816497 0.57735
    outer loop
      vertex 20.9997 -69.9891 0.0512716
      vertex 20.9997 -68.7522 1.80048
      vertex 19.9999 -68.99 1.4642
    endloop
  endfacet
  facet normal 7.02678e-007 -0.816497 0.57735
    outer loop
      vertex 20.9997 -68.7522 1.80048
      vertex 20 -67.7526 3.21421
      vertex 19.9999 -68.99 1.4642
    endloop
  endfacet
  facet normal 7.02678e-007 -0.816497 0.57735
    outer loop
      vertex 20 -67.7526 3.21421
      vertex 18.9996 -68.7529 1.79949
      vertex 19.0005 -69.9899 0.0502439
    endloop
  endfacet
  facet normal -0.999871 1.90545e-017 0.0160506
    outer loop
      vertex 18.9997 -73 0.000240354
      vertex 19.0005 -73 0.0502439
      vertex 18.9997 -70.0252 0.000240354
    endloop
  endfacet
  facet normal -0.999871 1.90545e-017 0.0160506
    outer loop
      vertex 18.9997 -70.0252 0.000240354
      vertex 19.0005 -73 0.0502439
      vertex 19.0005 -69.9899 0.0502439
    endloop
  endfacet
  facet normal 1.04671e-018 -1 1.61376e-016
    outer loop
      vertex 19.0005 -73 0.0502439
      vertex 18.9997 -73 0.000240354
      vertex 20.9997 -73 0.000132418
    endloop
  endfacet
  facet normal 1.04671e-018 -1 1.61376e-016
    outer loop
      vertex 19.9999 -73 1.4642
      vertex 19.0005 -73 0.0502439
      vertex 21.0005 -73 0.050136
    endloop
  endfacet
  facet normal 1.04671e-018 -1 1.61376e-016
    outer loop
      vertex 21.0005 -73 0.050136
      vertex 19.0005 -73 0.0502439
      vertex 20.9997 -73 0.000132418
    endloop
  endfacet
  facet normal 0.999871 -1.90545e-017 -0.0160506
    outer loop
      vertex 21.0005 -73 0.050136
      vertex 20.9997 -73 0.000132418
      vertex 20.9997 -27 0.000132418
    endloop
  endfacet
  facet normal 0.999871 -1.90545e-017 -0.0160506
    outer loop
      vertex 21.0005 -27 0.050136
      vertex 21.0005 -73 0.050136
      vertex 20.9997 -27 0.000132418
    endloop
  endfacet
  facet normal -1.04671e-018 1 -1.61376e-016
    outer loop
      vertex 18.9997 -27 0.000240354
      vertex 19.0005 -27 0.0502439
      vertex 20.9997 -27 0.000132418
    endloop
  endfacet
  facet normal -1.04671e-018 1 -1.61376e-016
    outer loop
      vertex 20.9997 -27 0.000132418
      vertex 19.0005 -27 0.0502439
      vertex 19.9999 -27 1.4642
    endloop
  endfacet
  facet normal -1.04671e-018 1 -1.61376e-016
    outer loop
      vertex 20.9997 -27 0.000132418
      vertex 19.9999 -27 1.4642
      vertex 21.0005 -27 0.050136
    endloop
  endfacet
  facet normal -0.816602 9.28432e-017 0.577201
    outer loop
      vertex 19.0005 -73 0.0502439
      vertex 19.9999 -73 1.4642
      vertex 19.0005 -69.9899 0.0502439
    endloop
  endfacet
  facet normal -0.816602 9.28432e-017 0.577201
    outer loop
      vertex 19.0005 -69.9899 0.0502439
      vertex 19.9999 -73 1.4642
      vertex 19.9999 -68.99 1.4642
    endloop
  endfacet
  facet normal -7.57593e-007 -0.816497 0.57735
    outer loop
      vertex 25 -67.7526 3.21421
      vertex 23.9997 -69.9901 0.0499246
      vertex 24.9998 -68.9901 1.46421
    endloop
  endfacet
  facet normal -7.57593e-007 -0.816497 0.57735
    outer loop
      vertex 23.9997 -70.0255 -7.53689e-005
      vertex 23.9997 -69.9901 0.0499246
      vertex 23.9997 -68.7529 1.79959
    endloop
  endfacet
  facet normal -7.57593e-007 -0.816497 0.57735
    outer loop
      vertex 25.9997 -69.9897 0.0505506
      vertex 25.9997 -68.7524 1.80041
      vertex 24.9998 -68.9901 1.46421
    endloop
  endfacet
  facet normal -7.57593e-007 -0.816497 0.57735
    outer loop
      vertex 25.9997 -68.7524 1.80041
      vertex 25 -67.7526 3.21421
      vertex 24.9998 -68.9901 1.46421
    endloop
  endfacet
  facet normal -7.57593e-007 -0.816497 0.57735
    outer loop
      vertex 25 -67.7526 3.21421
      vertex 23.9997 -68.7529 1.79959
      vertex 23.9997 -69.9901 0.0499246
    endloop
  endfacet
  facet normal -1 -8.83404e-017 -2.03925e-006
    outer loop
      vertex 23.9997 -68.7529 1.79959
      vertex 23.9997 -31.2472 1.79959
      vertex 23.9997 -70.0255 -7.53689e-005
    endloop
  endfacet
  facet normal -1 -8.83404e-017 -2.03925e-006
    outer loop
      vertex 23.9997 -70.0255 -7.53689e-005
      vertex 23.9997 -31.2472 1.79959
      vertex 23.9997 -29.9746 -7.53689e-005
    endloop
  endfacet
  facet normal -0.816496 9.94825e-009 0.57735
    outer loop
      vertex 25 -32.2474 3.21421
      vertex 23.9997 -31.2472 1.79959
      vertex 25 -67.7526 3.21421
    endloop
  endfacet
  facet normal -0.816496 9.94825e-009 0.57735
    outer loop
      vertex 25 -67.7526 3.21421
      vertex 23.9997 -31.2472 1.79959
      vertex 23.9997 -68.7529 1.79959
    endloop
  endfacet
  facet normal -1 -8.82331e-017 0.000712246
    outer loop
      vertex 23.9997 -70.0255 -7.53689e-005
      vertex 23.9997 -73.0001 -7.53689e-005
      vertex 23.9997 -69.9901 0.0499246
    endloop
  endfacet
  facet normal -1 -8.82331e-017 0.000712246
    outer loop
      vertex 23.9997 -69.9901 0.0499246
      vertex 23.9997 -73.0001 -7.53689e-005
      vertex 23.9997 -73.0001 0.0499246
    endloop
  endfacet
  facet normal 0.000287753 -1.50089e-016 -1
    outer loop
      vertex 23.9997 -27 -7.53689e-005
      vertex 25.9997 -27 0.000500138
      vertex 23.9997 -29.9746 -7.53689e-005
    endloop
  endfacet
  facet normal 0.000287753 -1.50089e-016 -1
    outer loop
      vertex 23.9997 -29.9746 -7.53689e-005
      vertex 25.9997 -27 0.000500138
      vertex 25.9997 -73.0001 0.000500138
    endloop
  endfacet
  facet normal 0.000287753 -1.50089e-016 -1
    outer loop
      vertex 23.9997 -70.0255 -7.53689e-005
      vertex 25.9997 -73.0001 0.000500138
      vertex 23.9997 -73.0001 -7.53689e-005
    endloop
  endfacet
  facet normal 0.000287753 -1.50089e-016 -1
    outer loop
      vertex 23.9997 -29.9746 -7.53689e-005
      vertex 25.9997 -73.0001 0.000500138
      vertex 23.9997 -70.0255 -7.53689e-005
    endloop
  endfacet
  facet normal 0.816496 -3.62409e-009 0.57735
    outer loop
      vertex 25.9997 -68.7524 1.80041
      vertex 25.9997 -31.2477 1.80041
      vertex 25 -32.2474 3.21421
    endloop
  endfacet
  facet normal 0.816496 -3.62409e-009 0.57735
    outer loop
      vertex 25 -67.7526 3.21421
      vertex 25.9997 -68.7524 1.80041
      vertex 25 -32.2474 3.21421
    endloop
  endfacet
  facet normal 1 8.83404e-017 2.03925e-006
    outer loop
      vertex 25.9997 -30.0104 0.0505506
      vertex 25.9997 -31.2477 1.80041
      vertex 25.9997 -68.7524 1.80041
    endloop
  endfacet
  facet normal 1 8.83404e-017 2.03925e-006
    outer loop
      vertex 25.9997 -69.9897 0.0505506
      vertex 25.9997 -30.0104 0.0505506
      vertex 25.9997 -68.7524 1.80041
    endloop
  endfacet
  facet normal 0.816402 1.5881e-016 0.577484
    outer loop
      vertex 25.9997 -27 0.0505001
      vertex 24.9998 -27 1.46421
      vertex 24.9998 -31.01 1.46421
    endloop
  endfacet
  facet normal 0.816402 1.5881e-016 0.577484
    outer loop
      vertex 25.9997 -69.9897 0.0505506
      vertex 25.9997 -27 0.0505001
      vertex 25.9997 -30.0104 0.0505506
    endloop
  endfacet
  facet normal 0.816402 1.5881e-016 0.577484
    outer loop
      vertex 25.9997 -30.0104 0.0505506
      vertex 25.9997 -27 0.0505001
      vertex 24.9998 -31.01 1.46421
    endloop
  endfacet
  facet normal 0.816402 1.5881e-016 0.577484
    outer loop
      vertex 25.9997 -73.0001 0.0505001
      vertex 25.9997 -27 0.0505001
      vertex 25.9997 -69.9897 0.0505506
    endloop
  endfacet
  facet normal 0.816402 1.5881e-016 0.577484
    outer loop
      vertex 24.9998 -73.0001 1.46421
      vertex 25.9997 -69.9897 0.0505506
      vertex 24.9998 -68.9901 1.46421
    endloop
  endfacet
  facet normal 0.816402 1.5881e-016 0.577484
    outer loop
      vertex 25.9997 -73.0001 0.0505001
      vertex 25.9997 -69.9897 0.0505506
      vertex 24.9998 -73.0001 1.46421
    endloop
  endfacet
  facet normal -0.816509 1.45355e-017 0.577333
    outer loop
      vertex 23.9997 -69.9901 0.0499246
      vertex 23.9997 -73.0001 0.0499246
      vertex 24.9998 -68.9901 1.46421
    endloop
  endfacet
  facet normal -0.816509 1.45355e-017 0.577333
    outer loop
      vertex 24.9998 -68.9901 1.46421
      vertex 23.9997 -73.0001 0.0499246
      vertex 24.9998 -73.0001 1.46421
    endloop
  endfacet
  facet normal -1 -8.82331e-017 0.000712246
    outer loop
      vertex 23.9997 -27 -7.53689e-005
      vertex 23.9997 -29.9746 -7.53689e-005
      vertex 23.9997 -27 0.0499246
    endloop
  endfacet
  facet normal -1 -8.82331e-017 0.000712246
    outer loop
      vertex 23.9997 -27 0.0499246
      vertex 23.9997 -29.9746 -7.53689e-005
      vertex 23.9997 -30.01 0.0499246
    endloop
  endfacet
  facet normal 1.41016e-007 0.816497 0.57735
    outer loop
      vertex 25.9997 -31.2477 1.80041
      vertex 25.9997 -30.0104 0.0505506
      vertex 25 -32.2474 3.21421
    endloop
  endfacet
  facet normal 1.41016e-007 0.816497 0.57735
    outer loop
      vertex 25 -32.2474 3.21421
      vertex 25.9997 -30.0104 0.0505506
      vertex 24.9998 -31.01 1.46421
    endloop
  endfacet
  facet normal 1.41016e-007 0.816497 0.57735
    outer loop
      vertex 25 -32.2474 3.21421
      vertex 24.9998 -31.01 1.46421
      vertex 23.9997 -30.01 0.0499246
    endloop
  endfacet
  facet normal 1.41016e-007 0.816497 0.57735
    outer loop
      vertex 23.9997 -30.01 0.0499246
      vertex 23.9997 -29.9746 -7.53689e-005
      vertex 23.9997 -31.2472 1.79959
    endloop
  endfacet
  facet normal 1.41016e-007 0.816497 0.57735
    outer loop
      vertex 23.9997 -30.01 0.0499246
      vertex 23.9997 -31.2472 1.79959
      vertex 25 -32.2474 3.21421
    endloop
  endfacet
  facet normal -5.56017e-017 -1 2.16999e-016
    outer loop
      vertex 23.9997 -73.0001 0.0499246
      vertex 23.9997 -73.0001 -7.53689e-005
      vertex 25.9997 -73.0001 0.000500138
    endloop
  endfacet
  facet normal -5.56017e-017 -1 2.16999e-016
    outer loop
      vertex 24.9998 -73.0001 1.46421
      vertex 23.9997 -73.0001 0.0499246
      vertex 25.9997 -73.0001 0.0505001
    endloop
  endfacet
  facet normal -5.56017e-017 -1 2.16999e-016
    outer loop
      vertex 25.9997 -73.0001 0.0505001
      vertex 23.9997 -73.0001 0.0499246
      vertex 25.9997 -73.0001 0.000500138
    endloop
  endfacet
  facet normal 1 8.82331e-017 -0.000712246
    outer loop
      vertex 25.9997 -73.0001 0.000500138
      vertex 25.9997 -27 0.000500138
      vertex 25.9997 -27 0.0505001
    endloop
  endfacet
  facet normal 1 8.82331e-017 -0.000712246
    outer loop
      vertex 25.9997 -73.0001 0.0505001
      vertex 25.9997 -73.0001 0.000500138
      vertex 25.9997 -27 0.0505001
    endloop
  endfacet
  facet normal 5.56017e-017 1 -2.16999e-016
    outer loop
      vertex 23.9997 -27 -7.53689e-005
      vertex 23.9997 -27 0.0499246
      vertex 25.9997 -27 0.000500138
    endloop
  endfacet
  facet normal 5.56017e-017 1 -2.16999e-016
    outer loop
      vertex 25.9997 -27 0.000500138
      vertex 23.9997 -27 0.0499246
      vertex 24.9998 -27 1.46421
    endloop
  endfacet
  facet normal 5.56017e-017 1 -2.16999e-016
    outer loop
      vertex 25.9997 -27 0.000500138
      vertex 24.9998 -27 1.46421
      vertex 25.9997 -27 0.0505001
    endloop
  endfacet
  facet normal -0.816509 1.45355e-017 0.577333
    outer loop
      vertex 23.9997 -27 0.0499246
      vertex 23.9997 -30.01 0.0499246
      vertex 24.9998 -27 1.46421
    endloop
  endfacet
  facet normal -0.816509 1.45355e-017 0.577333
    outer loop
      vertex 24.9998 -27 1.46421
      vertex 23.9997 -30.01 0.0499246
      vertex 24.9998 -31.01 1.46421
    endloop
  endfacet
endsolid OpenSCAD_Model
