solid OpenSCAD_Model
  facet normal 6.21267e-007 0.816497 0.57735
    outer loop
      vertex 1.00013 -29.2473 1.64982
      vertex 0.999892 -28.1168 0.0509725
      vertex -2.32648e-007 -30.2474 3.06421
    endloop
  endfacet
  facet normal 6.21267e-007 0.816497 0.57735
    outer loop
      vertex -2.32648e-007 -30.2474 3.06421
      vertex 0.999892 -28.1168 0.0509725
      vertex -7.91488e-005 -29.1157 1.46367
    endloop
  endfacet
  facet normal 6.21267e-007 0.816497 0.57735
    outer loop
      vertex -2.32648e-007 -30.2474 3.06421
      vertex -7.91488e-005 -29.1157 1.46367
      vertex -0.999737 -28.1161 0.0500234
    endloop
  endfacet
  facet normal 6.21267e-007 0.816497 0.57735
    outer loop
      vertex -0.999737 -28.1161 0.0500234
      vertex -0.999864 -28.0806 -0.000195932
      vertex -0.999978 -29.2475 1.65003
    endloop
  endfacet
  facet normal 6.21267e-007 0.816497 0.57735
    outer loop
      vertex -0.999737 -28.1161 0.0500234
      vertex -0.999978 -29.2475 1.65003
      vertex -2.32648e-007 -30.2474 3.06421
    endloop
  endfacet
  facet normal -0.816496 -4.81015e-009 0.577351
    outer loop
      vertex 1.83575e-007 -65.7526 3.06421
      vertex -2.32648e-007 -30.2474 3.06421
      vertex -0.999978 -66.7526 1.65003
    endloop
  endfacet
  facet normal -0.816496 -4.81015e-009 0.577351
    outer loop
      vertex -0.999978 -66.7526 1.65003
      vertex -2.32648e-007 -30.2474 3.06421
      vertex -0.999978 -29.2475 1.65003
    endloop
  endfacet
  facet normal -1 1.67412e-016 -6.91126e-005
    outer loop
      vertex -0.999978 -29.2475 1.65003
      vertex -0.999864 -28.0806 -0.000195932
      vertex -0.999978 -66.7526 1.65003
    endloop
  endfacet
  facet normal -1 1.67412e-016 -6.91126e-005
    outer loop
      vertex -0.999978 -66.7526 1.65003
      vertex -0.999864 -28.0806 -0.000195932
      vertex -0.999864 -67.9194 -0.000195932
    endloop
  endfacet
  facet normal 0.816496 1.43333e-008 0.577351
    outer loop
      vertex 1.83575e-007 -65.7526 3.06421
      vertex 1.00013 -66.7527 1.64982
      vertex 1.00013 -29.2473 1.64982
    endloop
  endfacet
  facet normal 0.816496 1.43333e-008 0.577351
    outer loop
      vertex -2.32648e-007 -30.2474 3.06421
      vertex 1.83575e-007 -65.7526 3.06421
      vertex 1.00013 -29.2473 1.64982
    endloop
  endfacet
  facet normal -0.999997 1.67683e-016 0.00253769
    outer loop
      vertex -0.999864 -28.0806 -0.000195932
      vertex -0.999737 -28.1161 0.0500234
      vertex -0.999864 -25 -0.000195932
    endloop
  endfacet
  facet normal -0.999997 1.67683e-016 0.00253769
    outer loop
      vertex -0.999864 -25 -0.000195932
      vertex -0.999737 -28.1161 0.0500234
      vertex -0.999737 -25 0.0500234
    endloop
  endfacet
  facet normal 0.000389831 -1.04259e-016 -1
    outer loop
      vertex -0.999864 -71 -0.000195932
      vertex -0.999864 -67.9194 -0.000195932
      vertex 0.999885 -71 0.000583632
    endloop
  endfacet
  facet normal 0.000389831 -1.04259e-016 -1
    outer loop
      vertex 0.999885 -71 0.000583632
      vertex -0.999864 -67.9194 -0.000195932
      vertex -0.999864 -28.0806 -0.000195932
    endloop
  endfacet
  facet normal 0.000389831 -1.04259e-016 -1
    outer loop
      vertex 0.999885 -71 0.000583632
      vertex -0.999864 -28.0806 -0.000195932
      vertex -0.999864 -25 -0.000195932
    endloop
  endfacet
  facet normal 0.000389831 -1.04259e-016 -1
    outer loop
      vertex 0.999885 -71 0.000583632
      vertex -0.999864 -25 -0.000195932
      vertex 0.999885 -25 0.000583632
    endloop
  endfacet
  facet normal -0.816481 1.96853e-016 0.577372
    outer loop
      vertex -0.999737 -28.1161 0.0500234
      vertex -7.91488e-005 -29.1157 1.46367
      vertex -0.999737 -25 0.0500234
    endloop
  endfacet
  facet normal -0.816481 1.96853e-016 0.577372
    outer loop
      vertex -0.999737 -25 0.0500234
      vertex -7.91488e-005 -29.1157 1.46367
      vertex -7.91488e-005 -25 1.46367
    endloop
  endfacet
  facet normal 0.816213 -7.6452e-017 0.577751
    outer loop
      vertex -7.91488e-005 -66.8843 1.46367
      vertex -7.91488e-005 -71 1.46367
      vertex 1.00001 -71 0.050803
    endloop
  endfacet
  facet normal 0.816213 -7.6452e-017 0.577751
    outer loop
      vertex 0.999892 -67.8833 0.0509725
      vertex -7.91488e-005 -66.8843 1.46367
      vertex 1.00001 -71 0.050803
    endloop
  endfacet
  facet normal 0.816213 -7.6452e-017 0.577751
    outer loop
      vertex -7.91488e-005 -25 1.46367
      vertex -7.91488e-005 -29.1157 1.46367
      vertex 1.00001 -25 0.050803
    endloop
  endfacet
  facet normal 0.816213 -7.6452e-017 0.577751
    outer loop
      vertex 1.00001 -25 0.050803
      vertex 0.999892 -28.1168 0.0509725
      vertex 1.00001 -71 0.050803
    endloop
  endfacet
  facet normal 0.816213 -7.6452e-017 0.577751
    outer loop
      vertex 0.999892 -28.1168 0.0509725
      vertex 0.999892 -67.8833 0.0509725
      vertex 1.00001 -71 0.050803
    endloop
  endfacet
  facet normal 0.816213 -7.6452e-017 0.577751
    outer loop
      vertex -7.91488e-005 -29.1157 1.46367
      vertex 0.999892 -28.1168 0.0509725
      vertex 1.00001 -25 0.050803
    endloop
  endfacet
  facet normal 1 -1.67435e-016 -0.00014801
    outer loop
      vertex 1.00013 -66.7527 1.64982
      vertex 0.999892 -67.8833 0.0509725
      vertex 0.999892 -28.1168 0.0509725
    endloop
  endfacet
  facet normal 1 -1.67435e-016 -0.00014801
    outer loop
      vertex 1.00013 -29.2473 1.64982
      vertex 1.00013 -66.7527 1.64982
      vertex 0.999892 -28.1168 0.0509725
    endloop
  endfacet
  facet normal -2.77342e-007 -0.816496 0.577351
    outer loop
      vertex 1.83575e-007 -65.7526 3.06421
      vertex -0.999737 -67.8839 0.0500234
      vertex -7.91488e-005 -66.8843 1.46367
    endloop
  endfacet
  facet normal -2.77342e-007 -0.816496 0.577351
    outer loop
      vertex -0.999864 -67.9194 -0.000195932
      vertex -0.999737 -67.8839 0.0500234
      vertex -0.999978 -66.7526 1.65003
    endloop
  endfacet
  facet normal -2.77342e-007 -0.816496 0.577351
    outer loop
      vertex 0.999892 -67.8833 0.0509725
      vertex 1.00013 -66.7527 1.64982
      vertex -7.91488e-005 -66.8843 1.46367
    endloop
  endfacet
  facet normal -2.77342e-007 -0.816496 0.577351
    outer loop
      vertex 1.00013 -66.7527 1.64982
      vertex 1.83575e-007 -65.7526 3.06421
      vertex -7.91488e-005 -66.8843 1.46367
    endloop
  endfacet
  facet normal -2.77342e-007 -0.816496 0.577351
    outer loop
      vertex 1.83575e-007 -65.7526 3.06421
      vertex -0.999978 -66.7526 1.65003
      vertex -0.999737 -67.8839 0.0500234
    endloop
  endfacet
  facet normal -0.999997 1.67683e-016 0.00253769
    outer loop
      vertex -0.999864 -71 -0.000195932
      vertex -0.999737 -71 0.0500234
      vertex -0.999864 -67.9194 -0.000195932
    endloop
  endfacet
  facet normal -0.999997 1.67683e-016 0.00253769
    outer loop
      vertex -0.999864 -67.9194 -0.000195932
      vertex -0.999737 -71 0.0500234
      vertex -0.999737 -67.8839 0.0500234
    endloop
  endfacet
  facet normal -7.17482e-017 1 -2.72437e-016
    outer loop
      vertex -0.999864 -25 -0.000195932
      vertex -0.999737 -25 0.0500234
      vertex 0.999885 -25 0.000583632
    endloop
  endfacet
  facet normal -7.17482e-017 1 -2.72437e-016
    outer loop
      vertex 0.999885 -25 0.000583632
      vertex -0.999737 -25 0.0500234
      vertex -7.91488e-005 -25 1.46367
    endloop
  endfacet
  facet normal -7.17482e-017 1 -2.72437e-016
    outer loop
      vertex 0.999885 -25 0.000583632
      vertex -7.91488e-005 -25 1.46367
      vertex 1.00001 -25 0.050803
    endloop
  endfacet
  facet normal 0.999997 -1.67683e-016 -0.00253769
    outer loop
      vertex 1.00001 -71 0.050803
      vertex 0.999885 -71 0.000583632
      vertex 0.999885 -25 0.000583632
    endloop
  endfacet
  facet normal 0.999997 -1.67683e-016 -0.00253769
    outer loop
      vertex 1.00001 -25 0.050803
      vertex 1.00001 -71 0.050803
      vertex 0.999885 -25 0.000583632
    endloop
  endfacet
  facet normal 7.17482e-017 -1 2.72437e-016
    outer loop
      vertex -0.999737 -71 0.0500234
      vertex -0.999864 -71 -0.000195932
      vertex 0.999885 -71 0.000583632
    endloop
  endfacet
  facet normal 7.17482e-017 -1 2.72437e-016
    outer loop
      vertex -7.91488e-005 -71 1.46367
      vertex -0.999737 -71 0.0500234
      vertex 1.00001 -71 0.050803
    endloop
  endfacet
  facet normal 7.17482e-017 -1 2.72437e-016
    outer loop
      vertex 1.00001 -71 0.050803
      vertex -0.999737 -71 0.0500234
      vertex 0.999885 -71 0.000583632
    endloop
  endfacet
  facet normal -0.816481 1.96853e-016 0.577372
    outer loop
      vertex -0.999737 -71 0.0500234
      vertex -7.91488e-005 -71 1.46367
      vertex -0.999737 -67.8839 0.0500234
    endloop
  endfacet
  facet normal -0.816481 1.96853e-016 0.577372
    outer loop
      vertex -0.999737 -67.8839 0.0500234
      vertex -7.91488e-005 -71 1.46367
      vertex -7.91488e-005 -66.8843 1.46367
    endloop
  endfacet
  facet normal -1 5.77213e-017 -0.00015289
    outer loop
      vertex 2.19983 -66.7528 1.64976
      vertex 2.19983 -29.2473 1.64976
      vertex 2.20008 -67.919 0.000510212
    endloop
  endfacet
  facet normal -1 5.77213e-017 -0.00015289
    outer loop
      vertex 2.20008 -67.919 0.000510212
      vertex 2.19983 -29.2473 1.64976
      vertex 2.20008 -28.0811 0.000510212
    endloop
  endfacet
  facet normal -0.816497 7.66664e-009 0.57735
    outer loop
      vertex 3.2 -30.2474 3.06421
      vertex 2.19983 -29.2473 1.64976
      vertex 3.2 -65.7526 3.06421
    endloop
  endfacet
  facet normal -0.816497 7.66664e-009 0.57735
    outer loop
      vertex 3.2 -65.7526 3.06421
      vertex 2.19983 -29.2473 1.64976
      vertex 2.19983 -66.7528 1.64976
    endloop
  endfacet
  facet normal 2.12636e-007 -0.816497 0.57735
    outer loop
      vertex 3.2 -65.7526 3.06421
      vertex 2.20012 -67.8835 0.0507297
      vertex 3.19989 -66.8843 1.46382
    endloop
  endfacet
  facet normal 2.12636e-007 -0.816497 0.57735
    outer loop
      vertex 2.20008 -67.919 0.000510212
      vertex 2.20012 -67.8835 0.0507297
      vertex 2.19983 -66.7528 1.64976
    endloop
  endfacet
  facet normal 2.12636e-007 -0.816497 0.57735
    outer loop
      vertex 4.20002 -67.8835 0.050737
      vertex 4.19977 -66.7524 1.65032
      vertex 3.19989 -66.8843 1.46382
    endloop
  endfacet
  facet normal 2.12636e-007 -0.816497 0.57735
    outer loop
      vertex 4.19977 -66.7524 1.65032
      vertex 3.2 -65.7526 3.06421
      vertex 3.19989 -66.8843 1.46382
    endloop
  endfacet
  facet normal 2.12636e-007 -0.816497 0.57735
    outer loop
      vertex 3.2 -65.7526 3.06421
      vertex 2.19983 -66.7528 1.64976
      vertex 2.20012 -67.8835 0.0507297
    endloop
  endfacet
  facet normal -2.67535e-005 -9.17561e-017 -1
    outer loop
      vertex 2.20008 -71.0001 0.000510212
      vertex 2.20008 -67.919 0.000510212
      vertex 4.20002 -71.0001 0.000456707
    endloop
  endfacet
  facet normal -2.67535e-005 -9.17561e-017 -1
    outer loop
      vertex 4.20002 -71.0001 0.000456707
      vertex 2.20008 -67.919 0.000510212
      vertex 2.20008 -28.0811 0.000510212
    endloop
  endfacet
  facet normal -2.67535e-005 -9.17561e-017 -1
    outer loop
      vertex 4.20002 -71.0001 0.000456707
      vertex 2.20008 -28.0811 0.000510212
      vertex 2.20008 -25 0.000510212
    endloop
  endfacet
  facet normal -2.67535e-005 -9.17561e-017 -1
    outer loop
      vertex 4.20002 -71.0001 0.000456707
      vertex 2.20008 -25 0.000510212
      vertex 4.20002 -25 0.000456707
    endloop
  endfacet
  facet normal -1 5.77999e-017 0.000703801
    outer loop
      vertex 2.20008 -71.0001 0.000510212
      vertex 2.20012 -71.0001 0.0507297
      vertex 2.20008 -67.919 0.000510212
    endloop
  endfacet
  facet normal -1 5.77999e-017 0.000703801
    outer loop
      vertex 2.20008 -67.919 0.000510212
      vertex 2.20012 -71.0001 0.0507297
      vertex 2.20012 -67.8835 0.0507297
    endloop
  endfacet
  facet normal -1 5.77999e-017 0.000703801
    outer loop
      vertex 2.20008 -28.0811 0.000510212
      vertex 2.20012 -28.1166 0.0507297
      vertex 2.20008 -25 0.000510212
    endloop
  endfacet
  facet normal -1 5.77999e-017 0.000703801
    outer loop
      vertex 2.20008 -25 0.000510212
      vertex 2.20012 -28.1166 0.0507297
      vertex 2.20012 -25 0.0507297
    endloop
  endfacet
  facet normal -9.5645e-007 0.816497 0.57735
    outer loop
      vertex 4.19977 -29.2477 1.65032
      vertex 4.20002 -28.1166 0.050737
      vertex 3.2 -30.2474 3.06421
    endloop
  endfacet
  facet normal -9.5645e-007 0.816497 0.57735
    outer loop
      vertex 3.2 -30.2474 3.06421
      vertex 4.20002 -28.1166 0.050737
      vertex 3.19989 -29.1158 1.46382
    endloop
  endfacet
  facet normal -9.5645e-007 0.816497 0.57735
    outer loop
      vertex 3.2 -30.2474 3.06421
      vertex 3.19989 -29.1158 1.46382
      vertex 2.20012 -28.1166 0.0507297
    endloop
  endfacet
  facet normal -9.5645e-007 0.816497 0.57735
    outer loop
      vertex 2.20012 -28.1166 0.0507297
      vertex 2.20008 -28.0811 0.000510212
      vertex 2.19983 -29.2473 1.64976
    endloop
  endfacet
  facet normal -9.5645e-007 0.816497 0.57735
    outer loop
      vertex 2.20012 -28.1166 0.0507297
      vertex 2.19983 -29.2473 1.64976
      vertex 3.2 -30.2474 3.06421
    endloop
  endfacet
  facet normal 0.816497 -2.54944e-009 0.57735
    outer loop
      vertex 4.19977 -66.7524 1.65032
      vertex 4.19977 -29.2477 1.65032
      vertex 3.2 -30.2474 3.06421
    endloop
  endfacet
  facet normal 0.816497 -2.54944e-009 0.57735
    outer loop
      vertex 3.2 -65.7526 3.06421
      vertex 4.19977 -66.7524 1.65032
      vertex 3.2 -30.2474 3.06421
    endloop
  endfacet
  facet normal 1 -5.77213e-017 0.00015289
    outer loop
      vertex 4.20002 -28.1166 0.050737
      vertex 4.19977 -29.2477 1.65032
      vertex 4.19977 -66.7524 1.65032
    endloop
  endfacet
  facet normal 1 -5.77213e-017 0.00015289
    outer loop
      vertex 4.20002 -67.8835 0.050737
      vertex 4.20002 -28.1166 0.050737
      vertex 4.19977 -66.7524 1.65032
    endloop
  endfacet
  facet normal 0.816244 5.88288e-018 0.577707
    outer loop
      vertex 3.19989 -66.8843 1.46382
      vertex 3.19989 -71.0001 1.46382
      vertex 4.20006 -71.0001 0.0506762
    endloop
  endfacet
  facet normal 0.816244 5.88288e-018 0.577707
    outer loop
      vertex 4.20002 -67.8835 0.050737
      vertex 3.19989 -66.8843 1.46382
      vertex 4.20006 -71.0001 0.0506762
    endloop
  endfacet
  facet normal 0.816244 5.88288e-018 0.577707
    outer loop
      vertex 3.19989 -25 1.46382
      vertex 3.19989 -29.1158 1.46382
      vertex 4.20006 -25 0.0506762
    endloop
  endfacet
  facet normal 0.816244 5.88288e-018 0.577707
    outer loop
      vertex 4.20006 -25 0.0506762
      vertex 4.20002 -28.1166 0.050737
      vertex 4.20006 -71.0001 0.0506762
    endloop
  endfacet
  facet normal 0.816244 5.88288e-018 0.577707
    outer loop
      vertex 4.20002 -28.1166 0.050737
      vertex 4.20002 -67.8835 0.050737
      vertex 4.20006 -71.0001 0.0506762
    endloop
  endfacet
  facet normal 0.816244 5.88288e-018 0.577707
    outer loop
      vertex 3.19989 -29.1158 1.46382
      vertex 4.20002 -28.1166 0.050737
      vertex 4.20006 -25 0.0506762
    endloop
  endfacet
  facet normal -0.816343 1.00128e-016 0.577568
    outer loop
      vertex 2.20012 -71.0001 0.0507297
      vertex 3.19989 -71.0001 1.46382
      vertex 2.20012 -67.8835 0.0507297
    endloop
  endfacet
  facet normal -0.816343 1.00128e-016 0.577568
    outer loop
      vertex 2.20012 -67.8835 0.0507297
      vertex 3.19989 -71.0001 1.46382
      vertex 3.19989 -66.8843 1.46382
    endloop
  endfacet
  facet normal -1.47283e-017 -1 1.14864e-016
    outer loop
      vertex 2.20012 -71.0001 0.0507297
      vertex 2.20008 -71.0001 0.000510212
      vertex 4.20002 -71.0001 0.000456707
    endloop
  endfacet
  facet normal -1.47283e-017 -1 1.14864e-016
    outer loop
      vertex 3.19989 -71.0001 1.46382
      vertex 2.20012 -71.0001 0.0507297
      vertex 4.20006 -71.0001 0.0506762
    endloop
  endfacet
  facet normal -1.47283e-017 -1 1.14864e-016
    outer loop
      vertex 4.20006 -71.0001 0.0506762
      vertex 2.20012 -71.0001 0.0507297
      vertex 4.20002 -71.0001 0.000456707
    endloop
  endfacet
  facet normal 1 -5.77999e-017 -0.000703801
    outer loop
      vertex 4.20006 -71.0001 0.0506762
      vertex 4.20002 -71.0001 0.000456707
      vertex 4.20002 -25 0.000456707
    endloop
  endfacet
  facet normal 1 -5.77999e-017 -0.000703801
    outer loop
      vertex 4.20006 -25 0.0506762
      vertex 4.20006 -71.0001 0.0506762
      vertex 4.20002 -25 0.000456707
    endloop
  endfacet
  facet normal 1.47283e-017 1 -1.14864e-016
    outer loop
      vertex 2.20008 -25 0.000510212
      vertex 2.20012 -25 0.0507297
      vertex 4.20002 -25 0.000456707
    endloop
  endfacet
  facet normal 1.47283e-017 1 -1.14864e-016
    outer loop
      vertex 4.20002 -25 0.000456707
      vertex 2.20012 -25 0.0507297
      vertex 3.19989 -25 1.46382
    endloop
  endfacet
  facet normal 1.47283e-017 1 -1.14864e-016
    outer loop
      vertex 4.20002 -25 0.000456707
      vertex 3.19989 -25 1.46382
      vertex 4.20006 -25 0.0506762
    endloop
  endfacet
  facet normal -0.816343 1.00128e-016 0.577568
    outer loop
      vertex 2.20012 -28.1166 0.0507297
      vertex 3.19989 -29.1158 1.46382
      vertex 2.20012 -25 0.0507297
    endloop
  endfacet
  facet normal -0.816343 1.00128e-016 0.577568
    outer loop
      vertex 2.20012 -25 0.0507297
      vertex 3.19989 -29.1158 1.46382
      vertex 3.19989 -25 1.46382
    endloop
  endfacet
  facet normal -0.816497 -6.17354e-009 0.577349
    outer loop
      vertex 6.4 -65.7526 3.06422
      vertex 6.4 -30.2474 3.06422
      vertex 5.39982 -66.7528 1.64974
    endloop
  endfacet
  facet normal -0.816497 -6.17354e-009 0.577349
    outer loop
      vertex 5.39982 -66.7528 1.64974
      vertex 6.4 -30.2474 3.06422
      vertex 5.39982 -29.2473 1.64974
    endloop
  endfacet
  facet normal -1 6.91625e-017 -0.000162399
    outer loop
      vertex 5.39982 -29.2473 1.64974
      vertex 5.40009 -28.081 0.000434111
      vertex 5.39982 -66.7528 1.64974
    endloop
  endfacet
  facet normal -1 6.91625e-017 -0.000162399
    outer loop
      vertex 5.39982 -66.7528 1.64974
      vertex 5.40009 -28.081 0.000434111
      vertex 5.40009 -67.919 0.000434111
    endloop
  endfacet
  facet normal 3.43374e-007 0.816497 0.57735
    outer loop
      vertex 7.39983 -29.2476 1.65024
      vertex 7.40009 -28.1162 0.0502063
      vertex 6.4 -30.2474 3.06422
    endloop
  endfacet
  facet normal 3.43374e-007 0.816497 0.57735
    outer loop
      vertex 6.4 -30.2474 3.06422
      vertex 7.40009 -28.1162 0.0502063
      vertex 6.39983 -29.1161 1.46421
    endloop
  endfacet
  facet normal 3.43374e-007 0.816497 0.57735
    outer loop
      vertex 6.4 -30.2474 3.06422
      vertex 6.39983 -29.1161 1.46421
      vertex 5.40025 -28.1164 0.0504338
    endloop
  endfacet
  facet normal 3.43374e-007 0.816497 0.57735
    outer loop
      vertex 5.40025 -28.1164 0.0504338
      vertex 5.40009 -28.081 0.000434111
      vertex 5.39982 -29.2473 1.64974
    endloop
  endfacet
  facet normal 3.43374e-007 0.816497 0.57735
    outer loop
      vertex 5.40025 -28.1164 0.0504338
      vertex 5.39982 -29.2473 1.64974
      vertex 6.4 -30.2474 3.06422
    endloop
  endfacet
  facet normal 7.28958e-008 -0.816497 0.57735
    outer loop
      vertex 6.4 -65.7526 3.06422
      vertex 5.40025 -67.8837 0.0504338
      vertex 6.39983 -66.884 1.46421
    endloop
  endfacet
  facet normal 7.28958e-008 -0.816497 0.57735
    outer loop
      vertex 5.40009 -67.919 0.000434111
      vertex 5.40025 -67.8837 0.0504338
      vertex 5.39982 -66.7528 1.64974
    endloop
  endfacet
  facet normal 7.28958e-008 -0.816497 0.57735
    outer loop
      vertex 7.40009 -67.8838 0.0502063
      vertex 7.39983 -66.7525 1.65024
      vertex 6.39983 -66.884 1.46421
    endloop
  endfacet
  facet normal 7.28958e-008 -0.816497 0.57735
    outer loop
      vertex 7.39983 -66.7525 1.65024
      vertex 6.4 -65.7526 3.06422
      vertex 6.39983 -66.884 1.46421
    endloop
  endfacet
  facet normal 7.28958e-008 -0.816497 0.57735
    outer loop
      vertex 6.4 -65.7526 3.06422
      vertex 5.39982 -66.7528 1.64974
      vertex 5.40025 -67.8837 0.0504338
    endloop
  endfacet
  facet normal 0.816497 -8.87756e-009 0.577349
    outer loop
      vertex 7.39983 -66.7525 1.65024
      vertex 7.39983 -29.2476 1.65024
      vertex 6.4 -30.2474 3.06422
    endloop
  endfacet
  facet normal 0.816497 -8.87756e-009 0.577349
    outer loop
      vertex 6.4 -65.7526 3.06422
      vertex 7.39983 -66.7525 1.65024
      vertex 6.4 -30.2474 3.06422
    endloop
  endfacet
  facet normal -0.000233823 -1.64856e-016 -1
    outer loop
      vertex 5.40009 -71.0001 0.000434111
      vertex 5.40009 -67.919 0.000434111
      vertex 7.4001 -71.0001 -3.35376e-005
    endloop
  endfacet
  facet normal -0.000233823 -1.64856e-016 -1
    outer loop
      vertex 7.4001 -71.0001 -3.35376e-005
      vertex 5.40009 -67.919 0.000434111
      vertex 5.40009 -28.081 0.000434111
    endloop
  endfacet
  facet normal -0.000233823 -1.64856e-016 -1
    outer loop
      vertex 7.4001 -71.0001 -3.35376e-005
      vertex 5.40009 -28.081 0.000434111
      vertex 5.40009 -25 0.000434111
    endloop
  endfacet
  facet normal -0.000233823 -1.64856e-016 -1
    outer loop
      vertex 7.4001 -71.0001 -3.35376e-005
      vertex 5.40009 -25 0.000434111
      vertex 7.4001 -25 -3.35376e-005
    endloop
  endfacet
  facet normal -0.999995 6.97221e-017 0.00323381
    outer loop
      vertex 5.40009 -71.0001 0.000434111
      vertex 5.40025 -71.0001 0.0504338
      vertex 5.40009 -67.919 0.000434111
    endloop
  endfacet
  facet normal -0.999995 6.97221e-017 0.00323381
    outer loop
      vertex 5.40009 -67.919 0.000434111
      vertex 5.40025 -71.0001 0.0504338
      vertex 5.40025 -67.8837 0.0504338
    endloop
  endfacet
  facet normal -0.999995 6.97221e-017 0.00323381
    outer loop
      vertex 5.40009 -28.081 0.000434111
      vertex 5.40025 -28.1164 0.0504338
      vertex 5.40009 -25 0.000434111
    endloop
  endfacet
  facet normal -0.999995 6.97221e-017 0.00323381
    outer loop
      vertex 5.40009 -25 0.000434111
      vertex 5.40025 -28.1164 0.0504338
      vertex 5.40025 -25 0.0504338
    endloop
  endfacet
  facet normal -0.816527 1.51677e-016 0.577307
    outer loop
      vertex 5.40025 -28.1164 0.0504338
      vertex 6.39983 -29.1161 1.46421
      vertex 5.40025 -25 0.0504338
    endloop
  endfacet
  facet normal -0.816527 1.51677e-016 0.577307
    outer loop
      vertex 5.40025 -25 0.0504338
      vertex 6.39983 -29.1161 1.46421
      vertex 6.39983 -25 1.46421
    endloop
  endfacet
  facet normal 0.816385 3.87298e-017 0.577509
    outer loop
      vertex 6.39983 -66.884 1.46421
      vertex 6.39983 -71.0001 1.46421
      vertex 7.40026 -71.0001 0.0499662
    endloop
  endfacet
  facet normal 0.816385 3.87298e-017 0.577509
    outer loop
      vertex 7.40009 -67.8838 0.0502063
      vertex 6.39983 -66.884 1.46421
      vertex 7.40026 -71.0001 0.0499662
    endloop
  endfacet
  facet normal 0.816385 3.87298e-017 0.577509
    outer loop
      vertex 6.39983 -25 1.46421
      vertex 6.39983 -29.1161 1.46421
      vertex 7.40026 -25 0.0499662
    endloop
  endfacet
  facet normal 0.816385 3.87298e-017 0.577509
    outer loop
      vertex 7.40026 -25 0.0499662
      vertex 7.40009 -28.1162 0.0502063
      vertex 7.40026 -71.0001 0.0499662
    endloop
  endfacet
  facet normal 0.816385 3.87298e-017 0.577509
    outer loop
      vertex 7.40009 -28.1162 0.0502063
      vertex 7.40009 -67.8838 0.0502063
      vertex 7.40026 -71.0001 0.0499662
    endloop
  endfacet
  facet normal 0.816385 3.87298e-017 0.577509
    outer loop
      vertex 6.39983 -29.1161 1.46421
      vertex 7.40009 -28.1162 0.0502063
      vertex 7.40026 -25 0.0499662
    endloop
  endfacet
  facet normal 1 -6.91625e-017 0.000162399
    outer loop
      vertex 7.40009 -28.1162 0.0502063
      vertex 7.39983 -29.2476 1.65024
      vertex 7.39983 -66.7525 1.65024
    endloop
  endfacet
  facet normal 1 -6.91625e-017 0.000162399
    outer loop
      vertex 7.40009 -67.8838 0.0502063
      vertex 7.40009 -28.1162 0.0502063
      vertex 7.39983 -66.7525 1.65024
    endloop
  endfacet
  facet normal -0.816527 1.51677e-016 0.577307
    outer loop
      vertex 5.40025 -71.0001 0.0504338
      vertex 6.39983 -71.0001 1.46421
      vertex 5.40025 -67.8837 0.0504338
    endloop
  endfacet
  facet normal -0.816527 1.51677e-016 0.577307
    outer loop
      vertex 5.40025 -67.8837 0.0504338
      vertex 6.39983 -71.0001 1.46421
      vertex 6.39983 -66.884 1.46421
    endloop
  endfacet
  facet normal -2.8722e-017 -1 3.22992e-016
    outer loop
      vertex 5.40025 -71.0001 0.0504338
      vertex 5.40009 -71.0001 0.000434111
      vertex 7.4001 -71.0001 -3.35376e-005
    endloop
  endfacet
  facet normal -2.8722e-017 -1 3.22992e-016
    outer loop
      vertex 6.39983 -71.0001 1.46421
      vertex 5.40025 -71.0001 0.0504338
      vertex 7.40026 -71.0001 0.0499662
    endloop
  endfacet
  facet normal -2.8722e-017 -1 3.22992e-016
    outer loop
      vertex 7.40026 -71.0001 0.0499662
      vertex 5.40025 -71.0001 0.0504338
      vertex 7.4001 -71.0001 -3.35376e-005
    endloop
  endfacet
  facet normal 0.999995 -6.97221e-017 -0.00323381
    outer loop
      vertex 7.40026 -71.0001 0.0499662
      vertex 7.4001 -71.0001 -3.35376e-005
      vertex 7.4001 -25 -3.35376e-005
    endloop
  endfacet
  facet normal 0.999995 -6.97221e-017 -0.00323381
    outer loop
      vertex 7.40026 -25 0.0499662
      vertex 7.40026 -71.0001 0.0499662
      vertex 7.4001 -25 -3.35376e-005
    endloop
  endfacet
  facet normal 2.8722e-017 1 -3.22992e-016
    outer loop
      vertex 5.40009 -25 0.000434111
      vertex 5.40025 -25 0.0504338
      vertex 7.4001 -25 -3.35376e-005
    endloop
  endfacet
  facet normal 2.8722e-017 1 -3.22992e-016
    outer loop
      vertex 7.4001 -25 -3.35376e-005
      vertex 5.40025 -25 0.0504338
      vertex 6.39983 -25 1.46421
    endloop
  endfacet
  facet normal 2.8722e-017 1 -3.22992e-016
    outer loop
      vertex 7.4001 -25 -3.35376e-005
      vertex 6.39983 -25 1.46421
      vertex 7.40026 -25 0.0499662
    endloop
  endfacet
  facet normal -0.816543 5.18979e-019 0.577284
    outer loop
      vertex 9.59985 -29.116 1.46406
      vertex 9.59985 -25 1.46406
      vertex 8.60018 -28.1161 0.0500594
    endloop
  endfacet
  facet normal -0.816543 5.18979e-019 0.577284
    outer loop
      vertex 9.59985 -66.884 1.46406
      vertex 8.59987 -71 0.0496259
      vertex 9.59985 -71 1.46406
    endloop
  endfacet
  facet normal -0.816543 5.18979e-019 0.577284
    outer loop
      vertex 8.59987 -25 0.0496259
      vertex 8.59987 -71 0.0496259
      vertex 8.60018 -67.8838 0.0500594
    endloop
  endfacet
  facet normal -0.816543 5.18979e-019 0.577284
    outer loop
      vertex 8.59987 -25 0.0496259
      vertex 8.60018 -67.8838 0.0500594
      vertex 8.60018 -28.1161 0.0500594
    endloop
  endfacet
  facet normal -0.816543 5.18979e-019 0.577284
    outer loop
      vertex 8.59987 -25 0.0496259
      vertex 8.60018 -28.1161 0.0500594
      vertex 9.59985 -25 1.46406
    endloop
  endfacet
  facet normal -0.816543 5.18979e-019 0.577284
    outer loop
      vertex 8.60018 -67.8838 0.0500594
      vertex 8.59987 -71 0.0496259
      vertex 9.59985 -66.884 1.46406
    endloop
  endfacet
  facet normal -0.99998 -3.87562e-016 -0.00630776
    outer loop
      vertex 8.59987 -25 0.0496259
      vertex 8.60018 -25 0.000800696
      vertex 8.59987 -71 0.0496259
    endloop
  endfacet
  facet normal -0.99998 -3.87562e-016 -0.00630776
    outer loop
      vertex 8.59987 -71 0.0496259
      vertex 8.60018 -25 0.000800696
      vertex 8.60018 -71 0.000800696
    endloop
  endfacet
  facet normal -3.16264e-016 1 -5.73325e-016
    outer loop
      vertex 8.59987 -25 0.0496259
      vertex 9.59985 -25 1.46406
      vertex 8.60018 -25 0.000800696
    endloop
  endfacet
  facet normal -3.16264e-016 1 -5.73325e-016
    outer loop
      vertex 8.60018 -25 0.000800696
      vertex 9.59985 -25 1.46406
      vertex 10.6004 -25 0.050284
    endloop
  endfacet
  facet normal -3.16264e-016 1 -5.73325e-016
    outer loop
      vertex 8.60018 -25 0.000800696
      vertex 10.6004 -25 0.050284
      vertex 10.6005 -25 6.44863e-005
    endloop
  endfacet
  facet normal 0.816266 6.27955e-016 0.577676
    outer loop
      vertex 10.6004 -25 0.050284
      vertex 9.59985 -25 1.46406
      vertex 9.59985 -29.116 1.46406
    endloop
  endfacet
  facet normal 0.816266 6.27955e-016 0.577676
    outer loop
      vertex 10.6004 -28.1163 0.050284
      vertex 10.6004 -25 0.050284
      vertex 9.59985 -29.116 1.46406
    endloop
  endfacet
  facet normal 1.97074e-007 0.816496 0.577351
    outer loop
      vertex 10.6 -29.2474 1.64993
      vertex 10.6004 -28.1163 0.050284
      vertex 9.6 -30.2475 3.06421
    endloop
  endfacet
  facet normal 1.97074e-007 0.816496 0.577351
    outer loop
      vertex 10.6 -29.2474 1.64993
      vertex 10.6005 -28.0808 6.44863e-005
      vertex 10.6004 -28.1163 0.050284
    endloop
  endfacet
  facet normal 1.97074e-007 0.816496 0.577351
    outer loop
      vertex 9.6 -30.2475 3.06421
      vertex 9.59985 -29.116 1.46406
      vertex 8.60018 -28.1161 0.0500594
    endloop
  endfacet
  facet normal 1.97074e-007 0.816496 0.577351
    outer loop
      vertex 9.6 -30.2475 3.06421
      vertex 8.60018 -28.1161 0.0500594
      vertex 8.60013 -29.2476 1.65018
    endloop
  endfacet
  facet normal 1.97074e-007 0.816496 0.577351
    outer loop
      vertex 9.59985 -29.116 1.46406
      vertex 9.6 -30.2475 3.06421
      vertex 10.6004 -28.1163 0.050284
    endloop
  endfacet
  facet normal -1 -3.84154e-016 -3.10182e-005
    outer loop
      vertex 8.60013 -66.7524 1.65018
      vertex 8.60013 -29.2476 1.65018
      vertex 8.60018 -67.8838 0.0500594
    endloop
  endfacet
  facet normal -1 -3.84154e-016 -3.10182e-005
    outer loop
      vertex 8.60018 -67.8838 0.0500594
      vertex 8.60013 -29.2476 1.65018
      vertex 8.60018 -28.1161 0.0500594
    endloop
  endfacet
  facet normal -7.34047e-008 -0.816497 0.57735
    outer loop
      vertex 10.6 -66.7526 1.64993
      vertex 9.59985 -66.884 1.46406
      vertex 10.6004 -67.8837 0.050284
    endloop
  endfacet
  facet normal -7.34047e-008 -0.816497 0.57735
    outer loop
      vertex 8.60018 -67.8838 0.0500594
      vertex 9.59985 -66.884 1.46406
      vertex 9.6 -65.7525 3.06421
    endloop
  endfacet
  facet normal -7.34047e-008 -0.816497 0.57735
    outer loop
      vertex 10.6005 -67.9192 6.44863e-005
      vertex 10.6 -66.7526 1.64993
      vertex 10.6004 -67.8837 0.050284
    endloop
  endfacet
  facet normal -7.34047e-008 -0.816497 0.57735
    outer loop
      vertex 10.6 -66.7526 1.64993
      vertex 9.6 -65.7525 3.06421
      vertex 9.59985 -66.884 1.46406
    endloop
  endfacet
  facet normal -7.34047e-008 -0.816497 0.57735
    outer loop
      vertex 9.6 -65.7525 3.06421
      vertex 8.60013 -66.7524 1.65018
      vertex 8.60018 -67.8838 0.0500594
    endloop
  endfacet
  facet normal 0.816266 6.27955e-016 0.577676
    outer loop
      vertex 10.6004 -67.8837 0.050284
      vertex 9.59985 -66.884 1.46406
      vertex 9.59985 -71 1.46406
    endloop
  endfacet
  facet normal 0.816266 6.27955e-016 0.577676
    outer loop
      vertex 10.6004 -71 0.050284
      vertex 10.6004 -67.8837 0.050284
      vertex 9.59985 -71 1.46406
    endloop
  endfacet
  facet normal 3.16264e-016 -1 5.73325e-016
    outer loop
      vertex 9.59985 -71 1.46406
      vertex 8.59987 -71 0.0496259
      vertex 8.60018 -71 0.000800696
    endloop
  endfacet
  facet normal 3.16264e-016 -1 5.73325e-016
    outer loop
      vertex 10.6004 -71 0.050284
      vertex 9.59985 -71 1.46406
      vertex 10.6005 -71 6.44863e-005
    endloop
  endfacet
  facet normal 3.16264e-016 -1 5.73325e-016
    outer loop
      vertex 10.6005 -71 6.44863e-005
      vertex 9.59985 -71 1.46406
      vertex 8.60018 -71 0.000800696
    endloop
  endfacet
  facet normal -0.000368053 -5.44386e-016 -1
    outer loop
      vertex 8.60018 -25 0.000800696
      vertex 10.6005 -25 6.44863e-005
      vertex 8.60018 -71 0.000800696
    endloop
  endfacet
  facet normal -0.000368053 -5.44386e-016 -1
    outer loop
      vertex 8.60018 -71 0.000800696
      vertex 10.6005 -25 6.44863e-005
      vertex 10.6005 -28.0808 6.44863e-005
    endloop
  endfacet
  facet normal -0.000368053 -5.44386e-016 -1
    outer loop
      vertex 8.60018 -71 0.000800696
      vertex 10.6005 -28.0808 6.44863e-005
      vertex 10.6005 -67.9192 6.44863e-005
    endloop
  endfacet
  facet normal -0.000368053 -5.44386e-016 -1
    outer loop
      vertex 8.60018 -71 0.000800696
      vertex 10.6005 -67.9192 6.44863e-005
      vertex 10.6005 -71 6.44863e-005
    endloop
  endfacet
  facet normal 0.999999 3.84906e-016 0.00141387
    outer loop
      vertex 10.6005 -25 6.44863e-005
      vertex 10.6004 -25 0.050284
      vertex 10.6004 -28.1163 0.050284
    endloop
  endfacet
  facet normal 0.999999 3.84906e-016 0.00141387
    outer loop
      vertex 10.6005 -28.0808 6.44863e-005
      vertex 10.6005 -25 6.44863e-005
      vertex 10.6004 -28.1163 0.050284
    endloop
  endfacet
  facet normal 0.816497 -6.66665e-009 0.57735
    outer loop
      vertex 10.6 -66.7526 1.64993
      vertex 10.6 -29.2474 1.64993
      vertex 9.6 -30.2475 3.06421
    endloop
  endfacet
  facet normal 0.816497 -6.66665e-009 0.57735
    outer loop
      vertex 9.6 -65.7525 3.06421
      vertex 10.6 -66.7526 1.64993
      vertex 9.6 -30.2475 3.06421
    endloop
  endfacet
  facet normal -0.816497 2.21245e-009 0.57735
    outer loop
      vertex 9.6 -30.2475 3.06421
      vertex 8.60013 -29.2476 1.65018
      vertex 9.6 -65.7525 3.06421
    endloop
  endfacet
  facet normal -0.816497 2.21245e-009 0.57735
    outer loop
      vertex 9.6 -65.7525 3.06421
      vertex 8.60013 -29.2476 1.65018
      vertex 8.60013 -66.7524 1.65018
    endloop
  endfacet
  facet normal 1 3.84273e-016 0.000249327
    outer loop
      vertex 10.6005 -28.0808 6.44863e-005
      vertex 10.6 -29.2474 1.64993
      vertex 10.6 -66.7526 1.64993
    endloop
  endfacet
  facet normal 1 3.84273e-016 0.000249327
    outer loop
      vertex 10.6005 -67.9192 6.44863e-005
      vertex 10.6005 -28.0808 6.44863e-005
      vertex 10.6 -66.7526 1.64993
    endloop
  endfacet
  facet normal 0.999999 3.84906e-016 0.00141387
    outer loop
      vertex 10.6005 -67.9192 6.44863e-005
      vertex 10.6004 -67.8837 0.050284
      vertex 10.6004 -71 0.050284
    endloop
  endfacet
  facet normal 0.999999 3.84906e-016 0.00141387
    outer loop
      vertex 10.6005 -71 6.44863e-005
      vertex 10.6005 -67.9192 6.44863e-005
      vertex 10.6004 -71 0.050284
    endloop
  endfacet
  facet normal -4.66409e-007 0.816496 0.577351
    outer loop
      vertex 13.7998 -29.2476 1.65026
      vertex 13.7999 -28.1162 0.0501348
      vertex 12.8 -30.2475 3.06421
    endloop
  endfacet
  facet normal -4.66409e-007 0.816496 0.577351
    outer loop
      vertex 13.7998 -29.2476 1.65026
      vertex 13.8001 -28.0808 0.000135196
      vertex 13.7999 -28.1162 0.0501348
    endloop
  endfacet
  facet normal -4.66409e-007 0.816496 0.577351
    outer loop
      vertex 12.8 -30.2475 3.06421
      vertex 12.8003 -29.1161 1.4642
      vertex 11.8001 -28.1164 0.0505093
    endloop
  endfacet
  facet normal -4.66409e-007 0.816496 0.577351
    outer loop
      vertex 12.8 -30.2475 3.06421
      vertex 11.8001 -28.1164 0.0505093
      vertex 11.7998 -29.2473 1.64971
    endloop
  endfacet
  facet normal -4.66409e-007 0.816496 0.577351
    outer loop
      vertex 12.8003 -29.1161 1.4642
      vertex 12.8 -30.2475 3.06421
      vertex 13.7999 -28.1162 0.0501348
    endloop
  endfacet
  facet normal -0.816496 -4.06741e-009 0.577351
    outer loop
      vertex 12.8 -65.7526 3.06421
      vertex 12.8 -30.2475 3.06421
      vertex 11.7998 -66.7528 1.64971
    endloop
  endfacet
  facet normal -0.816496 -4.06741e-009 0.577351
    outer loop
      vertex 11.7998 -66.7528 1.64971
      vertex 12.8 -30.2475 3.06421
      vertex 11.7998 -29.2473 1.64971
    endloop
  endfacet
  facet normal -1 1.68341e-017 -0.000172444
    outer loop
      vertex 11.7998 -29.2473 1.64971
      vertex 11.8001 -28.1164 0.0505093
      vertex 11.7998 -66.7528 1.64971
    endloop
  endfacet
  facet normal -1 1.68341e-017 -0.000172444
    outer loop
      vertex 11.7998 -66.7528 1.64971
      vertex 11.8001 -28.1164 0.0505093
      vertex 11.8001 -67.8836 0.0505093
    endloop
  endfacet
  facet normal 0.816496 1.21607e-008 0.57735
    outer loop
      vertex 12.8 -65.7526 3.06421
      vertex 13.7998 -66.7524 1.65026
      vertex 13.7998 -29.2476 1.65026
    endloop
  endfacet
  facet normal 0.816496 1.21607e-008 0.57735
    outer loop
      vertex 12.8 -30.2475 3.06421
      vertex 12.8 -65.7526 3.06421
      vertex 13.7998 -29.2476 1.65026
    endloop
  endfacet
  facet normal -0.816331 9.28912e-017 0.577584
    outer loop
      vertex 11.7999 -71 0.0502427
      vertex 12.8003 -71 1.4642
      vertex 11.8001 -67.8836 0.0505093
    endloop
  endfacet
  facet normal -0.816331 9.28912e-017 0.577584
    outer loop
      vertex 11.7999 -71 0.0502427
      vertex 11.8001 -67.8836 0.0505093
      vertex 11.7999 -25 0.0502427
    endloop
  endfacet
  facet normal -0.816331 9.28912e-017 0.577584
    outer loop
      vertex 12.8003 -29.1161 1.4642
      vertex 11.7999 -25 0.0502427
      vertex 11.8001 -28.1164 0.0505093
    endloop
  endfacet
  facet normal -0.816331 9.28912e-017 0.577584
    outer loop
      vertex 11.8001 -67.8836 0.0505093
      vertex 11.8001 -28.1164 0.0505093
      vertex 11.7999 -25 0.0502427
    endloop
  endfacet
  facet normal -0.816331 9.28912e-017 0.577584
    outer loop
      vertex 11.7999 -25 0.0502427
      vertex 12.8003 -29.1161 1.4642
      vertex 12.8003 -25 1.4642
    endloop
  endfacet
  facet normal -0.816331 9.28912e-017 0.577584
    outer loop
      vertex 11.8001 -67.8836 0.0505093
      vertex 12.8003 -71 1.4642
      vertex 12.8003 -66.884 1.4642
    endloop
  endfacet
  facet normal 0.816581 6.53157e-017 0.577232
    outer loop
      vertex 12.8003 -25 1.4642
      vertex 12.8003 -29.1161 1.4642
      vertex 13.7999 -28.1162 0.0501348
    endloop
  endfacet
  facet normal 0.816581 6.53157e-017 0.577232
    outer loop
      vertex 13.7999 -25 0.0501348
      vertex 12.8003 -25 1.4642
      vertex 13.7999 -28.1162 0.0501348
    endloop
  endfacet
  facet normal 0.999992 -1.6317e-017 0.003946
    outer loop
      vertex 13.7999 -25 0.0501348
      vertex 13.7999 -28.1162 0.0501348
      vertex 13.8001 -28.0808 0.000135196
    endloop
  endfacet
  facet normal 0.999992 -1.6317e-017 0.003946
    outer loop
      vertex 13.8001 -25 0.000135196
      vertex 13.7999 -25 0.0501348
      vertex 13.8001 -28.0808 0.000135196
    endloop
  endfacet
  facet normal -5.39673e-005 -1.37e-016 -1
    outer loop
      vertex 11.8001 -71 0.000243132
      vertex 11.8001 -25 0.000243132
      vertex 13.8001 -71 0.000135196
    endloop
  endfacet
  facet normal -5.39673e-005 -1.37e-016 -1
    outer loop
      vertex 13.8001 -28.0808 0.000135196
      vertex 11.8001 -25 0.000243132
      vertex 13.8001 -25 0.000135196
    endloop
  endfacet
  facet normal -5.39673e-005 -1.37e-016 -1
    outer loop
      vertex 13.8001 -67.9192 0.000135196
      vertex 11.8001 -25 0.000243132
      vertex 13.8001 -28.0808 0.000135196
    endloop
  endfacet
  facet normal -5.39673e-005 -1.37e-016 -1
    outer loop
      vertex 13.8001 -71 0.000135196
      vertex 11.8001 -25 0.000243132
      vertex 13.8001 -67.9192 0.000135196
    endloop
  endfacet
  facet normal 1 -1.68341e-017 0.000172444
    outer loop
      vertex 13.7998 -29.2476 1.65026
      vertex 13.7998 -66.7524 1.65026
      vertex 13.8001 -67.9192 0.000135196
    endloop
  endfacet
  facet normal 1 -1.68341e-017 0.000172444
    outer loop
      vertex 13.8001 -28.0808 0.000135196
      vertex 13.7998 -29.2476 1.65026
      vertex 13.8001 -67.9192 0.000135196
    endloop
  endfacet
  facet normal 7.02678e-007 -0.816497 0.57735
    outer loop
      vertex 13.7998 -66.7524 1.65026
      vertex 12.8003 -66.884 1.4642
      vertex 13.7999 -67.8839 0.0501348
    endloop
  endfacet
  facet normal 7.02678e-007 -0.816497 0.57735
    outer loop
      vertex 11.8001 -67.8836 0.0505093
      vertex 12.8003 -66.884 1.4642
      vertex 12.8 -65.7526 3.06421
    endloop
  endfacet
  facet normal 7.02678e-007 -0.816497 0.57735
    outer loop
      vertex 13.8001 -67.9192 0.000135196
      vertex 13.7998 -66.7524 1.65026
      vertex 13.7999 -67.8839 0.0501348
    endloop
  endfacet
  facet normal 7.02678e-007 -0.816497 0.57735
    outer loop
      vertex 13.7998 -66.7524 1.65026
      vertex 12.8 -65.7526 3.06421
      vertex 12.8003 -66.884 1.4642
    endloop
  endfacet
  facet normal 7.02678e-007 -0.816497 0.57735
    outer loop
      vertex 12.8 -65.7526 3.06421
      vertex 11.7998 -66.7528 1.64971
      vertex 11.8001 -67.8836 0.0505093
    endloop
  endfacet
  facet normal -0.999992 1.6317e-017 -0.003946
    outer loop
      vertex 11.7999 -71 0.0502427
      vertex 11.7999 -25 0.0502427
      vertex 11.8001 -71 0.000243132
    endloop
  endfacet
  facet normal -0.999992 1.6317e-017 -0.003946
    outer loop
      vertex 11.8001 -71 0.000243132
      vertex 11.7999 -25 0.0502427
      vertex 11.8001 -25 0.000243132
    endloop
  endfacet
  facet normal -1.04671e-018 1 -1.61376e-016
    outer loop
      vertex 11.7999 -25 0.0502427
      vertex 12.8003 -25 1.4642
      vertex 11.8001 -25 0.000243132
    endloop
  endfacet
  facet normal -1.04671e-018 1 -1.61376e-016
    outer loop
      vertex 11.8001 -25 0.000243132
      vertex 12.8003 -25 1.4642
      vertex 13.7999 -25 0.0501348
    endloop
  endfacet
  facet normal -1.04671e-018 1 -1.61376e-016
    outer loop
      vertex 11.8001 -25 0.000243132
      vertex 13.7999 -25 0.0501348
      vertex 13.8001 -25 0.000135196
    endloop
  endfacet
  facet normal 0.816581 6.53157e-017 0.577232
    outer loop
      vertex 12.8003 -66.884 1.4642
      vertex 12.8003 -71 1.4642
      vertex 13.7999 -71 0.0501348
    endloop
  endfacet
  facet normal 0.816581 6.53157e-017 0.577232
    outer loop
      vertex 13.7999 -67.8839 0.0501348
      vertex 12.8003 -66.884 1.4642
      vertex 13.7999 -71 0.0501348
    endloop
  endfacet
  facet normal 1.04671e-018 -1 1.61376e-016
    outer loop
      vertex 12.8003 -71 1.4642
      vertex 11.7999 -71 0.0502427
      vertex 11.8001 -71 0.000243132
    endloop
  endfacet
  facet normal 1.04671e-018 -1 1.61376e-016
    outer loop
      vertex 13.7999 -71 0.0501348
      vertex 12.8003 -71 1.4642
      vertex 13.8001 -71 0.000135196
    endloop
  endfacet
  facet normal 1.04671e-018 -1 1.61376e-016
    outer loop
      vertex 13.8001 -71 0.000135196
      vertex 12.8003 -71 1.4642
      vertex 11.8001 -71 0.000243132
    endloop
  endfacet
  facet normal 0.999992 -1.6317e-017 0.003946
    outer loop
      vertex 13.7999 -67.8839 0.0501348
      vertex 13.7999 -71 0.0501348
      vertex 13.8001 -71 0.000135196
    endloop
  endfacet
  facet normal 0.999992 -1.6317e-017 0.003946
    outer loop
      vertex 13.8001 -67.9192 0.000135196
      vertex 13.7999 -67.8839 0.0501348
      vertex 13.8001 -71 0.000135196
    endloop
  endfacet
  facet normal -7.57593e-007 -0.816497 0.57735
    outer loop
      vertex 16 -65.7526 3.06421
      vertex 14.9999 -67.8841 0.0499246
      vertex 15.9999 -66.884 1.46421
    endloop
  endfacet
  facet normal -7.57593e-007 -0.816497 0.57735
    outer loop
      vertex 14.9998 -67.9194 -7.54069e-005
      vertex 14.9999 -67.8841 0.0499246
      vertex 14.9997 -66.7529 1.64964
    endloop
  endfacet
  facet normal -7.57593e-007 -0.816497 0.57735
    outer loop
      vertex 16.9998 -67.8836 0.0505534
      vertex 16.9997 -66.7524 1.65036
      vertex 15.9999 -66.884 1.46421
    endloop
  endfacet
  facet normal -7.57593e-007 -0.816497 0.57735
    outer loop
      vertex 16.9997 -66.7524 1.65036
      vertex 16 -65.7526 3.06421
      vertex 15.9999 -66.884 1.46421
    endloop
  endfacet
  facet normal -7.57593e-007 -0.816497 0.57735
    outer loop
      vertex 16 -65.7526 3.06421
      vertex 14.9997 -66.7529 1.64964
      vertex 14.9999 -67.8841 0.0499246
    endloop
  endfacet
  facet normal -1 -8.83465e-017 -4.24705e-005
    outer loop
      vertex 14.9997 -66.7529 1.64964
      vertex 14.9997 -29.2472 1.64964
      vertex 14.9998 -67.9194 -7.54069e-005
    endloop
  endfacet
  facet normal -1 -8.83465e-017 -4.24705e-005
    outer loop
      vertex 14.9998 -67.9194 -7.54069e-005
      vertex 14.9997 -29.2472 1.64964
      vertex 14.9998 -28.0807 -7.54069e-005
    endloop
  endfacet
  facet normal -0.816496 9.94825e-009 0.57735
    outer loop
      vertex 16 -30.2474 3.06421
      vertex 14.9997 -29.2472 1.64964
      vertex 16 -65.7526 3.06421
    endloop
  endfacet
  facet normal -0.816496 9.94825e-009 0.57735
    outer loop
      vertex 16 -65.7526 3.06421
      vertex 14.9997 -29.2472 1.64964
      vertex 14.9997 -66.7529 1.64964
    endloop
  endfacet
  facet normal -1 -8.82331e-017 0.000712246
    outer loop
      vertex 14.9998 -67.9194 -7.54069e-005
      vertex 14.9998 -71.0001 -7.54069e-005
      vertex 14.9999 -67.8841 0.0499246
    endloop
  endfacet
  facet normal -1 -8.82331e-017 0.000712246
    outer loop
      vertex 14.9999 -67.8841 0.0499246
      vertex 14.9998 -71.0001 -7.54069e-005
      vertex 14.9999 -71.0001 0.0499246
    endloop
  endfacet
  facet normal 0.000287753 -1.50089e-016 -1
    outer loop
      vertex 14.9998 -25 -7.54069e-005
      vertex 16.9998 -25 0.0005001
      vertex 14.9998 -28.0807 -7.54069e-005
    endloop
  endfacet
  facet normal 0.000287753 -1.50089e-016 -1
    outer loop
      vertex 14.9998 -28.0807 -7.54069e-005
      vertex 16.9998 -25 0.0005001
      vertex 16.9998 -71.0001 0.0005001
    endloop
  endfacet
  facet normal 0.000287753 -1.50089e-016 -1
    outer loop
      vertex 14.9998 -67.9194 -7.54069e-005
      vertex 16.9998 -71.0001 0.0005001
      vertex 14.9998 -71.0001 -7.54069e-005
    endloop
  endfacet
  facet normal 0.000287753 -1.50089e-016 -1
    outer loop
      vertex 14.9998 -28.0807 -7.54069e-005
      vertex 16.9998 -71.0001 0.0005001
      vertex 14.9998 -67.9194 -7.54069e-005
    endloop
  endfacet
  facet normal 0.816496 -3.62409e-009 0.57735
    outer loop
      vertex 16.9997 -66.7524 1.65036
      vertex 16.9997 -29.2477 1.65036
      vertex 16 -30.2474 3.06421
    endloop
  endfacet
  facet normal 0.816496 -3.62409e-009 0.57735
    outer loop
      vertex 16 -65.7526 3.06421
      vertex 16.9997 -66.7524 1.65036
      vertex 16 -30.2474 3.06421
    endloop
  endfacet
  facet normal 1 8.83465e-017 4.24705e-005
    outer loop
      vertex 16.9998 -28.1165 0.0505534
      vertex 16.9997 -29.2477 1.65036
      vertex 16.9997 -66.7524 1.65036
    endloop
  endfacet
  facet normal 1 8.83465e-017 4.24705e-005
    outer loop
      vertex 16.9998 -67.8836 0.0505534
      vertex 16.9998 -28.1165 0.0505534
      vertex 16.9997 -66.7524 1.65036
    endloop
  endfacet
  facet normal 0.816402 1.5881e-016 0.577484
    outer loop
      vertex 16.9999 -25 0.0505001
      vertex 15.9999 -25 1.46421
      vertex 15.9999 -29.1161 1.46421
    endloop
  endfacet
  facet normal 0.816402 1.5881e-016 0.577484
    outer loop
      vertex 16.9998 -67.8836 0.0505534
      vertex 16.9999 -25 0.0505001
      vertex 16.9998 -28.1165 0.0505534
    endloop
  endfacet
  facet normal 0.816402 1.5881e-016 0.577484
    outer loop
      vertex 16.9998 -28.1165 0.0505534
      vertex 16.9999 -25 0.0505001
      vertex 15.9999 -29.1161 1.46421
    endloop
  endfacet
  facet normal 0.816402 1.5881e-016 0.577484
    outer loop
      vertex 16.9999 -71.0001 0.0505001
      vertex 16.9999 -25 0.0505001
      vertex 16.9998 -67.8836 0.0505534
    endloop
  endfacet
  facet normal 0.816402 1.5881e-016 0.577484
    outer loop
      vertex 15.9999 -71.0001 1.46421
      vertex 16.9998 -67.8836 0.0505534
      vertex 15.9999 -66.884 1.46421
    endloop
  endfacet
  facet normal 0.816402 1.5881e-016 0.577484
    outer loop
      vertex 16.9999 -71.0001 0.0505001
      vertex 16.9998 -67.8836 0.0505534
      vertex 15.9999 -71.0001 1.46421
    endloop
  endfacet
  facet normal -0.816509 1.45355e-017 0.577333
    outer loop
      vertex 14.9999 -67.8841 0.0499246
      vertex 14.9999 -71.0001 0.0499246
      vertex 15.9999 -66.884 1.46421
    endloop
  endfacet
  facet normal -0.816509 1.45355e-017 0.577333
    outer loop
      vertex 15.9999 -66.884 1.46421
      vertex 14.9999 -71.0001 0.0499246
      vertex 15.9999 -71.0001 1.46421
    endloop
  endfacet
  facet normal -1 -8.82331e-017 0.000712246
    outer loop
      vertex 14.9998 -25 -7.54069e-005
      vertex 14.9998 -28.0807 -7.54069e-005
      vertex 14.9999 -25 0.0499246
    endloop
  endfacet
  facet normal -1 -8.82331e-017 0.000712246
    outer loop
      vertex 14.9999 -25 0.0499246
      vertex 14.9998 -28.0807 -7.54069e-005
      vertex 14.9999 -28.116 0.0499246
    endloop
  endfacet
  facet normal 1.41016e-007 0.816497 0.57735
    outer loop
      vertex 16.9997 -29.2477 1.65036
      vertex 16.9998 -28.1165 0.0505534
      vertex 16 -30.2474 3.06421
    endloop
  endfacet
  facet normal 1.41016e-007 0.816497 0.57735
    outer loop
      vertex 16 -30.2474 3.06421
      vertex 16.9998 -28.1165 0.0505534
      vertex 15.9999 -29.1161 1.46421
    endloop
  endfacet
  facet normal 1.41016e-007 0.816497 0.57735
    outer loop
      vertex 16 -30.2474 3.06421
      vertex 15.9999 -29.1161 1.46421
      vertex 14.9999 -28.116 0.0499246
    endloop
  endfacet
  facet normal 1.41016e-007 0.816497 0.57735
    outer loop
      vertex 14.9999 -28.116 0.0499246
      vertex 14.9998 -28.0807 -7.54069e-005
      vertex 14.9997 -29.2472 1.64964
    endloop
  endfacet
  facet normal 1.41016e-007 0.816497 0.57735
    outer loop
      vertex 14.9999 -28.116 0.0499246
      vertex 14.9997 -29.2472 1.64964
      vertex 16 -30.2474 3.06421
    endloop
  endfacet
  facet normal -5.56017e-017 -1 2.16999e-016
    outer loop
      vertex 14.9999 -71.0001 0.0499246
      vertex 14.9998 -71.0001 -7.54069e-005
      vertex 16.9998 -71.0001 0.0005001
    endloop
  endfacet
  facet normal -5.56017e-017 -1 2.16999e-016
    outer loop
      vertex 15.9999 -71.0001 1.46421
      vertex 14.9999 -71.0001 0.0499246
      vertex 16.9999 -71.0001 0.0505001
    endloop
  endfacet
  facet normal -5.56017e-017 -1 2.16999e-016
    outer loop
      vertex 16.9999 -71.0001 0.0505001
      vertex 14.9999 -71.0001 0.0499246
      vertex 16.9998 -71.0001 0.0005001
    endloop
  endfacet
  facet normal 1 8.82331e-017 -0.000712246
    outer loop
      vertex 16.9998 -71.0001 0.0005001
      vertex 16.9998 -25 0.0005001
      vertex 16.9999 -25 0.0505001
    endloop
  endfacet
  facet normal 1 8.82331e-017 -0.000712246
    outer loop
      vertex 16.9999 -71.0001 0.0505001
      vertex 16.9998 -71.0001 0.0005001
      vertex 16.9999 -25 0.0505001
    endloop
  endfacet
  facet normal 5.56017e-017 1 -2.16999e-016
    outer loop
      vertex 14.9998 -25 -7.54069e-005
      vertex 14.9999 -25 0.0499246
      vertex 16.9998 -25 0.0005001
    endloop
  endfacet
  facet normal 5.56017e-017 1 -2.16999e-016
    outer loop
      vertex 16.9998 -25 0.0005001
      vertex 14.9999 -25 0.0499246
      vertex 15.9999 -25 1.46421
    endloop
  endfacet
  facet normal 5.56017e-017 1 -2.16999e-016
    outer loop
      vertex 16.9998 -25 0.0005001
      vertex 15.9999 -25 1.46421
      vertex 16.9999 -25 0.0505001
    endloop
  endfacet
  facet normal -0.816509 1.45355e-017 0.577333
    outer loop
      vertex 14.9999 -25 0.0499246
      vertex 14.9999 -28.116 0.0499246
      vertex 15.9999 -25 1.46421
    endloop
  endfacet
  facet normal -0.816509 1.45355e-017 0.577333
    outer loop
      vertex 15.9999 -25 1.46421
      vertex 14.9999 -28.116 0.0499246
      vertex 15.9999 -29.1161 1.46421
    endloop
  endfacet
endsolid OpenSCAD_Model
